<svg xmlns="http://www.w3.org/2000/svg" viewBox="0 0 659.84 618.94"><defs><style>.cls-1{fill:#d7e2eb;}.cls-2{fill:#70439c;}.cls-3{fill:#542c7a;}.cls-4{fill:#c5a8e3;}.cls-5{fill:#9472b8;}.cls-6{fill:#9e6bd1;}.cls-7{fill:#ccc;}.cls-8{fill:#fff;}.cls-9{fill:#b394d1;}</style></defs><g id="Layer_14" data-name="Layer 14"><path class="cls-1" d="M573,585.75a51.44,51.44,0,0,0-7.85-14.61,35.36,35.36,0,0,0-6.11-5.92c-5.49-5-13-9-21.27-12.37a17.73,17.73,0,0,0-7.35-2.84l-.33,0-.81-.27a148.09,148.09,0,0,0-22.94-8.52,19.12,19.12,0,0,0-9.17-.25c-26.42-5.9-54.09-8.34-81.41-5.55-14.43-1.66-29-2.87-43.53-3.8-31-2-62.21-2.42-93.35-2.15-17.55.15-35.1.51-52.65,1-9.09.23-18.18.45-27.26.74-9.73.3-19.38,1.13-27.83,5.1-5.23,2.45-7.94,5.91-8.8,9.88-1.29.24-2.57.51-3.84.82-11.28,1.29-21.84,3.84-31.34,9.73a10.71,10.71,0,0,0-4.78,11.05c.77,4.35,3.75,7.06,8.31,9.6,10.48,5.86,22.71,9.23,35.4,11.08,10.2,6.8,24.27,8.51,38,10.13Q233.59,602,263.17,605q20.83,2.12,41.7,4c6.17,1.77,12.43,3.46,18.61,4.91a438.36,438.36,0,0,0,44.83,8.34,323.07,323.07,0,0,0,49.3,2.68c7.65-.2,15.29-.67,22.9-1.33l3.07-.25a307.2,307.2,0,0,0,77.37.54,16.82,16.82,0,0,0,3.17-.69,113.2,113.2,0,0,0,25.16-5.89c6.17-2.17,12.71-5.1,17.41-8.84C574.39,602.27,575.88,593.69,573,585.75Z" transform="translate(-7.28 -7.06)"/></g><g id="Layer_13" data-name="Layer 13"><path class="cls-2" d="M491.19,588.84c.73,2.06,2,4.44,1.73,6.7a3.1,3.1,0,0,1-.24.85l0,.05h-.07a12.8,12.8,0,0,1-2.33-2.18,74.48,74.48,0,0,1-13.77-19.62,68.41,68.41,0,0,1-3.1-7.42c0-.1,0-.21,0-.32a36.84,36.84,0,0,0-1.41-4.19c-.28-1-.55-2-.79-3-.17-.77-.31-1.55-.42-2.33a33.37,33.37,0,0,1-.09-8.76c1.07-1.25.62-3.6-1.44-3.45-5.41.41-9.67,4.39-11.78,9.22a28,28,0,0,0-2,9.08c-.13,1.59-.17,3.2-.21,4.8a31,31,0,0,1-.15,4.2c-.16,1-.17,1-.9.38a9,9,0,0,1-1.85-3.14,32,32,0,0,1-2.06-7.07,34.05,34.05,0,0,1,.81-14.82,33,33,0,0,1,8.24-14.45c1.68-1.69-.9-4.26-2.62-2.61-.76.74-1.48,1.52-2.17,2.32-1-12.62-5.54-25-11.57-36-6.89-12.57-16.12-23.72-26-34-4.68-4.84-9.55-9.49-14.47-14.08a11.27,11.27,0,0,0,4.35-9.95c-.42-5.63-4.24-10.14-8-14a96,96,0,0,0-24.8-18.45c-18-9.29-40.09-12.82-59.26-4.78-11,4.63-20.84,14.5-20.29,27.25a1.88,1.88,0,0,0,.23.85c-5.5,4.57-10.87,9.21-15.9,14.31A183.71,183.71,0,0,0,265,459.78a196.84,196.84,0,0,0-22.29,35.28c-1.75,3.57-3.38,7.2-4.92,10.87-1.31,3.13-2.64,6.31-3.69,9.55a16,16,0,0,0-5.73-3.35c-2.16-.7-3.72,2.81-1.58,3.74a16.71,16.71,0,0,1,9,9.09,23.58,23.58,0,0,1,.95,14.38,41.58,41.58,0,0,1-2.66,7.91,45.08,45.08,0,0,1-4,7.54c-.38.53-1.24,1.76-2,1.77s-.94-1.49-1-2c-.43-2.84.33-5.73,1.09-8.44,1.58-5.7,3.47-12.12-.12-17.5a1.89,1.89,0,0,0-3.46,1.11l-.16.08c-4.73,3.53-7.8,8.48-10.17,13.81-2.6,5.84-4.78,11.85-7.51,17.63q-2.25,4.78-4.77,9.45c-1.23,2.27-2.55,5.33-5,6.51-1.78.86-4.16.43-4.25-1.86a12.25,12.25,0,0,1,.92-4.16q.84-2.56,1.81-5.09a100.34,100.34,0,0,1,4.32-9.65q3.1-5,6-10.24a2,2,0,0,0-3.49-2,108.29,108.29,0,0,0-6,10.26c-.75,1.22-1.51,2.44-2.29,3.64q-2.15,3.36-4.41,6.64a45.51,45.51,0,0,1-4.6,6.25c-1.2,1.21-2.84,2.24-3.4,0a14.19,14.19,0,0,1,.11-5.91c.81-4.23,2.72-8.11,4.61-11.94,2.25-4.54,4.58-9.15,5.57-14.16.41-2.09-2.61-3.72-3.67-1.55a181.18,181.18,0,0,1-16.95,28c-.91,1.23-3,3.92-4.8,3.22-1.36-.51-1.18-2.54-1-3.67A25.11,25.11,0,0,1,168,558.5c1.14-2.41,2.4-4.76,3.73-7.06,3.08-5.36,6.56-10.47,10-15.58a2,2,0,0,0-.72-2.75,2.07,2.07,0,0,0-2.75.72q-7.4,10-14.78,20.08c-1.22,1.66-2.43,3.32-3.65,5a33.51,33.51,0,0,1-3.21,4.1c-.86.85-2,1.64-3.3,1.26s-.91-2.08-.64-3.11a78,78,0,0,1,18.71-33.37,81.16,81.16,0,0,1,15.68-13.07,47.16,47.16,0,0,0,1.27,5.18c.8,2.55,4.31,1.45,3.92-1.08-.63-4.12-1.6-8.16-2.1-12.3s-.77-8.14-.85-12.22a125,125,0,0,1,1.95-24.81,128.85,128.85,0,0,1,17.83-46.06,131.27,131.27,0,0,1,17.43-21.88,1.72,1.72,0,0,0,.52-1.56,1.88,1.88,0,0,0,.81-1.46c.54-7.48,7-12.58,13-16.06,6.92-4,14.6-7,22.14-9.64A206,206,0,0,1,311,362a219.88,219.88,0,0,1,49.39.55,215.37,215.37,0,0,1,47.78,11.62,203.06,203.06,0,0,1,43.72,22.4l1,.67a1.65,1.65,0,0,0,.53,1.89,147.17,147.17,0,0,1,33.48,43.32,146.49,146.49,0,0,1,15.38,83.4,2.09,2.09,0,0,0,2.08,2.08,2.12,2.12,0,0,0,2.07-2.08c0-.14,0-.28,0-.41a195.33,195.33,0,0,1,33,34.63c2.46,3.38,4.86,6.83,7,10.41,2.07,3.4,4,7.18,3.88,11.26,0,1.28-.38,3-1.47,3.81s-2.39-.41-3.19-1.25c-3.23-3.39-6.33-6.92-9.49-10.37q-10.95-12-21.91-24c-1.49-1.64-4.51.59-3.12,2.41a180.25,180.25,0,0,1,10.53,15.44c3.08,5.07,6.64,10.47,7.89,16.34a13.64,13.64,0,0,1,.3,3.77,6.09,6.09,0,0,1-1.09,3.65c-.26.28-.32.39-.54.31-.47-.17-.93-.86-1.26-1.22q-1.53-1.65-3-3.35a173.26,173.26,0,0,1-11.14-14.07A180.25,180.25,0,0,1,502,556.11c-1.29-2.31-4.54-.28-3.49,2l7.83,17.31q2,4.32,3.92,8.65c1.05,2.33,2.66,5.39,1.8,8-.44,1.34-2.05,3.15-3.61,2.34a5.36,5.36,0,0,1-1.86-2.43c-.59-1.17-1.13-2.38-1.72-3.57a129,129,0,0,0-8.28-14.26,132,132,0,0,0-11.7-15c-1.35-1.5-4.14.06-3.45,2L488,579.72Z" transform="translate(-7.28 -7.06)"/><path class="cls-3" d="M553.25,575.18c1.32,3.7,1.92,8.48-.41,11.93a6,6,0,0,1-4.69,2.86,7.27,7.27,0,0,1-5.24-2.63c-3.59-3.71-7-7.64-10.44-11.45l-4-4.38c3,5.19,6,11,5.37,17.08-.29,2.82-1.39,6.59-4.59,7.29s-5.67-2.85-7.58-5c-3-3.37-5.84-6.87-8.58-10.45,2.4,4.94,5.13,10.89,1.45,15.53a6.67,6.67,0,0,1-6.85,2.59c-2.78-.77-4.14-3.43-5.28-5.82a126.3,126.3,0,0,0-13.12-21.67l4.41,12.48c.61,1.71,1.21,3.43,1.82,5.14a27.19,27.19,0,0,1,1.36,4.21c.38,2.21.36,5-1.45,6.66-2.53,2.26-5.44.36-7.4-1.59a76.61,76.61,0,0,1-6-6.74,80.25,80.25,0,0,1-15.52-32.53,2.05,2.05,0,0,1,.43-1.82,36.36,36.36,0,0,1,0-6.92c-5.11,2-7.05,8.79-7.43,13.8-.25,3.24.14,6.68-.5,9.87s-3.83,4.87-6.67,3.08c-2.49-1.57-3.65-4.71-4.6-7.35a36.59,36.59,0,0,1-1.81-8.06,37.43,37.43,0,0,1,5-23.2,2.09,2.09,0,0,1-.33-1,85.6,85.6,0,0,0-4.3-22.18c-9.07-26.76-29.75-47.13-49.89-66-1.84-1.73.86-4.46,2.73-2.88,4.11-1.73,3.7-7.59,2-10.82-2.41-4.66-6.72-8.48-10.6-11.93-13.7-12.17-31.46-20.76-49.95-21.55-9.13-.38-18.72,1-26.94,5.18-8.47,4.26-15.71,12.19-15.55,22.18a2.36,2.36,0,0,1-.07.55,1.48,1.48,0,0,1-.2,2.16c-6.17,5.41-12.24,11-17.87,16.93A196.4,196.4,0,0,0,245.37,499q-2.22,4.63-4.17,9.37c-1.32,3.2-2.43,6.48-3.75,9.67a2.25,2.25,0,0,1-.43.69,24.57,24.57,0,0,1,3.25,6.29c2,5.75,1.58,12-.11,17.77a55.68,55.68,0,0,1-3.83,9.37c-1.36,2.66-2.74,5.74-5.29,7.47a4.7,4.7,0,0,1-7.11-1.81c-1.38-3-1-6.56-.35-9.64.94-4.45,3.47-9.8,2.61-14.53-5.28,4.16-7.92,10.83-10.35,16.88a211.71,211.71,0,0,1-9.17,20.11c-2.65,5-6.69,13.11-13.84,10.6-4.11-1.44-4.52-5.1-3.73-8.91a10,10,0,0,1-4.92,3.84,5.08,5.08,0,0,1-6.15-3.33,15.32,15.32,0,0,1-.42-7.25,27.34,27.34,0,0,1,.6-3c-.65.94-1.3,1.89-2,2.82-1.65,2.29-3.3,4.8-5.79,6.27a5.89,5.89,0,0,1-7.16-.51,7.24,7.24,0,0,1-1.75-6.06,15.4,15.4,0,0,1,.47-2.36c-1.78,2.47-3.82,5-6.93,5.49a5.56,5.56,0,0,1-6.62-6.42c.43-3.57,1.9-7.21,3.23-10.54a85.51,85.51,0,0,1,4.69-9.86,81.91,81.91,0,0,1,30-30.66l.09,0c-.25-1.79-.45-3.59-.64-5.35a121.6,121.6,0,0,1-.74-14.15,132.07,132.07,0,0,1,10.15-50c6.6-15.82,16.14-30.53,28.68-42.28l.12-.1a1.29,1.29,0,0,1,0-.28,17.71,17.71,0,0,1,1.1-5.52c2.87-7.44,9.85-12.38,16.7-15.88a170.29,170.29,0,0,1,23.42-9.59,211.76,211.76,0,0,1,49.63-10.21,221.33,221.33,0,0,1,50.92,1.61,216.48,216.48,0,0,1,48.81,13,205.34,205.34,0,0,1,44.61,24.43,2.25,2.25,0,0,1,.79,3,2.69,2.69,0,0,1-.2.27,143.24,143.24,0,0,1,17.72,19.91A153.31,153.31,0,0,1,501.9,470a147.13,147.13,0,0,1,4.92,51.24,1.35,1.35,0,0,1,.43.22,165.4,165.4,0,0,1,22.58,20.56,183.62,183.62,0,0,1,16.81,21.3C549.16,567.09,551.72,570.91,553.25,575.18Zm-2.94,6.59c.11-4.08-1.81-7.86-3.88-11.26-2.18-3.58-4.58-7-7-10.41a195.33,195.33,0,0,0-33-34.63c0,.13,0,.27,0,.41a2.12,2.12,0,0,1-2.07,2.08,2.09,2.09,0,0,1-2.08-2.08,148.31,148.31,0,0,0-48.86-126.72,1.65,1.65,0,0,1-.53-1.89l-1-.67a203.06,203.06,0,0,0-43.72-22.4,215.37,215.37,0,0,0-47.78-11.62A219.88,219.88,0,0,0,311,362a206,206,0,0,0-47.91,10.77c-7.54,2.67-15.22,5.61-22.14,9.64-6,3.48-12.5,8.58-13,16.06a1.88,1.88,0,0,1-.81,1.46,1.72,1.72,0,0,1-.52,1.56,131.27,131.27,0,0,0-17.43,21.88,128.85,128.85,0,0,0-17.83,46.06,125,125,0,0,0-1.95,24.81q.12,6.12.85,12.22c.5,4.14,1.47,8.18,2.1,12.3.39,2.53-3.12,3.63-3.92,1.08a47.16,47.16,0,0,1-1.27-5.18,81.16,81.16,0,0,0-15.68,13.07,78,78,0,0,0-18.71,33.37c-.27,1-.7,2.7.64,3.11s2.44-.41,3.3-1.26a33.51,33.51,0,0,0,3.21-4.1c1.22-1.65,2.43-3.31,3.65-5q7.38-10,14.78-20.08a2.07,2.07,0,0,1,2.75-.72,2,2,0,0,1,.72,2.75c-3.48,5.11-7,10.22-10,15.58-1.33,2.3-2.59,4.65-3.73,7.06a25.11,25.11,0,0,0-2.46,6.47c-.19,1.13-.37,3.16,1,3.67,1.84.7,3.89-2,4.8-3.22a181.18,181.18,0,0,0,16.95-28c1.06-2.17,4.08-.54,3.67,1.55-1,5-3.32,9.62-5.57,14.16-1.89,3.83-3.8,7.71-4.61,11.94a14.19,14.19,0,0,0-.11,5.91c.56,2.23,2.2,1.2,3.4,0a45.51,45.51,0,0,0,4.6-6.25q2.27-3.28,4.41-6.64c.78-1.2,1.54-2.42,2.29-3.64a108.29,108.29,0,0,1,6-10.26,2,2,0,0,1,3.49,2q-2.87,5.19-6,10.24a100.34,100.34,0,0,0-4.32,9.65q-1,2.52-1.81,5.09a12.25,12.25,0,0,0-.92,4.16c.09,2.29,2.47,2.72,4.25,1.86,2.48-1.18,3.8-4.24,5-6.51q2.52-4.67,4.77-9.45c2.73-5.78,4.91-11.79,7.51-17.63,2.37-5.33,5.44-10.28,10.17-13.81l.16-.08a1.89,1.89,0,0,1,3.46-1.11c3.59,5.38,1.7,11.8.12,17.5-.76,2.71-1.52,5.6-1.09,8.44.09.55.25,2,1,2s1.61-1.24,2-1.77a45.08,45.08,0,0,0,4-7.54,41.58,41.58,0,0,0,2.66-7.91,23.58,23.58,0,0,0-.95-14.38,16.71,16.71,0,0,0-9-9.09c-2.14-.93-.58-4.44,1.58-3.74a16,16,0,0,1,5.73,3.35c1.05-3.24,2.38-6.42,3.69-9.55,1.54-3.67,3.17-7.3,4.92-10.87A196.84,196.84,0,0,1,265,459.78a183.71,183.71,0,0,1,13.71-15.54c5-5.1,10.4-9.74,15.9-14.31a1.88,1.88,0,0,1-.23-.85c-.55-12.75,9.25-22.62,20.29-27.25,19.17-8,41.24-4.51,59.26,4.78a96,96,0,0,1,24.8,18.45c3.76,3.88,7.58,8.39,8,14a11.27,11.27,0,0,1-4.35,9.95c4.92,4.59,9.79,9.24,14.47,14.08,9.93,10.27,19.16,21.42,26,34,6,11,10.59,23.41,11.57,36,.69-.8,1.41-1.58,2.17-2.32,1.72-1.65,4.3.92,2.62,2.61A33,33,0,0,0,451,547.87a34.05,34.05,0,0,0-.81,14.82,32,32,0,0,0,2.06,7.07,9,9,0,0,0,1.85,3.14c.73.66.74.59.9-.38a31,31,0,0,0,.15-4.2c0-1.6.08-3.21.21-4.8a28,28,0,0,1,2-9.08c2.11-4.83,6.37-8.81,11.78-9.22,2.06-.15,2.51,2.2,1.44,3.45a33.37,33.37,0,0,0,.09,8.76c.11.78.25,1.56.42,2.33.24,1,.51,2,.79,3a36.84,36.84,0,0,1,1.41,4.19c0,.11,0,.22,0,.32a68.41,68.41,0,0,0,3.1,7.42,74.48,74.48,0,0,0,13.77,19.62,12.8,12.8,0,0,0,2.33,2.18h.07l0-.05a3.1,3.1,0,0,0,.24-.85c.28-2.26-1-4.64-1.73-6.7L488,579.72l-6.51-18.46c-.69-2,2.1-3.51,3.45-2a132,132,0,0,1,11.7,15,129,129,0,0,1,8.28,14.26c.59,1.19,1.13,2.4,1.72,3.57a5.36,5.36,0,0,0,1.86,2.43c1.56.81,3.17-1,3.61-2.34.86-2.63-.75-5.69-1.8-8q-2-4.33-3.92-8.65l-7.83-17.31c-1-2.32,2.2-4.35,3.49-2a180.25,180.25,0,0,0,10.78,17.16,173.26,173.26,0,0,0,11.14,14.07q1.48,1.7,3,3.35c.33.36.79,1,1.26,1.22.22.08.28,0,.54-.31a6.09,6.09,0,0,0,1.09-3.65,13.64,13.64,0,0,0-.3-3.77c-1.25-5.87-4.81-11.27-7.89-16.34a180.25,180.25,0,0,0-10.53-15.44c-1.39-1.82,1.63-4,3.12-2.41q11,12,21.91,24c3.16,3.45,6.26,7,9.49,10.37.8.84,2,2.15,3.19,1.25S550.28,583.05,550.31,581.77Z" transform="translate(-7.28 -7.06)"/></g><g id="Layer_10" data-name="Layer 10"><path class="cls-3" d="M666.12,249.76c1.46,2,1.18,4.45.1,6.55A14.2,14.2,0,0,1,656,263.76c1,3-.46,6.31-2.44,8.61-4.56,5.29-12.43,6-18.94,6-15.11-.07-30.81-4.71-45.66-.61a192.27,192.27,0,0,1-39.13,65.54c-2.08,2.28-4.2,4.51-6.39,6.68a48.33,48.33,0,0,1-6.57,5.89c-5.72,3.89-12.14,1.34-18-.91a151.79,151.79,0,0,1-35-19.22c.29,2.21.57,4.42.78,6.64,1.34,14,.76,28.6-4.48,41.77-4.39,11-11.81,21.11-22.15,27.23a53.86,53.86,0,0,1-19.29,6.41c-7.48,1.17-15.06,1.78-22.6,2.48q-23.07,2.13-46.23,3.28c-15.49.76-31,1.26-46.52,1.26-15.15,0-30.36-.71-45.29-3.46-13.67-2.51-27.35-6.76-39.06-14.43a71.16,71.16,0,0,1-22.58-24.19c-9.17-16-12.57-35.42-8.6-53.41a90,90,0,0,1-16.33,10.29c-3.81,1.86-7.77,3.6-12,3.93s-8.66-1-12.73-2.5a185.52,185.52,0,0,1-39.09-19.54,189.89,189.89,0,0,1-33.53-28,184.67,184.67,0,0,1-24-31.48A2.05,2.05,0,0,1,68.36,263c-7.47.32-14.94.47-22.41.68-6,.18-12.15.67-18.09-.53-5-1-11.15-3.78-12-9.4a7.68,7.68,0,0,1,1.67-6.35c-1-.62-2-1.22-3-1.83a2,2,0,0,1-1.31,0A8.45,8.45,0,0,1,7.3,237.8a7.81,7.81,0,0,1,4.64-7.69,11,11,0,0,1,2.4-.73A8.21,8.21,0,0,1,12.75,221a7.92,7.92,0,0,1,7.31-5.48,10.71,10.71,0,0,1,1.39,0c-.91-4.88,5-7.89,9-8.63,5-.93,10.13-.3,15.14.57s10.13,1.85,15.2,2.78c8.84,1.62,18,3.32,25.46,8.64a46.38,46.38,0,0,1,4.17-7.4c3.65-5.1,9-9.06,15.61-8.24,6.89.85,12.33,6.06,16,11.62a2.2,2.2,0,0,1-1.3,3.2,40.65,40.65,0,0,0-19.07,11.38,114.12,114.12,0,0,1,18.69,7A122.76,122.76,0,0,1,166.46,275c.18.25.34.5.52.74a174.19,174.19,0,0,1,14.71-16.14,188.94,188.94,0,0,1,31-24.38,127.24,127.24,0,0,1,17.18-9.5c5.54-2.41,11.49-3.88,17.3-2.36,5.1-10.72,16.85-15.54,27.75-18.46a258.57,258.57,0,0,1,83-8.18c12.05.76,24.45,1.95,36,5.68,10.16,3.28,20,8.89,25.74,18.19a2.2,2.2,0,0,1,.15.31c9.29.54,18.23,3.44,26.75,7.14a226.59,226.59,0,0,1,22.93,11.68,168,168,0,0,1,20,13.39c10.9,8.55,20.51,19.15,26.22,31.83,0-.08.06-.16.08-.23a57,57,0,0,1,18.92-25.79c5.07-3.9,10.64-7.16,16-10.58l8.34-5.3c1.74-1.1,3.49-2.37,5.29-3.49a1.89,1.89,0,0,1,1.92-2.11,1.92,1.92,0,0,1,1.11.33,24.4,24.4,0,0,0-17.13-15.57,2.2,2.2,0,0,1-1.63-2.14,12.27,12.27,0,0,1,7.86-9.83c7.56-3.08,17,.38,23.44,4.63A38.07,38.07,0,0,1,593.29,230a96.1,96.1,0,0,1,14.32-4.24c9.77-2.1,19.76-3,29.71-3.79,4.76-.38,9.81-1,14.25,1.17a10,10,0,0,1,5.75,9.55c3.26.65,6.4,2.42,6.87,6.06.42,3.25-1.82,5.47-3.07,8.13A8.39,8.39,0,0,1,666.12,249.76Zm-3.49,3.3c.1-2.24-5.4-2.2-6.77-2.31a118.64,118.64,0,0,0-13.2-.25,114.24,114.24,0,0,0-12.8,1.19c-2.23.32-4.44.72-6.64,1.15a15.5,15.5,0,0,0-2.87.65c-.21.09-.58.42-.78.43h0v0c.83,2-2.58,3.38-3.44,1.45-1.21-2.71.78-4.89,3.26-5.84a48.45,48.45,0,0,1,8.61-2,113.27,113.27,0,0,1,16.84-1.66c2.72-.07,5.44,0,8.16.1,1.21.07,2.43.12,3.65.21a17.42,17.42,0,0,1,1.8-3.65c.64-1.07,1.73-2.6,1.11-3.87-1-2.1-5.18-1.9-7.22-1.84-4.58.14-9.14.51-13.69,1.07a156.55,156.55,0,0,0-26.22,5.7c-2.46.75-3.44-3-1.06-3.82a129.72,129.72,0,0,1,16.42-4.57A148.88,148.88,0,0,1,642.63,233c2.44-.24,4.88-.43,7.32-.55.93,0,1.85-.09,2.78-.11a4.85,4.85,0,0,0-2-4.26,9.53,9.53,0,0,0-5.66-1.84c-4.38-.21-8.88.44-13.24.82s-8.74.8-13.08,1.41a107.78,107.78,0,0,0-26,6.65c-1.26.52-2.41-.57-2.84-1.61a31.49,31.49,0,0,0-5.52-8.85,33.18,33.18,0,0,0-15.45-10c-3.45-1-7.31-1.55-10.75-.21a8.11,8.11,0,0,0-4.43,4.06,28.06,28.06,0,0,1,18.24,20A2,2,0,0,1,570.2,241c-2.66,2.33-6,4-9,5.93L552,252.79c-5.14,3.26-10.48,6.35-15.28,10.13A51.64,51.64,0,0,0,526.2,274.1a54,54,0,0,0-9.58,28.52c-.11,2.57-4,2.59-4,0a53.59,53.59,0,0,1,1.33-11.22,3.11,3.11,0,0,1-.2-.41,70.18,70.18,0,0,0-12.81-21.42c-10-11.58-22.91-20.31-36.2-27.72a209.12,209.12,0,0,0-22.66-11.21c-8.31-3.4-17.09-5.86-26.12-5.83-2.18,0-2.51-2.8-1-3.72-6.43-8.6-16.44-13.23-26.69-15.87-11.52-3-23.62-3.93-35.47-4.44a258.22,258.22,0,0,0-40.48,1.42,231.34,231.34,0,0,0-38.58,7.51c-9,2.63-18.77,6.78-22.88,15.78a2.19,2.19,0,0,1,0,1.19c-.22.71-.47,1.41-.73,2.11a2,2,0,0,1-3.83-1.06,1.57,1.57,0,0,1,0-.23c-6.21-1.84-13.13,1.22-18.55,4-22.32,11.66-41.82,28-58,47.2a1.58,1.58,0,0,1-.43.35q1.38,2.07,2.67,4.21a60,60,0,0,1,4.75,9c.86,2.2-2.54,3.41-3.68,1.55-1.93-3.16-3.53-6.52-5.49-9.68s-4-6.1-6.21-9a118.44,118.44,0,0,0-28.25-26.55,120.31,120.31,0,0,0-35.23-16.1,1.79,1.79,0,0,1-1.24-1.05l.51-.51.8-.35a2.17,2.17,0,0,1-.24-3.05,42.73,42.73,0,0,1,18.85-12.76C112.8,210,107.15,205.93,101,208s-9.43,9.34-11.89,14.82a2.18,2.18,0,0,1-3,.77,1.93,1.93,0,0,1-.7-.69,1.53,1.53,0,0,1-.79-.27A39,39,0,0,0,72.23,217c-4-1.12-8-1.86-12.12-2.59l-13.85-2.52c-4.36-.78-8.79-1.53-13.23-1.08-2.73.27-7.62,1.23-7.4,4.82a1.9,1.9,0,0,1-.09.73l1.28.34c2.32.61,4.65,1.21,7,1.83,9.22,2.42,18.45,4.82,27.62,7.43a1.87,1.87,0,0,1-1,3.6c-10.25-2.42-20.44-5.1-30.63-7.74-2.44-.63-4.87-1.36-7.34-1.87-1.61-.34-3.54-.51-4.76.78a4.6,4.6,0,0,0,.12,6.38,1.89,1.89,0,0,1,.43,2c1.81.08,3.63.36,5.38.6a142.67,142.67,0,0,1,26.64,6.42c2.41.84,1.4,4.66-1.06,3.86a149.06,149.06,0,0,0-28.67-6.46c-2.7-.32-7.59-.87-8.77,2.38-.74,2,.24,4.84,2.38,5.58a2,2,0,0,1,1.24.22c1.88,1.05,3.78,2.05,5.68,3.06a1.77,1.77,0,0,1,.58.5,18.29,18.29,0,0,1,3.69-.21,86.41,86.41,0,0,1,19.14,2.61c2.4.61,1.38,4.21-1,3.69a93.27,93.27,0,0,0-18.61-2.17c-1.6,0-3.93-.1-4.71,1.65a4.43,4.43,0,0,0,1.2,4.78c3.29,3.35,8.89,3.9,13.32,4,5.5.15,11-.23,16.52-.41,5.72-.19,11.45-.41,17.18-.52a1.91,1.91,0,0,1,2,1.35,20.2,20.2,0,0,0,2-1.92l.06-.09c.57,1,1.14,1.93,1.72,2.87a185.6,185.6,0,0,0,77.68,69.4,125.67,125.67,0,0,0,20,8,19.5,19.5,0,0,0,12-.18,60.2,60.2,0,0,0,9.88-4.66A89.13,89.13,0,0,0,210,321.69l.21-.56a42.1,42.1,0,0,0,4.53-3.79,4.76,4.76,0,0,0,.85-1.22,88.37,88.37,0,0,0,17.79-28.39,2.24,2.24,0,0,1,2.69-1.52,2.2,2.2,0,0,1,1.53,2.69q-1,2.58-2.11,5.12A93.36,93.36,0,0,1,213,325c-.2.72-.4,1.46-.58,2.19a73.39,73.39,0,0,0,12,60,68,68,0,0,0,26.07,21.23c12.46,5.93,26.32,8.88,40,10.44,14.55,1.68,29.23,1.75,43.86,1.5q22.63-.37,45.24-1.7T424.61,415c6.91-.69,13.9-1.28,20.63-3.09a41.5,41.5,0,0,0,15.94-8.17c8.8-7.37,14.6-17.79,17.42-28.84,3.52-13.8,2.73-28.32.62-42.28a3.14,3.14,0,0,1,0-.53,147.11,147.11,0,0,1-18.81-17.87c-1.67-1.89,1.08-4.66,2.77-2.78a148.83,148.83,0,0,0,29.22,25.13A145.92,145.92,0,0,0,523,351.89c2.66.95,5.67,2.18,8.54,1.64s4.85-2.73,6.78-4.59q6.33-6.13,12.07-12.84a188.72,188.72,0,0,0,33.9-58,2.38,2.38,0,0,1,.92-3.85c7.91-2.75,16.37-2.89,24.65-2.26,7.51.57,15,1.71,22.51,1.94,5.53.17,12.73.34,17.14-3.66,1.42-1.29,3.8-4.54,1.51-6.13a7,7,0,0,0-3.83-.82c-1.86,0-3.73,0-5.58.09A155.15,155.15,0,0,0,617.81,266c-2.43.47-3.47-3.21-1-3.72a146.3,146.3,0,0,1,29.42-3.38c2.53,0,5.32.24,7.38,1.69a2.06,2.06,0,0,1,1-.79,14.64,14.64,0,0,0,5-2.4C660.74,256.41,662.56,254.64,662.63,253.06Z" transform="translate(-7.28 -7.06)"/><path class="cls-2" d="M655.86,250.75c1.37.11,6.87.07,6.77,2.31-.07,1.58-1.89,3.35-3,4.29a14.64,14.64,0,0,1-5,2.4,2.06,2.06,0,0,0-1,.79c-2.06-1.45-4.85-1.71-7.38-1.69a146.3,146.3,0,0,0-29.42,3.38c-2.44.51-1.4,4.19,1,3.72a155.15,155.15,0,0,1,23.75-2.58c1.85-.07,3.72-.14,5.58-.09a7,7,0,0,1,3.83.82c2.29,1.59-.09,4.84-1.51,6.13-4.41,4-11.61,3.83-17.14,3.66-7.54-.23-15-1.37-22.51-1.94-8.28-.63-16.74-.49-24.65,2.26a2.38,2.38,0,0,0-.92,3.85,188.72,188.72,0,0,1-33.9,58q-5.73,6.69-12.07,12.84c-1.93,1.86-4,4.07-6.78,4.59s-5.88-.69-8.54-1.64a145.92,145.92,0,0,1-30.58-15.28,148.83,148.83,0,0,1-29.22-25.13c-1.69-1.88-4.44.89-2.77,2.78a147.11,147.11,0,0,0,18.81,17.87,3.14,3.14,0,0,0,0,.53c2.11,14,2.9,28.48-.62,42.28-2.82,11.05-8.62,21.47-17.42,28.84A41.5,41.5,0,0,1,445.24,412c-6.73,1.81-13.72,2.4-20.63,3.09q-22.53,2.26-45.14,3.59t-45.24,1.7c-14.63.25-29.31.18-43.86-1.5-13.64-1.56-27.5-4.51-40-10.44a68,68,0,0,1-26.07-21.23,73.39,73.39,0,0,1-12-60c.18-.73.38-1.47.58-2.19a93.36,93.36,0,0,0,22.52-31q1.13-2.53,2.11-5.12a2.2,2.2,0,0,0-1.53-2.69,2.24,2.24,0,0,0-2.69,1.52,88.37,88.37,0,0,1-17.79,28.39,4.76,4.76,0,0,1-.85,1.22,42.1,42.1,0,0,1-4.53,3.79l-.21.56a89.13,89.13,0,0,1-16.32,11.76,60.2,60.2,0,0,1-9.88,4.66,19.5,19.5,0,0,1-12,.18,125.67,125.67,0,0,1-20-8,183.81,183.81,0,0,1-18.62-10.22,185.73,185.73,0,0,1-59.06-59.18C73.54,260,73,259,72.4,258.05l-.06.09a20.2,20.2,0,0,1-2,1.92,1.91,1.91,0,0,0-2-1.35c-5.73.11-11.46.33-17.18.52-5.49.18-11,.56-16.52.41-4.43-.11-10-.66-13.32-4a4.43,4.43,0,0,1-1.2-4.78c.78-1.75,3.11-1.66,4.71-1.65a93.27,93.27,0,0,1,18.61,2.17c2.39.52,3.41-3.08,1-3.69a86.41,86.41,0,0,0-19.14-2.61,18.29,18.29,0,0,0-3.69.21,1.77,1.77,0,0,0-.58-.5c-1.9-1-3.8-2-5.68-3.06a2,2,0,0,0-1.24-.22c-2.14-.74-3.12-3.56-2.38-5.58,1.18-3.25,6.07-2.7,8.77-2.38A149.06,149.06,0,0,1,49.2,240c2.46.8,3.47-3,1.06-3.86a142.67,142.67,0,0,0-26.64-6.42c-1.75-.24-3.57-.52-5.38-.6a1.89,1.89,0,0,0-.43-2,4.6,4.6,0,0,1-.12-6.38c1.22-1.29,3.15-1.12,4.76-.78,2.47.51,4.9,1.24,7.34,1.87,10.19,2.64,20.38,5.32,30.63,7.74a1.87,1.87,0,0,0,1-3.6c-9.17-2.61-18.4-5-27.62-7.43-2.32-.62-4.65-1.22-7-1.83l-1.28-.34a1.9,1.9,0,0,0,.09-.73c-.22-3.59,4.67-4.55,7.4-4.82,4.44-.45,8.87.3,13.23,1.08l13.85,2.52c4.07.73,8.14,1.47,12.12,2.59a39,39,0,0,1,12.45,5.64,1.53,1.53,0,0,0,.79.27,1.93,1.93,0,0,0,.7.69,2.18,2.18,0,0,0,3-.77C91.58,217.32,94.81,210,101,208s11.79,2.06,15.56,6.77a42.73,42.73,0,0,0-18.85,12.76,2.17,2.17,0,0,0,.24,3.05l-.8.35-.51.51a1.79,1.79,0,0,0,1.24,1.05,120.31,120.31,0,0,1,35.23,16.1,118.44,118.44,0,0,1,28.25,26.55q3.31,4.36,6.21,9c2,3.16,3.56,6.52,5.49,9.68,1.14,1.86,4.54.65,3.68-1.55a60,60,0,0,0-4.75-9q-1.29-2.15-2.67-4.21a1.58,1.58,0,0,0,.43-.35c16.18-19.22,35.68-35.54,58-47.2,5.42-2.82,12.34-5.88,18.55-4a1.57,1.57,0,0,0,0,.23,2,2,0,0,0,3.83,1.06c.26-.7.51-1.4.73-2.11a2.19,2.19,0,0,0,0-1.19c4.11-9,13.9-13.15,22.88-15.78a231.34,231.34,0,0,1,38.58-7.51,258.22,258.22,0,0,1,40.48-1.42c11.85.51,23.95,1.47,35.47,4.44,10.25,2.64,20.26,7.27,26.69,15.87-1.48.92-1.15,3.73,1,3.72,9,0,17.81,2.43,26.12,5.83a209.12,209.12,0,0,1,22.66,11.21c13.29,7.41,26.17,16.14,36.2,27.72A70.18,70.18,0,0,1,513.73,291a3.11,3.11,0,0,0,.2.41,53.59,53.59,0,0,0-1.33,11.22c0,2.59,3.91,2.57,4,0a54,54,0,0,1,9.58-28.52,51.64,51.64,0,0,1,10.56-11.18c4.8-3.78,10.14-6.87,15.28-10.13l9.18-5.82c3-1.89,6.32-3.6,9-5.93a2,2,0,0,0,1.77-2.47,28.06,28.06,0,0,0-18.24-20,8.11,8.11,0,0,1,4.43-4.06c3.44-1.34,7.3-.8,10.75.21a33.18,33.18,0,0,1,15.45,10,31.49,31.49,0,0,1,5.52,8.85c.43,1,1.58,2.13,2.84,1.61a107.78,107.78,0,0,1,26-6.65c4.34-.61,8.71-1,13.08-1.41s8.86-1,13.24-.82a9.53,9.53,0,0,1,5.66,1.84,4.85,4.85,0,0,1,2,4.26c-.93,0-1.85.07-2.78.11-2.44.12-4.88.31-7.32.55a148.88,148.88,0,0,0-14.86,2.28,129.72,129.72,0,0,0-16.42,4.57c-2.38.83-1.4,4.57,1.06,3.82a156.55,156.55,0,0,1,26.22-5.7c4.55-.56,9.11-.93,13.69-1.07,2-.06,6.19-.26,7.22,1.84.62,1.27-.47,2.8-1.11,3.87a17.42,17.42,0,0,0-1.8,3.65c-1.22-.09-2.44-.14-3.65-.21-2.72-.13-5.44-.17-8.16-.1A113.27,113.27,0,0,0,628,247.59a48.45,48.45,0,0,0-8.61,2c-2.48,1-4.47,3.13-3.26,5.84.86,1.93,4.27.52,3.44-1.45v0h0c.2,0,.57-.34.78-.43a15.5,15.5,0,0,1,2.87-.65c2.2-.43,4.41-.83,6.64-1.15a114.24,114.24,0,0,1,12.8-1.19A118.64,118.64,0,0,1,655.86,250.75Z" transform="translate(-7.28 -7.06)"/></g><g id="Layer_12" data-name="Layer 12"><path class="cls-4" d="M113.26,209.56a2.14,2.14,0,0,0-1.07-.26l-.6-.46a10.11,10.11,0,0,0-2.35-1.28,9.76,9.76,0,0,0-4.87-.67,2.17,2.17,0,0,0-1.25.48c-.36,0-.72.1-1.08.18-.05-.09-.08-.18-.14-.27-1.48-2.22-4.33-2.07-6.23-.53s-2.67,3.72-3.75,5.74a21.84,21.84,0,0,1-3.82,5.45,9.35,9.35,0,0,1-5.57,2.47l-4.79-2.58a2.17,2.17,0,0,0-2,0,23.33,23.33,0,0,0-8.54-3.5,24,24,0,0,0-4.93-.42,21.53,21.53,0,0,0-2.66.23,6.32,6.32,0,0,0-2.45.68L55,214.29c-6-1.6-12.79-4.14-19-2.19a13,13,0,0,0-6.2,4,13.14,13.14,0,0,0-.92,1.33,1.57,1.57,0,0,0-1.09,0,13.7,13.7,0,0,0-8.14,8.55A14.58,14.58,0,0,0,19,229.1a11.49,11.49,0,0,0-1.68,6.3,8.51,8.51,0,0,0,3.89,7.14c1.23.71,2.95.85,3.88,2a3.2,3.2,0,0,1,.73,2.14,1.79,1.79,0,0,0-.38,3.48c.81.33,1.64.62,2.48.88a1.86,1.86,0,0,0,1,.4l.67.07a39.68,39.68,0,0,0,9.36,1.13l1.55,0c3,.3,6,.61,9,1,3.22.42,6.42.94,9.62,1.44s6.73.94,10.06.16c5.52-1.29,10.09-5.72,13.78-9.8A16.39,16.39,0,0,0,87.19,238a12.78,12.78,0,0,0-.57-7,9.42,9.42,0,0,0,1-.7,47.87,47.87,0,0,0,5.29-4.88,56.69,56.69,0,0,0,6.46-8.29,37.76,37.76,0,0,1,8.68-1.94l.22,0a8.51,8.51,0,0,0,3.63-1,5.34,5.34,0,0,0,2-1.74A2.11,2.11,0,0,0,113.26,209.56ZM42.49,236.68c.1.19.22.38.34.58q.44.69.9,1.38a24.62,24.62,0,0,0-3.19-1.81A12.81,12.81,0,0,0,42.49,236.68Zm-2.82,11.74c-2.05-.16-4.11-.29-6.17-.36-1.16-.15-2.32-.33-3.47-.55a8.6,8.6,0,0,0,0-1.34,13.61,13.61,0,0,0,8.49,1.92,2.29,2.29,0,0,0,1.44-.74c.69.15,1.37.31,2.07.44a2.43,2.43,0,0,0,1,0l.94.35A39.93,39.93,0,0,1,39.67,248.42Zm7.72-21.58c.75.09,1.49.17,2.24.22h.1a2,2,0,0,0,1.5,1.8l.24,0-.54.48a6.55,6.55,0,0,0-.49-.58,4.91,4.91,0,0,0-3.23-1.5A1.83,1.83,0,0,0,47.39,226.84Zm.74,8.36.12-.25a2.11,2.11,0,0,0,2.34.13l.54-.41c.63.4,1.27.79,1.91,1.18A45.52,45.52,0,0,1,48.13,235.2ZM88.44,224l-.45.43a1.9,1.9,0,0,0-.36-1.09,13.92,13.92,0,0,0,3.49-2.52l.13.12C90.34,222,89.41,223.06,88.44,224Z" transform="translate(-7.28 -7.06)"/><path class="cls-4" d="M655.23,252.12a6,6,0,0,0-1.75-1.49,34.72,34.72,0,0,0-.39-6.11,6.83,6.83,0,0,0,1.1-1.36,5.43,5.43,0,0,0-1.56-7.27,3.91,3.91,0,0,0-2.39-.76,31.39,31.39,0,0,0-1.58-2.91,4.44,4.44,0,0,0,1.18-1.54,4.27,4.27,0,0,0-.12-4.19,6.07,6.07,0,0,0-3.19-2.62,7.8,7.8,0,0,0-2.09-.39,5.15,5.15,0,0,0-2.14.25,2.09,2.09,0,0,0-.88.64c-1.41-.37-2.87,1-2.31,2.31a19.08,19.08,0,0,0-5.84-.18c-2.87.27-5.72.7-8.57,1.1q-8.6,1.2-17.13,2.73-4.34.78-8.64,1.63l-4.07.83a11.49,11.49,0,0,1-3.89.52c-1.18-.19-2-1.26-2.69-2.13-.86-1.06-1.69-2.13-2.52-3.2a30.47,30.47,0,0,0-16.89-15.12,2,2,0,0,0-2.39,1.33c-1.48-.83-3-1.61-4.53-2.3a2.12,2.12,0,0,0-2.8.73,2.07,2.07,0,0,0,.73,2.8,62.59,62.59,0,0,1,10.31,6.11c2.85,2.08,6,4.5,7.73,7.64s1,7.07.5,10.54c-.52,3.76-.76,7.49.65,11.1,2.71,6.94,8.94,11.39,15.76,13.84a72.14,72.14,0,0,0,11.35,2.82c4.29.79,8.61,1.5,13,1.92a68,68,0,0,0,28.45-3.15,2.12,2.12,0,0,0,1.33-1.23,1.87,1.87,0,0,0,1-.73,14.59,14.59,0,0,0,.77-1.34,6.22,6.22,0,0,0,1.26-.24,7.12,7.12,0,0,0,3.35-2.19,6.33,6.33,0,0,0,1.55-4.17A7,7,0,0,0,655.23,252.12ZM582.92,249a12.47,12.47,0,0,1-.4-1.54,22.05,22.05,0,0,0,1.11,2.89,20.11,20.11,0,0,0,3,4.46A15.24,15.24,0,0,1,582.92,249Zm35.39-10.65c-.35.39-.74.75-1.12,1.12a1.91,1.91,0,0,0-1.68.38,2.3,2.3,0,0,0-.83,1.72l-.26.19-.43-.44a1.92,1.92,0,0,0-3,.16,2.07,2.07,0,0,0-.92-.12c.31-.17.6-.35.91-.51a40,40,0,0,1,7.81-3.07Zm1.86,18L620,256a1.37,1.37,0,0,0,.25-.23l.16-.06.57.53C620.7,256.28,620.44,256.28,620.17,256.29Zm7.27-17.78-.35-.39a1.78,1.78,0,0,0-2.3-.43l-.82-.9a1.84,1.84,0,0,0-1.65-.62,1.64,1.64,0,0,0-.21-.25,10,10,0,0,1,6.08,2.48A1.9,1.9,0,0,0,627.44,238.51Zm5.36,7c-.56-1.33-1.16-2.64-1.79-3.94a22.24,22.24,0,0,1,2.11,4Zm.43-8.31a1.87,1.87,0,0,0-.78-.22,17.05,17.05,0,0,0-2.43-2.29,11.76,11.76,0,0,1,2.09.57,8.33,8.33,0,0,1,3.47,2.53c.15.78.29,1.56.43,2.33A9.29,9.29,0,0,0,633.23,237.15Zm9.12,17.79c0-.28.1-.57.13-.86a3.2,3.2,0,0,0,0-.44,2.71,2.71,0,0,0,.54.87l.13.12s0,0,0,.06A5.56,5.56,0,0,0,642.35,254.94Zm4.18-26.18-.08.26,0,0c-.48-.59-1-1.17-1.5-1.73l.25.08a6.65,6.65,0,0,1,.74.41l.37.37c.07.12.14.23.2.35l0,.12Z" transform="translate(-7.28 -7.06)"/></g><g id="Layer_11" data-name="Layer 11"><path class="cls-3" d="M70.15,262A2.05,2.05,0,0,1,68.36,263c-7.47.32-14.94.47-22.41.68-6,.18-12.15.67-18.09-.53-5-1-11.15-3.78-12-9.4a7.68,7.68,0,0,1,1.67-6.35c-1-.62-2-1.22-3-1.83a2,2,0,0,1-1.31,0A8.45,8.45,0,0,1,7.3,237.8a7.81,7.81,0,0,1,4.64-7.69,11,11,0,0,1,2.4-.73A8.21,8.21,0,0,1,12.75,221a7.92,7.92,0,0,1,7.31-5.48,10.71,10.71,0,0,1,1.39,0c-.91-4.88,5-7.89,9-8.63,5-.93,10.13-.3,15.14.57s10.13,1.85,15.2,2.78c8.84,1.62,18,3.32,25.46,8.64a46.38,46.38,0,0,1,4.17-7.4c3.65-5.1,9-9.06,15.61-8.24,6.89.85,12.33,6.06,16,11.62a2.2,2.2,0,0,1-1.3,3.2,40.65,40.65,0,0,0-19.07,11.38,114.12,114.12,0,0,1,18.69,7A122.76,122.76,0,0,1,166.46,275c.18.25.34.5.52.74a174.19,174.19,0,0,1,14.71-16.14,188.94,188.94,0,0,1,31-24.38,127.24,127.24,0,0,1,17.18-9.5c5.54-2.41,11.49-3.88,17.3-2.36,5.1-10.72,16.85-15.54,27.75-18.46a258.57,258.57,0,0,1,83-8.18c12.05.76,24.45,1.95,36,5.68,10.16,3.28,20,8.89,25.74,18.19a2.2,2.2,0,0,1,.15.31c9.29.54,18.23,3.44,26.75,7.14a226.59,226.59,0,0,1,22.93,11.68,168,168,0,0,1,20,13.39c10.9,8.55,20.51,19.15,26.22,31.83,0-.08.06-.16.08-.23a57,57,0,0,1,18.92-25.79c5.07-3.9,10.64-7.16,16-10.58l8.34-5.3c1.74-1.1,3.49-2.37,5.29-3.49a1.89,1.89,0,0,1,1.92-2.11,1.92,1.92,0,0,1,1.11.33,24.4,24.4,0,0,0-17.13-15.57,2.2,2.2,0,0,1-1.63-2.14,12.27,12.27,0,0,1,7.86-9.83c7.56-3.08,17,.38,23.44,4.63A38.07,38.07,0,0,1,593.29,230a96.1,96.1,0,0,1,14.32-4.24c9.77-2.1,19.76-3,29.71-3.79,4.76-.38,9.81-1,14.25,1.17a10,10,0,0,1,5.75,9.55c3.26.65,6.4,2.42,6.87,6.06.42,3.25-1.82,5.47-3.07,8.13a8.39,8.39,0,0,1,5,2.92c1.46,2,1.18,4.45.1,6.55A14.2,14.2,0,0,1,656,263.76c1,3-.46,6.31-2.44,8.61-4.56,5.29-12.43,6-18.94,6-15.11-.07-30.81-4.71-45.66-.61a192.27,192.27,0,0,1-39.13,65.54c-2.08,2.28-4.2,4.51-6.39,6.68a48.33,48.33,0,0,1-6.57,5.89c-5.72,3.89-12.14,1.34-18-.91a151.79,151.79,0,0,1-35-19.22c.29,2.21.57,4.42.78,6.64,1.34,14,.76,28.6-4.48,41.77-4.39,11-11.81,21.11-22.15,27.23a53.86,53.86,0,0,1-19.29,6.41c-7.48,1.17-15.06,1.78-22.6,2.48q-23.07,2.13-46.23,3.28c-15.49.76-31,1.26-46.52,1.26-15.15,0-30.36-.71-45.29-3.46-13.67-2.51-27.35-6.76-39.06-14.43a71.16,71.16,0,0,1-22.58-24.19c-9.17-16-12.57-35.42-8.6-53.41a90,90,0,0,1-16.33,10.29c-3.81,1.86-7.77,3.6-12,3.93s-8.66-1-12.73-2.5a185.52,185.52,0,0,1-39.09-19.54,189.89,189.89,0,0,1-33.53-28A184.67,184.67,0,0,1,70.15,262Zm-1.79-3.24a1.91,1.91,0,0,1,2,1.35,20.2,20.2,0,0,0,2-1.92l.06-.09c.57,1,1.14,1.93,1.72,2.87a185.6,185.6,0,0,0,77.68,69.4,125.67,125.67,0,0,0,20,8,19.5,19.5,0,0,0,12-.18,60.2,60.2,0,0,0,9.88-4.66A89.13,89.13,0,0,0,210,321.69l.21-.56a42.1,42.1,0,0,0,4.53-3.79,4.76,4.76,0,0,0,.85-1.22,88.37,88.37,0,0,0,17.79-28.39,2.24,2.24,0,0,1,2.69-1.52,2.2,2.2,0,0,1,1.53,2.69q-1,2.58-2.11,5.12A93.36,93.36,0,0,1,213,325c-.2.72-.4,1.46-.58,2.19a73.39,73.39,0,0,0,12,60,68,68,0,0,0,26.07,21.23c12.46,5.93,26.32,8.88,40,10.44,14.55,1.68,29.23,1.75,43.86,1.5q22.63-.37,45.24-1.7T424.61,415c6.91-.69,13.9-1.28,20.63-3.09a41.5,41.5,0,0,0,15.94-8.17c8.8-7.37,14.6-17.79,17.42-28.84,3.52-13.8,2.73-28.32.62-42.28a3.14,3.14,0,0,1,0-.53,147.11,147.11,0,0,1-18.81-17.87c-1.67-1.89,1.08-4.66,2.77-2.78a148.83,148.83,0,0,0,29.22,25.13A145.92,145.92,0,0,0,523,351.89c2.66.95,5.67,2.18,8.54,1.64s4.85-2.73,6.78-4.59q6.33-6.13,12.07-12.84a188.72,188.72,0,0,0,33.9-58,2.38,2.38,0,0,1,.92-3.85c7.91-2.75,16.37-2.89,24.65-2.26,7.51.57,15,1.71,22.51,1.94,5.53.17,12.73.34,17.14-3.66,1.42-1.29,3.8-4.54,1.51-6.13a7,7,0,0,0-3.83-.82c-1.86,0-3.73,0-5.58.09A155.15,155.15,0,0,0,617.81,266c-2.43.47-3.47-3.21-1-3.72a146.3,146.3,0,0,1,29.42-3.38c2.53,0,5.32.24,7.38,1.69a2.06,2.06,0,0,1,1-.79,14.64,14.64,0,0,0,5-2.4c1.13-.94,2.95-2.71,3-4.29.1-2.24-5.4-2.2-6.77-2.31a118.64,118.64,0,0,0-13.2-.25,114.24,114.24,0,0,0-12.8,1.19c-2.23.32-4.44.72-6.64,1.15a15.5,15.5,0,0,0-2.87.65c-.21.09-.58.42-.78.43h0v0c.83,2-2.58,3.38-3.44,1.45-1.21-2.71.78-4.89,3.26-5.84a48.45,48.45,0,0,1,8.61-2,113.27,113.27,0,0,1,16.84-1.66c2.72-.07,5.44,0,8.16.1,1.21.07,2.43.12,3.65.21a17.42,17.42,0,0,1,1.8-3.65c.64-1.07,1.73-2.6,1.11-3.87-1-2.1-5.18-1.9-7.22-1.84-4.58.14-9.14.51-13.69,1.07a156.55,156.55,0,0,0-26.22,5.7c-2.46.75-3.44-3-1.06-3.82a129.72,129.72,0,0,1,16.42-4.57A148.88,148.88,0,0,1,642.63,233c2.44-.24,4.88-.43,7.32-.55.93,0,1.85-.09,2.78-.11a4.85,4.85,0,0,0-2-4.26,9.53,9.53,0,0,0-5.66-1.84c-4.38-.21-8.88.44-13.24.82s-8.74.8-13.08,1.41a107.78,107.78,0,0,0-26,6.65c-1.26.52-2.41-.57-2.84-1.61a31.49,31.49,0,0,0-5.52-8.85,33.18,33.18,0,0,0-15.45-10c-3.45-1-7.31-1.55-10.75-.21a8.11,8.11,0,0,0-4.43,4.06,28.06,28.06,0,0,1,18.24,20A2,2,0,0,1,570.2,241c-2.66,2.33-6,4-9,5.93L552,252.79c-5.14,3.26-10.48,6.35-15.28,10.13A51.64,51.64,0,0,0,526.2,274.1a54,54,0,0,0-9.58,28.52c-.11,2.57-4,2.59-4,0a53.59,53.59,0,0,1,1.33-11.22,3.11,3.11,0,0,1-.2-.41,70.18,70.18,0,0,0-12.81-21.42c-10-11.58-22.91-20.31-36.2-27.72a209.12,209.12,0,0,0-22.66-11.21c-8.31-3.4-17.09-5.86-26.12-5.83-2.18,0-2.51-2.8-1-3.72-6.43-8.6-16.44-13.23-26.69-15.87-11.52-3-23.62-3.93-35.47-4.44a258.22,258.22,0,0,0-40.48,1.42,231.34,231.34,0,0,0-38.58,7.51c-9,2.63-18.77,6.78-22.88,15.78a2.19,2.19,0,0,1,0,1.19c-.22.71-.47,1.41-.73,2.11a2,2,0,0,1-3.83-1.06,1.57,1.57,0,0,1,0-.23c-6.21-1.84-13.13,1.22-18.55,4-22.32,11.66-41.82,28-58,47.2a1.58,1.58,0,0,1-.43.35q1.38,2.07,2.67,4.21a60,60,0,0,1,4.75,9c.86,2.2-2.54,3.41-3.68,1.55-1.93-3.16-3.53-6.52-5.49-9.68s-4-6.1-6.21-9a118.44,118.44,0,0,0-28.25-26.55,120.31,120.31,0,0,0-35.23-16.1,1.79,1.79,0,0,1-1.24-1.05l.51-.51.8-.35a2.17,2.17,0,0,1-.24-3.05,42.73,42.73,0,0,1,18.85-12.76C112.8,210,107.15,205.93,101,208s-9.43,9.34-11.89,14.82a2.18,2.18,0,0,1-3,.77,1.93,1.93,0,0,1-.7-.69,1.53,1.53,0,0,1-.79-.27A39,39,0,0,0,72.23,217c-4-1.12-8-1.86-12.12-2.59l-13.85-2.52c-4.36-.78-8.79-1.53-13.23-1.08-2.73.27-7.62,1.23-7.4,4.82a1.9,1.9,0,0,1-.09.73l1.28.34c2.32.61,4.65,1.21,7,1.83,9.22,2.42,18.45,4.82,27.62,7.43a1.87,1.87,0,0,1-1,3.6c-10.25-2.42-20.44-5.1-30.63-7.74-2.44-.63-4.87-1.36-7.34-1.87-1.61-.34-3.54-.51-4.76.78a4.6,4.6,0,0,0,.12,6.38,1.89,1.89,0,0,1,.43,2c1.81.08,3.63.36,5.38.6a142.67,142.67,0,0,1,26.64,6.42c2.41.84,1.4,4.66-1.06,3.86a149.06,149.06,0,0,0-28.67-6.46c-2.7-.32-7.59-.87-8.77,2.38-.74,2,.24,4.84,2.38,5.58a2,2,0,0,1,1.24.22c1.88,1.05,3.78,2.05,5.68,3.06a1.77,1.77,0,0,1,.58.5,18.29,18.29,0,0,1,3.69-.21,86.41,86.41,0,0,1,19.14,2.61c2.4.61,1.38,4.21-1,3.69a93.27,93.27,0,0,0-18.61-2.17c-1.6,0-3.93-.1-4.71,1.65a4.43,4.43,0,0,0,1.2,4.78c3.29,3.35,8.89,3.9,13.32,4,5.5.15,11-.23,16.52-.41C56.9,259,62.63,258.82,68.36,258.71Z" transform="translate(-7.28 -7.06)"/></g><g id="Layer_9" data-name="Layer 9"><path class="cls-5" d="M455.34,316.13a86.75,86.75,0,0,1,18.21,66.45c-1.84,12.52-6.66,24.85-15.61,34a94.66,94.66,0,0,1-15.57,12.26A166.53,166.53,0,0,1,424.94,439a125.05,125.05,0,0,1-38.68,12.17c-14,2-28.15,1.91-42.22,1s-28-2.38-41.85-4.52c-13.45-2.08-26.8-5.21-39.31-10.67a90.85,90.85,0,0,1-29.17-19.8,69.43,69.43,0,0,1-17.39-31.56c-3.12-12.56-3.11-25.69-1.27-38.45s5.48-25.39,13.5-35.55c2.08-2.63,4.47-5,6.52-7.64a28.46,28.46,0,0,0,4.38-8.18c2.07-6,2.71-12.4,4.34-18.53a59.52,59.52,0,0,1,17.41-28.58c-1.06-2.39,1.49-4.83,3.33-6.17,10-7.28,22.22-10.48,34.34-11.72,13-1.32,26.23-.6,39.2.57a323.83,323.83,0,0,1,42.68,6.71q10.41,2.35,20.64,5.4a59.39,59.39,0,0,1,9.45,3.38,21.06,21.06,0,0,1,7.32,6.13c3.81,5,6.14,11,8.17,16.9s3.62,11.61,5.93,17.24a48.37,48.37,0,0,0,9.9,15.28C446.55,307,451.34,311.17,455.34,316.13Zm14.79,56a82.44,82.44,0,0,0-24.63-60.45c-4.44-4.37-9.05-8.6-12.47-13.85a70.43,70.43,0,0,1-7.23-16c-1.89-5.57-3.5-11.25-5.76-16.68-2.13-5.13-4.89-10.85-9.8-13.82a37.57,37.57,0,0,0-8.82-3.44q-5-1.52-10-2.86-9.84-2.62-19.83-4.62A315.77,315.77,0,0,0,330.82,235c-12.18-.81-24.63-1.28-36.74.62a73.05,73.05,0,0,0-16.56,4.45A52.65,52.65,0,0,0,269.9,244c-1.08.67-2.15,1.38-3.18,2.14a1.78,1.78,0,0,1,.87,1.75,3,3,0,0,1-3.08,2.88,59.21,59.21,0,0,0-9.57,11.33A56.23,56.23,0,0,0,247.86,278c-1.59,5.84-2.22,11.91-4,17.71a34,34,0,0,1-3.69,8.29,61.76,61.76,0,0,1-6,7.55,53.2,53.2,0,0,0-9.53,15.4c-4.51,11.27-6.39,23.83-6.5,35.93s1.87,24.14,7.17,35c10.25,20.92,31.35,33.68,53,40.18,12.79,3.83,26,5.82,39.29,7.31s26.82,2.84,40.29,3.09,26.75-.62,39.75-3.8a128.1,128.1,0,0,0,35.27-14.91c10.48-6.26,21.52-13.37,28.1-23.93C467.16,395.79,469.86,383.78,470.13,372.16Z" transform="translate(-7.28 -7.06)"/><path class="cls-4" d="M337.1,424.39Zm0,0a.09.09,0,0,1-.06-.07v0c-.05-.09-.11-.18-.16-.28s0,0,0-.06,0-.11,0-.17h0a2.18,2.18,0,0,0,.93-2.77,2.29,2.29,0,0,0-3.22-1.08c-3.34,1.61-2.39,6.43.31,8.14,3.49,2.2,7.81-.7,10.37-3.05a8.43,8.43,0,0,0,2.8-4.6,7.26,7.26,0,0,0-1.48-5.53,15.72,15.72,0,0,0-8.21-5.7,16.06,16.06,0,0,0-11.11.74c-2.08.9-.56,4.58,1.56,3.7a12.36,12.36,0,0,1,12.2,1.57c1.33,1,3.35,3.07,2.72,4.83a6.47,6.47,0,0,1-1.94,2.32,11.06,11.06,0,0,1-2.88,1.87,3.1,3.1,0,0,1-1.55.25.82.82,0,0,1-.25-.06h0ZM445.5,311.71a82.44,82.44,0,0,1,24.63,60.45c-.27,11.62-3,23.63-9.17,33.57-6.58,10.56-17.62,17.67-28.1,23.93a128.1,128.1,0,0,1-35.27,14.91c-13,3.18-26.41,4-39.75,3.8s-26.92-1.57-40.29-3.09-26.5-3.48-39.29-7.31c-21.66-6.5-42.76-19.26-53-40.18-5.3-10.81-7.28-23-7.17-35s2-24.66,6.5-35.93a53.2,53.2,0,0,1,9.53-15.4,61.76,61.76,0,0,0,6-7.55,34,34,0,0,0,3.69-8.29c1.79-5.8,2.42-11.87,4-17.71a56.23,56.23,0,0,1,7.08-15.84,59.21,59.21,0,0,1,9.57-11.33,3,3,0,0,0,3.08-2.88,1.78,1.78,0,0,0-.87-1.75c1-.76,2.1-1.47,3.18-2.14a52.65,52.65,0,0,1,7.62-3.91,73.05,73.05,0,0,1,16.56-4.45c12.11-1.9,24.56-1.43,36.74-.62a315.77,315.77,0,0,1,40.74,5.41q10,2,19.83,4.62,5,1.35,10,2.86a37.57,37.57,0,0,1,8.82,3.44c4.91,3,7.67,8.69,9.8,13.82,2.26,5.43,3.87,11.11,5.76,16.68a70.43,70.43,0,0,0,7.23,16C436.45,303.11,441.06,307.34,445.5,311.71Zm-19.71,31.4c2.3.93,3.84-2.83,1.68-4a142.39,142.39,0,0,0-16.85-7.23q-8.42-3.17-17.05-5.7a242.18,242.18,0,0,0-35.35-7.53q-8.73-1.19-17.52-1.75c-.12-.62-.24-1.23-.34-1.85l-.09-.62-.06-.43c-.06-.5-.1-1-.15-1.5a44.85,44.85,0,0,1-.11-5.91,2,2,0,0,0-1.94-1.94,2,2,0,0,0-1.94,1.94,41.9,41.9,0,0,0,.35,10.07,245.42,245.42,0,0,0-50.21,2.77,211.38,211.38,0,0,0-39.39,10.13c-2.29.84-1.36,4.47,1,3.71a253.09,253.09,0,0,1,70-12.25A241.25,241.25,0,0,1,388,329.36q9.72,2.64,19.19,6.11C413.49,337.78,419.56,340.6,425.79,343.11Z" transform="translate(-7.28 -7.06)"/><path class="cls-5" d="M427.47,339.12c2.16,1.16.62,4.92-1.68,4-6.23-2.51-12.3-5.33-18.62-7.64s-12.71-4.35-19.19-6.11A241.25,241.25,0,0,0,317.85,321a253.09,253.09,0,0,0-70,12.25c-2.38.76-3.31-2.87-1-3.71a211.38,211.38,0,0,1,39.39-10.13,245.42,245.42,0,0,1,50.21-2.77,41.9,41.9,0,0,1-.35-10.07,2,2,0,0,1,1.94-1.94A2,2,0,0,1,340,306.6a44.85,44.85,0,0,0,.11,5.91c.05.5.09,1,.15,1.5l.06.43.09.62c.1.62.22,1.23.34,1.85q8.79.55,17.52,1.75a242.18,242.18,0,0,1,35.35,7.53q8.64,2.52,17.05,5.7A142.39,142.39,0,0,1,427.47,339.12Z" transform="translate(-7.28 -7.06)"/><path class="cls-5" d="M346.51,414.88a7.26,7.26,0,0,1,1.48,5.53,8.43,8.43,0,0,1-2.8,4.6c-2.56,2.35-6.88,5.25-10.37,3.05-2.7-1.71-3.65-6.53-.31-8.14a2.29,2.29,0,0,1,3.22,1.08,2.18,2.18,0,0,1-.93,2.77h0c0,.06,0,.12,0,.17s0,0,0,.06.11.19.16.28v0a.09.09,0,0,0,.06.07h0a.82.82,0,0,0,.25.06,3.1,3.1,0,0,0,1.55-.25,11.06,11.06,0,0,0,2.88-1.87,6.47,6.47,0,0,0,1.94-2.32c.63-1.76-1.39-3.82-2.72-4.83a12.36,12.36,0,0,0-12.2-1.57c-2.12.88-3.64-2.8-1.56-3.7a16.06,16.06,0,0,1,11.11-.74A15.72,15.72,0,0,1,346.51,414.88Z" transform="translate(-7.28 -7.06)"/><path class="cls-5" d="M337.1,424.39c.07,0,0,0,0,0Z" transform="translate(-7.28 -7.06)"/></g><g id="Layer_3" data-name="Layer 3"><path class="cls-3" d="M467.08,187.37a42.67,42.67,0,0,1-3.39,22.81c-2.75,6.34-7,12.78-13.68,15.43a14,14,0,0,1-12.51-1.24c-1.05,1.4-2.12,2.78-3.24,4.11-9.58,11.4-22,20.2-35.43,26.5a154.52,154.52,0,0,1-43.05,12.71c-17.48,2.59-35.33,2.85-52.75-.37a114.12,114.12,0,0,1-43.72-17.64,92.61,92.61,0,0,1-29.12-31.57,13,13,0,0,1-13,.22c-6.58-3.92-9.34-12.08-11.7-18.93-2.62-7.64-4.93-16.82-2.36-24.79a13.78,13.78,0,0,1,15.09-10.1,14.85,14.85,0,0,1,6.93,2.5,122.26,122.26,0,0,1,1.51-37.68c5.32-27.69,19.17-52.92,36.07-75.2,8-10.54,16.47-21,26.38-29.82C298.48,16,309.57,9,322.16,7.1a2.21,2.21,0,0,1,2.67,2.68c-.5,2.5-1,5-1.49,7.52.89.12,1.77.24,2.66.38a96.27,96.27,0,0,1,36.64,14.5A142.45,142.45,0,0,1,393,59a198.72,198.72,0,0,1,24.33,35.49,211.92,211.92,0,0,1,24.38,77.73,11.71,11.71,0,0,1,2.73-2.22,12.64,12.64,0,0,1,11.44-.28C462.85,172.72,466.11,180.3,467.08,187.37Zm-6.44,18.93a37.47,37.47,0,0,0,2.17-18.42c-.85-5.6-3.2-11.8-8.72-14.28a8.24,8.24,0,0,0-7.28,0,6.42,6.42,0,0,0-3.52,5.75c.08,2.36-3,2.68-4,1a2.08,2.08,0,0,1-1.14-1.74c-.14-1.78-.31-3.56-.5-5.34a207.23,207.23,0,0,0-9.05-41.93,209.61,209.61,0,0,0-17.42-39.22A189.1,189.1,0,0,0,387,58.6a132.76,132.76,0,0,0-30.16-25,89.14,89.14,0,0,0-36-12.34,2.18,2.18,0,0,1-2.07-2.7c.43-2.2.84-4.41,1.26-6.61-12.23,2.88-22.68,10.3-31.64,19a229.58,229.58,0,0,0-25,29.6,212.61,212.61,0,0,0-21,35c-11.71,25-17.26,53.68-11.41,81,.54,2.53-3.31,3.61-3.89,1.07-.26-1.13-.49-2.27-.71-3.41a2.08,2.08,0,0,1-1.91-1.6,1.6,1.6,0,0,1,.12-1.06,10.11,10.11,0,0,0-5.28-2.85,11.13,11.13,0,0,0-6.74.65c-5.24,2.31-6.36,8.55-6.15,13.7.28,6.91,2.56,13.61,5.07,20,1.76,4.48,4.26,10.28,9.12,12.13,3.38,1.28,8.52.28,9.36-3.72.57-2.71,4.72-1.56,4.15,1.15a8.42,8.42,0,0,1-1,2.55l.08.11c.85,1.58,1.74,3.14,2.7,4.66a91.22,91.22,0,0,0,30.43,29.34,113.41,113.41,0,0,0,43.94,14.93,162.14,162.14,0,0,0,50-1.63,141.91,141.91,0,0,0,41.08-13.79c12.56-6.66,24-15.61,32.53-27a3.08,3.08,0,0,1,.56-.58,7.14,7.14,0,0,1-.47-.81c-1.29-2.54,2.56-4.79,3.83-2.24,2.5,5,9.16,4.78,13.28,2.09C455.74,217.16,458.74,211.44,460.64,206.3Z" transform="translate(-7.28 -7.06)"/><path class="cls-2" d="M462.81,187.88a37.47,37.47,0,0,1-2.17,18.42c-1.9,5.14-4.9,10.86-9.62,13.94-4.12,2.69-10.78,2.94-13.28-2.09-1.27-2.55-5.12-.3-3.83,2.24a7.14,7.14,0,0,0,.47.81,3.08,3.08,0,0,0-.56.58c-8.56,11.42-20,20.37-32.53,27a141.91,141.91,0,0,1-41.08,13.79,162.14,162.14,0,0,1-50,1.63,113.41,113.41,0,0,1-43.94-14.93A91.22,91.22,0,0,1,235.81,220c-1-1.52-1.85-3.08-2.7-4.66l-.08-.11a8.42,8.42,0,0,0,1-2.55c.57-2.71-3.58-3.86-4.15-1.15-.84,4-6,5-9.36,3.72-4.86-1.85-7.36-7.65-9.12-12.13-2.51-6.37-4.79-13.07-5.07-20-.21-5.15.91-11.39,6.15-13.7a11.13,11.13,0,0,1,6.74-.65,10.11,10.11,0,0,1,5.28,2.85,1.6,1.6,0,0,0-.12,1.06,2.08,2.08,0,0,0,1.91,1.6c.22,1.14.45,2.28.71,3.41.58,2.54,4.43,1.46,3.89-1.07-5.85-27.32-.3-56,11.41-81a212.61,212.61,0,0,1,21-35,229.58,229.58,0,0,1,25-29.6c9-8.7,19.41-16.12,31.64-19-.42,2.2-.83,4.41-1.26,6.61a2.18,2.18,0,0,0,2.07,2.7,89.14,89.14,0,0,1,36,12.34A132.76,132.76,0,0,1,387,58.6a189.1,189.1,0,0,1,24.18,33.52,209.61,209.61,0,0,1,17.42,39.22,207.23,207.23,0,0,1,9.05,41.93c.19,1.78.36,3.56.5,5.34a2.08,2.08,0,0,0,1.14,1.74c1,1.68,4.07,1.36,4-1a6.42,6.42,0,0,1,3.52-5.75,8.24,8.24,0,0,1,7.28,0C459.61,176.08,462,182.28,462.81,187.88Z" transform="translate(-7.28 -7.06)"/></g><g id="Layer_15" data-name="Layer 15"><path class="cls-3" d="M224.68,199.38a6.33,6.33,0,0,1-2.25-.28,5.57,5.57,0,0,1-1.89-1.36,10.27,10.27,0,0,1-2.14-5.06c-.3-1.59-.62-3.54.25-5,.51-.85,1.85-1.38,2.54-.65,1.22,1.3,3.1-.62,1.94-1.94-1.61-1.83-4.41-1.46-6.14,0-2.13,1.77-2.1,4.83-1.75,7.32a14.22,14.22,0,0,0,2.93,7.41c1.55,1.8,4.5,3.42,6.92,2.62A1.55,1.55,0,0,0,224.68,199.38Z" transform="translate(-7.28 -7.06)"/><path class="cls-3" d="M448.65,192.67a6.56,6.56,0,0,0-5.78-2.57,1.5,1.5,0,0,0-1.45,1.46,1.47,1.47,0,0,0,1.45,1.46,3.92,3.92,0,0,1,3.51,1.63,5.28,5.28,0,0,1,.84,4.23,8.16,8.16,0,0,1-2.22,4.35,4.47,4.47,0,0,1-1.57,1,1.66,1.66,0,0,1-.7.07,6.77,6.77,0,0,1-1-.29,1.38,1.38,0,0,0-1.56.64,1.43,1.43,0,0,0,.22,1.67c1.67,2,4.62.93,6.32-.45a10.54,10.54,0,0,0,3.44-6.13A8.46,8.46,0,0,0,448.65,192.67Z" transform="translate(-7.28 -7.06)"/></g><g id="Layer_7" data-name="Layer 7"><path class="cls-4" d="M425.39,191.55c4.52,13.17.55,28.22-4.48,40.64a98.27,98.27,0,0,1-25.78,36.45,89.33,89.33,0,0,1-41.55,20.63A87.74,87.74,0,0,1,306,285.73c-15.91-5.91-29.8-16.93-41.4-29.11a117.43,117.43,0,0,1-15.06-19.34,100.62,100.62,0,0,1-5.88-11c-1.72-3.8-3.5-7.92-3.89-12.11-.77-8.32,5.59-14.23,11.84-18.66A71,71,0,0,1,272,185.61c15-4.62,30.86-5.22,46.47-5.24l5.63,0a2.06,2.06,0,0,0-.09.57,2.13,2.13,0,0,0,2.12,2.12c19.51-2.35,39.07-4.68,58.72-5.45q7.31-.28,14.61-.25c4.25,0,8.57.1,12.7,1.24C418.64,180.42,423.22,185.24,425.39,191.55Z" transform="translate(-7.28 -7.06)"/><path class="cls-5" d="M431.47,200.3A64.52,64.52,0,0,1,428.94,222a103.61,103.61,0,0,1-8.75,21.93A100.68,100.68,0,0,1,389,279a93.76,93.76,0,0,1-47.25,16.19A90,90,0,0,1,292.09,284a124,124,0,0,1-21.85-15.9,139,139,0,0,1-17.81-19,103.28,103.28,0,0,1-13.11-22c-1.82-4.22-3.52-8.56-3.89-13.17a18.59,18.59,0,0,1,3.49-12.24c4.65-6.58,12-11.45,19.1-15a88.66,88.66,0,0,1,22.65-7.56c16.22-3.21,32.85-3.08,49.31-2.55a1.89,1.89,0,0,1,1.87,1.62c3-.37,6-.73,9-1.08,20.17-2.31,40.5-4.29,60.83-3.93,8.23.15,16.77,1.53,22.54,8C429,186.36,430.94,193.38,431.47,200.3Zm-10.56,31.89c5-12.42,9-27.47,4.48-40.64-2.17-6.31-6.75-11.13-13.26-12.92-4.13-1.14-8.45-1.21-12.7-1.24q-7.31,0-14.61.25c-19.65.77-39.21,3.1-58.72,5.45A2.13,2.13,0,0,1,324,181a2.06,2.06,0,0,1,.09-.57l-5.63,0c-15.61,0-31.45.62-46.47,5.24a71,71,0,0,0-20.39,9.86c-6.25,4.43-12.61,10.34-11.84,18.66.39,4.19,2.17,8.31,3.89,12.11a100.62,100.62,0,0,0,5.88,11,117.43,117.43,0,0,0,15.06,19.34c11.6,12.18,25.49,23.2,41.4,29.11a87.74,87.74,0,0,0,47.61,3.54,89.33,89.33,0,0,0,41.55-20.63A98.27,98.27,0,0,0,420.91,232.19Z" transform="translate(-7.28 -7.06)"/></g><g id="Layer_8" data-name="Layer 8"><path class="cls-6" d="M405.78,220c-9.58,4.88-15.17,14.33-21.23,22.78a67.7,67.7,0,0,1-10.21,11.69,54.56,54.56,0,0,1-13.18,8.46,55.31,55.31,0,0,1-30,4.61c-12-1.58-23-7.3-33-13.86a236.08,236.08,0,0,1-33.47-26.56,1.81,1.81,0,0,0-2.56,2.56A226.92,226.92,0,0,0,292,255.47c10.09,7.2,21.29,13.52,33.49,16.23a60.12,60.12,0,0,0,59.68-21.31c7.16-9.17,12.26-20.73,22.67-26.84C410.15,222.2,408.13,218.8,405.78,220Z" transform="translate(-7.28 -7.06)"/></g><g id="Layer_5" data-name="Layer 5"><path class="cls-7" d="M380.15,115.45a52.27,52.27,0,0,1-.65,42.5,41.89,41.89,0,0,1-13,16,34.08,34.08,0,0,1-9.16,4.74c-3.1,1.05-7.63,1.23-9.26-2.27a2.31,2.31,0,0,1-.21-.86c-.34-.12-.68-.24-1-.38-7.37-3.09-11.4-10.45-13.52-17.81-.64,8.21-4,16.58-11.18,21.16-8.54,5.44-18.63,1.83-27.09-1.79a1.69,1.69,0,0,1-1-1.19c-.6-.24-1.21-.5-1.81-.78-17-8-22.68-28-27.19-44.71-1.34-4.93-2.52-10.09-2.13-15.23a28.32,28.32,0,0,1,3.7-11.9A41.27,41.27,0,0,1,285,86.55c7.65-3.55,16.9-5.25,25-2.09,7.58,3,12.45,9.35,15.3,16.76a54.82,54.82,0,0,1,1.81,5.71,38,38,0,0,1,.43-8.06C329,90.77,337,86,344.84,86.19c8.39.23,16.28,5,22.33,10.52A53.27,53.27,0,0,1,380.15,115.45ZM378.08,150a49,49,0,0,0-4.29-38,47,47,0,0,0-13-15c-5.77-4.26-13.45-8.07-20.76-5.94a12.23,12.23,0,0,0-7.21,5.29c-2,3.41-1.62,7.67-1.5,11.46q.42,13.31,2.1,26.54c.55,4.34,1.22,8.66,2,13a72.82,72.82,0,0,0,2.85,11.92c2.21,6.16,7.06,12.79,14.07,13.64a1.89,1.89,0,0,1,1.84,1.84,1.39,1.39,0,0,1-.06.4l.17,0c2.83-.33,5.76-2,8.13-3.47a32.87,32.87,0,0,0,6.75-5.7A41.58,41.58,0,0,0,378.08,150ZM324.3,170.79c5.17-6.78,5.35-15.59,4.52-23.71-1-9.41-2.47-18.8-3.84-28.15-1-6.92-2.27-14.14-5.64-20.35s-9.08-10.65-16.26-11.3c-7.63-.69-15.27,2-21.56,6.19-6,4-11.36,9.83-13.44,16.89-2.54,8.63.82,17.76,3.22,26,4.3,14.86,11.34,32.17,27.83,36.68a1.73,1.73,0,0,1,1.29,1.2c.91.35,1.83.7,2.76,1,4.09,1.38,8.54,2.37,12.81,1.25A15.61,15.61,0,0,0,324.3,170.79Z" transform="translate(-7.28 -7.06)"/><path class="cls-8" d="M373.79,112a49,49,0,0,1,4.29,38,41.58,41.58,0,0,1-8.89,15.86,32.87,32.87,0,0,1-6.75,5.7c-2.37,1.49-5.3,3.14-8.13,3.47l-.17,0a1.39,1.39,0,0,0,.06-.4,1.89,1.89,0,0,0-1.84-1.84c-7-.85-11.86-7.48-14.07-13.64a72.82,72.82,0,0,1-2.85-11.92c-.76-4.31-1.43-8.63-2-13q-1.68-13.22-2.1-26.54c-.12-3.79-.5-8,1.5-11.46A12.23,12.23,0,0,1,340.07,91c7.31-2.13,15,1.68,20.76,5.94A47,47,0,0,1,373.79,112Z" transform="translate(-7.28 -7.06)"/><path class="cls-8" d="M328.82,147.08c.83,8.12.65,16.93-4.52,23.71a15.61,15.61,0,0,1-8.31,5.76c-4.27,1.12-8.72.13-12.81-1.25-.93-.32-1.85-.67-2.76-1a1.73,1.73,0,0,0-1.29-1.2c-16.49-4.51-23.53-21.82-27.83-36.68-2.4-8.28-5.76-17.41-3.22-26,2.08-7.06,7.42-12.87,13.44-16.89,6.29-4.2,13.93-6.88,21.56-6.19,7.18.65,12.89,5.09,16.26,11.3S324,112,325,118.93C326.35,128.28,327.86,137.67,328.82,147.08Z" transform="translate(-7.28 -7.06)"/><path d="M317,134.16c.86,3.26,1,7.43-.71,10.45-1.89,3.3-6.14,1.84-8.14-.51a16.79,16.79,0,0,1-3.43-11.24c.23-3.53,3-7.9,7.07-7.29A18.61,18.61,0,0,1,317,134.16Z" transform="translate(-7.28 -7.06)"/><path d="M321.71,136.54c.48,4.6-.44,11.16-5.11,13.39-5,2.39-10.33-.59-13-4.94-2.76-4.5-4.2-11-2.29-16.08,1.66-4.39,5.89-7.65,10.6-7.14a1.66,1.66,0,0,1,1.94.11C318.46,125.31,321.12,130.93,321.71,136.54Zm-5.47,8.07c1.74-3,1.57-7.19.71-10.45a18.61,18.61,0,0,0-5.21-8.59c-4.05-.61-6.84,3.76-7.07,7.29a16.79,16.79,0,0,0,3.43,11.24C310.1,146.45,314.35,147.91,316.24,144.61Z" transform="translate(-7.28 -7.06)"/><path d="M350,131.65c.93,3.34,1.94,7.54,1,10.95-.82,3-3.66,4.76-6.33,2.66s-3.82-6-4.13-9.28a21,21,0,0,1,2.19-11.45,2.19,2.19,0,0,1,1.52.5,1.67,1.67,0,0,0,1.59.14C348.15,126.6,349.29,129,350,131.65Z" transform="translate(-7.28 -7.06)"/><path d="M354.85,133.6c.95,5.11,1.68,11.39-2.86,15.09s-9.92,1-12.7-3.36-3.42-10.15-2.65-15.21a22.8,22.8,0,0,1,2.59-7.65,3.49,3.49,0,0,1,3.42-1.92,5.87,5.87,0,0,1,2.47.53,2.41,2.41,0,0,1,2.13,0C352.1,123.18,354,128.81,354.85,133.6Zm-3.83,9c.94-3.41-.07-7.61-1-10.95-.73-2.61-1.87-5.05-4.16-6.48a1.67,1.67,0,0,1-1.59-.14,2.19,2.19,0,0,0-1.52-.5A21,21,0,0,0,340.56,136c.31,3.26,1.46,7.16,4.13,9.28S350.2,145.58,351,142.6Z" transform="translate(-7.28 -7.06)"/></g><g id="Layer_4" data-name="Layer 4"><path class="cls-6" d="M332.69,187.7a5.28,5.28,0,0,0,.06,1.81c-.12,0-.24.07-.36.09l-.6-.13A19.61,19.61,0,0,1,332.69,187.7Z" transform="translate(-7.28 -7.06)"/><path class="cls-6" d="M357.24,185a2.11,2.11,0,0,0-1.18,1.36,1.91,1.91,0,0,0,.16,1.5l-.67.32-3.28,1.58a1.75,1.75,0,0,0-.86,1.68l-.78.07a42.08,42.08,0,0,1-6.15,0,26.55,26.55,0,0,1-6.89-3.42h0A14.37,14.37,0,0,1,347.86,182,13.43,13.43,0,0,1,357.24,185Z" transform="translate(-7.28 -7.06)"/><path class="cls-6" d="M326.37,190.57a2.19,2.19,0,0,1,.85.81.31.31,0,0,1,0,.1q-.7-.67-1.44-1.32a1.43,1.43,0,0,1,.09-.27A2.18,2.18,0,0,1,326.37,190.57Z" transform="translate(-7.28 -7.06)"/><path class="cls-6" d="M336.61,189.59c-.16.25-.3.52-.44.79l-1.59-.31a1.85,1.85,0,0,1,.25-1.23h0A2.07,2.07,0,0,1,336.61,189.59Z" transform="translate(-7.28 -7.06)"/><path class="cls-6" d="M325.83,190.16a1.8,1.8,0,0,0,1.33,2.29l.34.09a2.37,2.37,0,0,1-.27,1.05,12,12,0,0,1-3-1.29,2.07,2.07,0,0,1-.73-2.78,1.74,1.74,0,0,1,.74-.73C324.77,189.22,325.31,189.68,325.83,190.16Z" transform="translate(-7.28 -7.06)"/><path class="cls-6" d="M332.79,189.69c0-.06,0-.12,0-.18l.35-.11a3.58,3.58,0,0,0,.55-.19s0,0,0,0l.2-.11a2.44,2.44,0,0,1,1-.25h0a1.85,1.85,0,0,0-.25,1.23Z" transform="translate(-7.28 -7.06)"/><path class="cls-6" d="M326.62,189a1.87,1.87,0,0,1,1.58-.31l3,.67.44.44h-.43a11.43,11.43,0,0,1-1.17,0l-.55,0-.31,0c-.19,0-.2,0,0,0a4.32,4.32,0,0,1-1-.23,5.06,5.06,0,0,1-1.1-.36h0l-.22-.11Z" transform="translate(-7.28 -7.06)"/><path class="cls-6" d="M336.8,189.85a1.91,1.91,0,0,1,.26.7l-.89-.17c.14-.27.28-.54.44-.79A2.48,2.48,0,0,1,336.8,189.85Z" transform="translate(-7.28 -7.06)"/><path class="cls-6" d="M331.65,189.78c.05-.1.09-.21.14-.31l.6.13a3.58,3.58,0,0,1-.35.09A3.23,3.23,0,0,1,331.65,189.78Z" transform="translate(-7.28 -7.06)"/><path class="cls-6" d="M332.67,193.83a12.08,12.08,0,0,1-2.94.16l-1.11-1.16C330,193.18,331.32,193.52,332.67,193.83Z" transform="translate(-7.28 -7.06)"/><path class="cls-6" d="M328.62,192.83l1.11,1.16a11.85,11.85,0,0,1-2.5-.4,2.37,2.37,0,0,0,.27-1.05Z" transform="translate(-7.28 -7.06)"/><path class="cls-6" d="M334.58,190.07a2.26,2.26,0,0,0,1,1.52l0,0a16.07,16.07,0,0,0-.56,1.51,6.43,6.43,0,0,1-2.2-3.32l0-.11Z" transform="translate(-7.28 -7.06)"/><path class="cls-6" d="M337.06,190.55a2.3,2.3,0,0,1-.44,1.76c-.36-.23-.7-.46-1-.7.18-.42.38-.83.59-1.23Z" transform="translate(-7.28 -7.06)"/><path class="cls-6" d="M335,193.21q-.17.54-.3,1.08c-.68-.14-1.35-.29-2-.46A12.84,12.84,0,0,0,335,193.21Z" transform="translate(-7.28 -7.06)"/><path class="cls-6" d="M336.17,190.38c-.21.4-.41.81-.59,1.23l0,0a2.26,2.26,0,0,1-1-1.52Z" transform="translate(-7.28 -7.06)"/><path class="cls-6" d="M327.27,191.48a2.23,2.23,0,0,1,.23,1.06l-.34-.09a1.8,1.8,0,0,1-1.33-2.29Q326.57,190.81,327.27,191.48Z" transform="translate(-7.28 -7.06)"/><path class="cls-6" d="M337,189a1.74,1.74,0,0,0,.33.56,3.41,3.41,0,0,0,1.64,1.06,7.29,7.29,0,0,1-1.06-1.27,1.79,1.79,0,0,1-.19-.42,2,2,0,0,1-.51-.24c.12-.18.24-.36.37-.53h0a26.55,26.55,0,0,0,6.89,3.42l-1.36-.11c-2-.19-4.05-.5-6.06-.87a1.91,1.91,0,0,0-.26-.7,2.48,2.48,0,0,0-.19-.26C336.73,189.37,336.86,189.16,337,189Z" transform="translate(-7.28 -7.06)"/><path class="cls-6" d="M327.23,193.59a1.83,1.83,0,0,1-.8.78,26.8,26.8,0,0,1-26.1-2,1.36,1.36,0,0,0-.07-.53c-.95-2.89,1.42-5.69,3.8-7a14.33,14.33,0,0,1,9.61-1.28,19.66,19.66,0,0,1,3.55,1l.42.37c.26,0,.53.08.79.14a27.42,27.42,0,0,1,5.78,3.67,1.74,1.74,0,0,0-.74.73,2.07,2.07,0,0,0,.73,2.78A12,12,0,0,0,327.23,193.59Z" transform="translate(-7.28 -7.06)"/><path class="cls-6" d="M351.59,192.78a25.16,25.16,0,0,1-7.11-1.25,42.08,42.08,0,0,0,6.15,0l.78-.07a1.44,1.44,0,0,0,.23.74,1.8,1.8,0,0,0,.56.57Z" transform="translate(-7.28 -7.06)"/><path class="cls-6" d="M359.05,188.67a5.33,5.33,0,0,1-.69,1.42,1.91,1.91,0,0,1,.06.67c-.27.14-.55.27-.82.39a2,2,0,0,0,.29-1.33,2.19,2.19,0,0,0-.18-.58c-.09-.18-.06-.19-.17-.23a2.68,2.68,0,0,1-.68-.39A2.24,2.24,0,0,1,359.05,188.67Z" transform="translate(-7.28 -7.06)"/><path class="cls-6" d="M334.69,194.29c0,.06,0,.11,0,.17a2.17,2.17,0,0,1-3.61.95L329.73,194a12.08,12.08,0,0,0,2.94-.16C333.34,194,334,194.15,334.69,194.29Z" transform="translate(-7.28 -7.06)"/><path class="cls-6" d="M359.24,187.14a4.13,4.13,0,0,1-.19,1.53,2.24,2.24,0,0,0-2.19,0,2.19,2.19,0,0,1-.64-.72c.88-.44,1.76-.86,2.67-1.21C359,186.84,359.13,187,359.24,187.14Z" transform="translate(-7.28 -7.06)"/><path class="cls-6" d="M342.44,195.25a23,23,0,0,1-3.55-.35,8.49,8.49,0,0,1-3.81-1.73c.33-.12.64-.25,1-.4a1.74,1.74,0,0,0,.58-.46A30.54,30.54,0,0,0,342.44,195.25Z" transform="translate(-7.28 -7.06)"/><path class="cls-6" d="M331.79,189.47c-.05.1-.09.21-.14.31l-.44-.44Z" transform="translate(-7.28 -7.06)"/><path class="cls-6" d="M346.65,195.9a37.32,37.32,0,0,0,9.66-.87c2.46-.58,4.67-2.72,3.69-5.07l.47-.27.15-.1a9.74,9.74,0,0,1,.63,2.47,3.16,3.16,0,0,0,.25.89c-1.29,2.44-4.05,3.6-6.76,3.94a25.58,25.58,0,0,1-10.88-1.16C344.79,195.81,345.72,195.87,346.65,195.9Z" transform="translate(-7.28 -7.06)"/><path class="cls-6" d="M347.2,195.07a19.26,19.26,0,0,0,7.78-2l.59-.35a2.11,2.11,0,0,0,2.85-1.91c.53-.25,1.06-.52,1.58-.8,1,2.35-1.23,4.49-3.69,5.07a37.32,37.32,0,0,1-9.66.87c-.93,0-1.86-.09-2.79-.17-.48-.14-.95-.31-1.42-.48A44.16,44.16,0,0,0,347.2,195.07Z" transform="translate(-7.28 -7.06)"/><path class="cls-6" d="M325.23,188.53a2.18,2.18,0,0,1-.05.84,2.07,2.07,0,0,1,.74.52,1.43,1.43,0,0,0-.09.27c-.52-.48-1.06-.94-1.62-1.37A2.12,2.12,0,0,1,325.23,188.53Z" transform="translate(-7.28 -7.06)"/><path class="cls-6" d="M356.35,189a2,2,0,0,0-.59,1.76l-.07,0c-.48.08-1,.2-1.44.3a27.35,27.35,0,0,1-2.84.41,1.75,1.75,0,0,1,.86-1.68l3.28-1.58.67-.32a2.19,2.19,0,0,0,.64.72A2.15,2.15,0,0,0,356.35,189Z" transform="translate(-7.28 -7.06)"/><path class="cls-6" d="M303,180.64a18.1,18.1,0,0,1,9.26-1.56c7.62.66,13.74,5,19,10.26l-3-.67a1.87,1.87,0,0,0-1.58.31l-.36-.19a2,2,0,0,0-1-.26,1.69,1.69,0,0,0-1-1.34,18.79,18.79,0,0,0-3.75-1.37,8,8,0,0,0-2.06-.7c-.4-.18-.8-.36-1.21-.51l-.5-.44c-.37-1.91-2-2.67-3.77-3.11a27.85,27.85,0,0,0-5.89-1.31,4.72,4.72,0,0,0-2.72.7C303.89,180.5,303.43,180.56,303,180.64Z" transform="translate(-7.28 -7.06)"/><path class="cls-6" d="M325.18,189.37a2.18,2.18,0,0,0,.05-.84,2,2,0,0,1,1,.26l.36.19a2.11,2.11,0,0,0-.7.91A2.07,2.07,0,0,0,325.18,189.37Z" transform="translate(-7.28 -7.06)"/><path class="cls-6" d="M332.39,189.6c.12,0,.24-.06.36-.09s0,.12,0,.18Z" transform="translate(-7.28 -7.06)"/><path class="cls-6" d="M338.89,194.9a23,23,0,0,0,3.55.35c.47.17.94.34,1.42.48a70.81,70.81,0,0,1-9.17-1.44q.13-.54.3-1.08l.09,0A8.49,8.49,0,0,0,338.89,194.9Z" transform="translate(-7.28 -7.06)"/><path class="cls-6" d="M358.36,190.09a5.33,5.33,0,0,0,.69-1.42,1.22,1.22,0,0,1,.36.32,4.07,4.07,0,0,1,.59,1c-.52.28-1.05.55-1.58.8A1.91,1.91,0,0,0,358.36,190.09Z" transform="translate(-7.28 -7.06)"/><path class="cls-6" d="M326.81,189.08l.22.11h0a5.06,5.06,0,0,0,1.1.36,4.32,4.32,0,0,0,1,.23h0c-.17,0-.16,0,0,0l.31,0,.55,0a11.43,11.43,0,0,0,1.17,0h.34a.14.14,0,0,0,.09,0,3.23,3.23,0,0,0,.39-.09,3.58,3.58,0,0,0,.35-.09l.4.09,0,.11a6.43,6.43,0,0,0,2.2,3.32l0,.09a12.84,12.84,0,0,1-2.32.62c-1.35-.31-2.7-.65-4.05-1q-.67-.69-1.35-1.35a.31.31,0,0,0,0-.1,4.43,4.43,0,0,1-1.3-1.49,2.11,2.11,0,0,1,.7-.91Z" transform="translate(-7.28 -7.06)"/><path class="cls-6" d="M355,193a19.26,19.26,0,0,1-7.78,2,44.16,44.16,0,0,1-4.76.18,30.54,30.54,0,0,1-5.82-2.94,2.3,2.3,0,0,0,.44-1.76c2,.37,4,.68,6.06.87l1.36.11a25.16,25.16,0,0,0,7.11,1.25h.61a1.86,1.86,0,0,0,1.86.06l.3-.14a4.93,4.93,0,0,0,3-1.27,1.42,1.42,0,0,0,.22-.28h0c.27-.12.55-.25.82-.39a2.11,2.11,0,0,1-2.85,1.91Z" transform="translate(-7.28 -7.06)"/><path class="cls-9" d="M364.77,188.72a16.93,16.93,0,0,0-11.23-10.45,17.55,17.55,0,0,0-16.44,4,9.05,9.05,0,0,0-.8.45,7.45,7.45,0,0,0-3.61,5,19.61,19.61,0,0,0-.9,1.77l-.58-.13c-5.23-5.21-11.35-9.6-19-10.26a18.1,18.1,0,0,0-9.26,1.56l-.39.07a1.81,1.81,0,0,0-1.1.74,13.65,13.65,0,0,0-1.26.89,11.7,11.7,0,0,0-2.89,3.4c-1.06-4.6-1-9.61,3.33-12.2,2.89-1.74,6.48-1.93,9.76-1.73a29.3,29.3,0,0,1,11.25,3.06c1.52.76,3.89-.54,3.17-2.44-2.08-5.57,1.13-12.29,7.46-12.68a8,8,0,0,1,7.2,3.25,8.14,8.14,0,0,1,1,7.56,2.16,2.16,0,0,0,3.37,2.6A14.88,14.88,0,0,1,362,173a15.35,15.35,0,0,1,5.39,12.31,2,2,0,0,0-1.38,1.41c-.17.67-.33,1.34-.5,2l-.37.16A1.65,1.65,0,0,0,364.77,188.72Z" transform="translate(-7.28 -7.06)"/><path class="cls-6" d="M359.05,188.67a4.13,4.13,0,0,0,.19-1.53,10.73,10.73,0,0,1,1.38,2.45l-.15.1L360,190a4.07,4.07,0,0,0-.59-1A1.22,1.22,0,0,0,359.05,188.67Z" transform="translate(-7.28 -7.06)"/><path class="cls-6" d="M355.76,190.75a2,2,0,0,1,.59-1.76,2.15,2.15,0,0,1,.51-.37,2.68,2.68,0,0,0,.68.39c.11,0,.08.05.17.23a2.19,2.19,0,0,1,.18.58,2,2,0,0,1-.29,1.33h0l-.31.15-2.92,1.4a14.38,14.38,0,0,1-2.16.08,1.8,1.8,0,0,1-.56-.57,1.44,1.44,0,0,1-.23-.74,27.35,27.35,0,0,0,2.84-.41c.48-.1,1-.22,1.44-.3Z" transform="translate(-7.28 -7.06)"/><path class="cls-6" d="M328.62,192.83l-1.12-.29a2.23,2.23,0,0,0-.23-1.06Q327.95,192.14,328.62,192.83Z" transform="translate(-7.28 -7.06)"/><path class="cls-6" d="M333.65,189.21a3.58,3.58,0,0,1-.55.19l-.35.11a5.28,5.28,0,0,1-.06-1.81,21.3,21.3,0,0,1,3.12-4.2,16.48,16.48,0,0,1,1.29-1.22,15.52,15.52,0,0,1,11-1.05,14.55,14.55,0,0,1,4.91.27,9,9,0,0,1,5.49,3.38,2,2,0,0,0-1.26.16,13.43,13.43,0,0,0-9.38-3.09,14.37,14.37,0,0,0-10.28,6.16,2,2,0,0,0-2.74.72,2.44,2.44,0,0,0-1,.25l-.2.11Z" transform="translate(-7.28 -7.06)"/><path class="cls-6" d="M331.65,189.78a.14.14,0,0,1-.09,0Z" transform="translate(-7.28 -7.06)"/><path class="cls-6" d="M335.08,193.17l-.09,0,0-.09Z" transform="translate(-7.28 -7.06)"/><path class="cls-6" d="M333.68,189.19s0,0,0,0Z" transform="translate(-7.28 -7.06)"/><path class="cls-6" d="M331.52,189.79h0Z" transform="translate(-7.28 -7.06)"/><path class="cls-6" d="M335,193.12a16.07,16.07,0,0,1,.56-1.51c.34.24.68.47,1,.7a1.74,1.74,0,0,1-.58.46c-.32.15-.63.28-1,.4Z" transform="translate(-7.28 -7.06)"/><path class="cls-6" d="M331.52,189.79h0Z" transform="translate(-7.28 -7.06)"/><path class="cls-6" d="M336.61,189.59a2.07,2.07,0,0,0-1.77-.76,2,2,0,0,1,2.74-.72c-.13.17-.25.35-.37.53a1.89,1.89,0,0,1-.31-.25,1.23,1.23,0,0,0,.1.56C336.86,189.16,336.73,189.37,336.61,189.59Z" transform="translate(-7.28 -7.06)"/><path class="cls-6" d="M324.21,188.79a27.42,27.42,0,0,0-5.78-3.67,8,8,0,0,1,2.06.7,18.79,18.79,0,0,1,3.75,1.37,1.69,1.69,0,0,1,1,1.34A2.12,2.12,0,0,0,324.21,188.79Z" transform="translate(-7.28 -7.06)"/><path class="cls-6" d="M329.16,189.79h0Z" transform="translate(-7.28 -7.06)"/><path class="cls-6" d="M352.2,192.79a14.38,14.38,0,0,0,2.16-.08l-.3.14A1.86,1.86,0,0,1,352.2,192.79Z" transform="translate(-7.28 -7.06)"/><path class="cls-6" d="M360.62,189.59a10.73,10.73,0,0,0-1.38-2.45,3.57,3.57,0,0,0-.07-.56,1.67,1.67,0,0,1,2,1A1.69,1.69,0,0,1,360.62,189.59Z" transform="translate(-7.28 -7.06)"/><path class="cls-6" d="M358.89,186.69a12.25,12.25,0,0,0-1.65-1.65,2,2,0,0,1,1.26-.16,4.9,4.9,0,0,1,.57,1.25,3.63,3.63,0,0,1,.1.45h0Z" transform="translate(-7.28 -7.06)"/><path class="cls-6" d="M357.37,191.44a4.93,4.93,0,0,1-3,1.27l2.92-1.4.31-.15A1.42,1.42,0,0,1,357.37,191.44Z" transform="translate(-7.28 -7.06)"/><path class="cls-6" d="M361.16,187.57a1.67,1.67,0,0,0-2-1,3.63,3.63,0,0,0-.1-.45,4.9,4.9,0,0,0-.57-1.25l.16,0c2.93.88,4.16,4.23,3.27,7a5.38,5.38,0,0,1-.43,1,3.16,3.16,0,0,1-.25-.89,9.74,9.74,0,0,0-.63-2.47A1.69,1.69,0,0,0,361.16,187.57Z" transform="translate(-7.28 -7.06)"/><path class="cls-6" d="M356.06,186.4a2.11,2.11,0,0,1,1.18-1.36,12.25,12.25,0,0,1,1.65,1.65c-.91.35-1.79.77-2.67,1.21A1.91,1.91,0,0,1,356.06,186.4Z" transform="translate(-7.28 -7.06)"/><path class="cls-6" d="M359.17,186.58a3.57,3.57,0,0,1,.07.56c-.11-.16-.23-.3-.35-.45l.27-.11Z" transform="translate(-7.28 -7.06)"/><path class="cls-6" d="M337.21,188.64a2.11,2.11,0,0,0-.21.31,1.23,1.23,0,0,1-.1-.56A1.89,1.89,0,0,0,337.21,188.64Z" transform="translate(-7.28 -7.06)"/><path class="cls-6" d="M339,190.57a3.41,3.41,0,0,1-1.64-1.06A1.74,1.74,0,0,1,337,189a2.11,2.11,0,0,1,.21-.31,2,2,0,0,0,.51.24,1.79,1.79,0,0,0,.19.42A7.29,7.29,0,0,0,339,190.57Z" transform="translate(-7.28 -7.06)"/><path class="cls-6" d="M302,184.8a2.15,2.15,0,0,0-2.76,2,.77.77,0,0,1,0,.15,1.93,1.93,0,0,0-1.51.8,2.15,2.15,0,0,0,.16,2.84,23.88,23.88,0,0,0,2.39,1.78,1.92,1.92,0,0,1-1.35,1.73,1.78,1.78,0,0,1-1.92-.69,2.13,2.13,0,0,1-1.92-1.46c-2.95-7.27-4.64-16.94,3.05-21.95,3.43-2.24,7.8-2.76,11.8-2.57a34.29,34.29,0,0,1,9.88,2,14.7,14.7,0,0,1,1.39-6.77c2.95-6.29,10.77-8.89,17-6.11a12.07,12.07,0,0,1,6.94,10.88,19.44,19.44,0,0,1,6-1.59,18.36,18.36,0,0,1,17.05,7.75,19.7,19.7,0,0,1,1.89,18.25,2.19,2.19,0,0,1-1.81,1.51l-.45,1.49a2,2,0,0,1-1.59,1.37,1.9,1.9,0,0,1-1.9-.91c-.11-.26-.22-.52-.34-.77l-.12-.25s-.05-.09-.07-.14a2.1,2.1,0,0,1-2.36-1.2,5.38,5.38,0,0,0,.43-1c.89-2.79-.34-6.14-3.27-7l-.16,0A9,9,0,0,0,353,181.5a14.55,14.55,0,0,0-4.91-.27,15.52,15.52,0,0,0-11,1.05,17.55,17.55,0,0,1,16.44-4,16.93,16.93,0,0,1,11.23,10.45,1.65,1.65,0,0,1,.32.18l.37-.16c.17-.67.33-1.34.5-2a2,2,0,0,1,1.38-1.41A15.35,15.35,0,0,0,362,173a14.88,14.88,0,0,0-18.06.15,2.16,2.16,0,0,1-3.37-2.6,8.14,8.14,0,0,0-1-7.56,8,8,0,0,0-7.2-3.25c-6.33.39-9.54,7.11-7.46,12.68.72,1.9-1.65,3.2-3.17,2.44a29.3,29.3,0,0,0-11.25-3.06c-3.28-.2-6.87,0-9.76,1.73-4.33,2.59-4.39,7.6-3.33,12.2a11.7,11.7,0,0,1,2.89-3.4,13.65,13.65,0,0,1,1.26-.89,2.25,2.25,0,0,0-.12,2.26A10.89,10.89,0,0,0,302,184.8Z" transform="translate(-7.28 -7.06)"/><path class="cls-6" d="M336.3,182.73a9.05,9.05,0,0,1,.8-.45,16.48,16.48,0,0,0-1.29,1.22,21.3,21.3,0,0,0-3.12,4.2A7.45,7.45,0,0,1,336.3,182.73Z" transform="translate(-7.28 -7.06)"/><path class="cls-6" d="M304.06,184.85c-2.38,1.33-4.75,4.13-3.8,7a1.36,1.36,0,0,1,.07.53,23.88,23.88,0,0,1-2.39-1.78,2.15,2.15,0,0,1-.16-2.84,1.93,1.93,0,0,1,1.51-.8.77.77,0,0,0,0-.15,2.15,2.15,0,0,1,2.76-2,10.89,10.89,0,0,1-.66-1.09,2.25,2.25,0,0,1,.12-2.26,14.31,14.31,0,0,1,1.49-.81c.45-.08.91-.14,1.36-.19a4.72,4.72,0,0,1,2.72-.7,27.85,27.85,0,0,1,5.89,1.31c1.73.44,3.4,1.2,3.77,3.11l.5.44a19.66,19.66,0,0,0-3.55-1A14.33,14.33,0,0,0,304.06,184.85Z" transform="translate(-7.28 -7.06)"/><path class="cls-6" d="M302.59,180.71l.39-.07a14.31,14.31,0,0,0-1.49.81A1.81,1.81,0,0,1,302.59,180.71Z" transform="translate(-7.28 -7.06)"/></g><g id="Layer_6" data-name="Layer 6"><path class="cls-3" d="M391.8,115.57A96.2,96.2,0,0,0,339.39,80a83.79,83.79,0,0,0-61.28,7.54,74.88,74.88,0,0,0-25.88,23.2c-1.5,2.19,2,4.17,3.52,2.06C267.37,96.62,285.6,86,305.11,82.68c20.07-3.46,40.74,1.55,57.9,12.23a99.2,99.2,0,0,1,25.46,23.22C389.94,120,393.22,117.51,391.8,115.57Z" transform="translate(-7.28 -7.06)"/></g></svg>