<svg id="Layer_5" data-name="Layer 5" xmlns="http://www.w3.org/2000/svg" viewBox="0 0 747.36 306.11"><defs><style>.cls-1{fill:#9187ff;}.cls-2{fill:#87f8ff;}.cls-3{fill:#8aff87;}.cls-4{fill:#fff587;}.cls-5{fill:#ffa887;}.cls-6{fill:#ff87e8;}</style></defs><path class="cls-1" d="M824.26,30.32c1.84,3.58,2.17,8.09,0,11.63-2,3.29-5.89,5.59-9.78,5a1,1,0,0,0-1.16,1.5c.58,1.15-1,2.18-2.19,2.73a155.12,155.12,0,0,0-27.73-39.88,15.74,15.74,0,0,1,3-1,9.4,9.4,0,0,1,4.5-.17c1.38.46,1.91,2,2.47,3.23.68,1.43,1.38,2.84,2.12,4.24A101.34,101.34,0,0,0,805.7,33.08c.54.69,1.48.18,1.74-.45,1.26-3.16,3-7.27,6.49-8.46C818.31,22.68,822.44,26.77,824.26,30.32Zm-5.38,10.07a5.67,5.67,0,0,0-4.85-9.8,1,1,0,0,0-.76,1.16,1.27,1.27,0,0,0,.06.18,5.26,5.26,0,0,0-3,3.52,4.9,4.9,0,0,0,2.47,5.49A5.29,5.29,0,0,0,818.88,40.39Z" transform="translate(-80.52 -7.9)"/><path d="M818.88,40.39a5.29,5.29,0,0,1-6.12.55,4.9,4.9,0,0,1-2.47-5.49,5.26,5.26,0,0,1,3-3.52,1.27,1.27,0,0,1-.06-.18,1,1,0,0,1,.76-1.16,5.67,5.67,0,0,1,4.85,9.8Zm-3-7.61a.83.83,0,0,1-.81.58,3,3,0,0,0-2,1,3.47,3.47,0,0,0-.93,2.07,3,3,0,0,0,2.18,3,3.28,3.28,0,0,0,1.92.12,2.93,2.93,0,0,0,1.6-1.08l.28-.44.15-.3,0-.07a0,0,0,0,1,0,0c.07-.19.14-.39.19-.58s0-.15,0-.22,0-.15,0-.2a3.18,3.18,0,0,0,0-.62,1.62,1.62,0,0,0,0-.22s0-.17,0-.2a3.89,3.89,0,0,0-.12-.49l-.09-.27a0,0,0,0,1,0,0l0-.07A3.77,3.77,0,0,0,815.9,32.78Z" transform="translate(-80.52 -7.9)"/><path class="cls-2" d="M791.58,38.74a1,1,0,0,0-.36-1.35A3.21,3.21,0,0,0,787,38.45c-1.08,1.47-.75,3.54-.12,5.12a1,1,0,0,0,.9.68,3.94,3.94,0,0,0,3.83-5.08,1.2,1.2,0,0,0-.16-.27A.7.7,0,0,0,791.58,38.74Zm-1.24,6.63a.93.93,0,0,0-.1.84,4.37,4.37,0,0,0-3.69,4.36c-.06,2.64,2.34,4.37,4.82,4.38a6.09,6.09,0,0,0,3.5-1.11c1.16-.84,1.88-2.32,3.14-3s1.92.36,2.06,1.48a5.15,5.15,0,0,1-1.24,3.7c-3.68,4.72-10.8,4.31-14.69.18-4.7-5-4.13-12.42-.51-17.84,1.71-2.55,5.47-7.16,8.45-3.59C794.82,38.06,792.2,42.37,790.34,45.37Z" transform="translate(-80.52 -7.9)"/><path d="M786.87,43.57c-.63-1.58-1-3.65.12-5.12a3.21,3.21,0,0,1,4.23-1.06,1,1,0,0,1,.36,1.35.7.7,0,0,1-.14.16,1.2,1.2,0,0,1,.16.27,3.94,3.94,0,0,1-3.83,5.08A1,1,0,0,1,786.87,43.57Zm2.83-4.64s-.19,0-.13,0h0l-.18.06-.06,0-.13,0c-.11.06-.21.14-.31.2l0,0-.15.14-.12.13,0,0a3.65,3.65,0,0,0-.18.34l-.05.13-.07.25,0,.2s0,.11,0,.15a4.51,4.51,0,0,0,0,.52c0,.07,0,.14,0,.21s0,.12,0,.15.07.35.11.52l.09.29.16,0,0,0,.08,0a2.49,2.49,0,0,0,.28-.15l.13-.09,0,0a2.5,2.5,0,0,0,.23-.23.43.43,0,0,0,.11-.12s.06-.07.08-.09,0,0,0,0l.1-.17c.06-.09.1-.19.15-.28l.06-.14c0-.11.06-.21.08-.31a.44.44,0,0,1,0-.1v-.07c0-.11,0-.21,0-.32v0c0-.05,0-.12,0-.14s-.06-.21-.1-.31A.75.75,0,0,1,790,39l-.09,0h-.17Z" transform="translate(-80.52 -7.9)"/><path d="M793.45,13.38c-.56-1.2-1.09-2.77-2.47-3.23a9.4,9.4,0,0,0-4.5.17,15.74,15.74,0,0,0-3,1,155.12,155.12,0,0,1,27.73,39.88c1.18-.55,2.77-1.58,2.19-2.73a1,1,0,0,1,1.16-1.5c3.89.6,7.8-1.7,9.78-5,2.12-3.54,1.79-8.05,0-11.63s-6-7.64-10.33-6.15c-3.5,1.19-5.23,5.3-6.49,8.46-.26.63-1.2,1.14-1.74.45a101.34,101.34,0,0,1-10.13-15.46C794.83,16.22,794.13,14.81,793.45,13.38Zm34.4,22.1c.51,7.16-5.21,13.72-12.34,13.56-.11,2.13-2.58,3.69-4.55,4.41a1,1,0,0,1-1.14-.46,154.72,154.72,0,0,0-28.39-41l0,0a1,1,0,0,1-.33-1.87A17.09,17.09,0,0,1,790.33,8c3.35.29,4.32,3.16,5.61,5.8a99.61,99.61,0,0,0,10.23,16.56c1.33-3.09,3.11-6.26,6.2-7.74C820.29,18.78,827.36,28.53,827.85,35.48Z" transform="translate(-80.52 -7.9)"/><path d="M792.08,34.76c-3-3.57-6.74,1-8.45,3.59-3.62,5.42-4.19,12.84.51,17.84,3.89,4.13,11,4.54,14.69-.18a5.15,5.15,0,0,0,1.24-3.7c-.14-1.12-.84-2.16-2.06-1.48s-2,2.17-3.14,3a6.09,6.09,0,0,1-3.5,1.11c-2.48,0-4.88-1.74-4.82-4.38a4.37,4.37,0,0,1,3.69-4.36.93.93,0,0,1,.1-.84C792.2,42.37,794.82,38.06,792.08,34.76Zm9.3,15c1.75,2.36.75,5.58-.9,7.66a11.74,11.74,0,0,1-8.05,4.16c-6.91.66-12.58-5.14-13.63-11.67a17.28,17.28,0,0,1,1.74-10.38,20.91,20.91,0,0,1,3.16-4.64,11,11,0,0,1,4.24-3.31c3.15-1.12,6.1,1.37,7.07,4.25,1.25,3.73-1,7.52-2.9,10.58a1,1,0,0,1-.45.39c.34.67.06,1.64-.89,1.57-1.51-.11-2.51,1.78-1.9,3.1.76,1.65,3.19,1.58,4.52.78,1.56-.94,2.31-2.82,4.06-3.54A3.26,3.26,0,0,1,801.38,49.76Z" transform="translate(-80.52 -7.9)"/><path class="cls-3" d="M772.46,47.33c2.58,5.14,7.66,14.06,2.26,19.13-3.47,3.25-10,2.18-12.13-2.07-.54-1.07-2.39-.32-2,.83.86,2.3,1.9,4.86,1.49,7.36-.3,1.8-1.48,3.79-3.41,4.11-2.18.37-4.76-1-6.56-2.1a27.79,27.79,0,0,1-5-3.85A103.31,103.31,0,0,1,738.56,61a117,117,0,0,1-8.25-11.17,52.4,52.4,0,0,1-6.43-14,1,1,0,0,0-.21-.39,12.72,12.72,0,0,1,11.22-3,82.68,82.68,0,0,0,6,18.46,82.05,82.05,0,0,0,4.68,8.72c1.46,2.34,3,5.33,5.65,6.54a3.44,3.44,0,0,0,5-2.86c.16-2.61-1.87-4.54-2.07-7-.07-.93.17-2,1.33-1.79,1,.16,1.82,1.08,2.58,1.61,1.65,1.15,4.11,1.74,5.41-.28s.31-4.68-.59-6.62c-1.57-3.34-3.16-6.67-4.73-10s-3.15-6.66-4.73-10c-1.35-2.86-3.59-6.45-2.29-9.7A3.49,3.49,0,0,1,754,17.15a4.65,4.65,0,0,1,3.49,1.76c2.12,2.21,3.3,5.25,4.66,8Z" transform="translate(-80.52 -7.9)"/><path d="M762.59,64.39c2.13,4.25,8.66,5.32,12.13,2.07,5.4-5.07.32-14-2.26-19.13L762.17,26.86c-1.36-2.7-2.54-5.74-4.66-7.95A4.65,4.65,0,0,0,754,17.15a3.49,3.49,0,0,0-2.87,2.38c-1.3,3.25.94,6.84,2.29,9.7q2.37,5,4.73,10c1.57,3.33,3.16,6.66,4.73,10,.9,1.94,1.88,4.61.59,6.62s-3.76,1.43-5.41.28c-.76-.53-1.63-1.45-2.58-1.61-1.16-.2-1.4.86-1.33,1.79.2,2.49,2.23,4.42,2.07,7a3.44,3.44,0,0,1-5,2.86C748.59,65,747,62,745.57,59.66a82.05,82.05,0,0,1-4.68-8.72,82.68,82.68,0,0,1-6-18.46,12.72,12.72,0,0,0-11.22,3,1,1,0,0,1,.21.39,52.4,52.4,0,0,0,6.43,14A117,117,0,0,0,738.56,61a103.31,103.31,0,0,0,8.59,9.74,27.79,27.79,0,0,0,5,3.85c1.8,1.07,4.38,2.47,6.56,2.1,1.93-.32,3.11-2.31,3.41-4.11.41-2.5-.63-5.06-1.49-7.36C760.2,64.07,762.05,63.32,762.59,64.39Zm1.52,9.1a7,7,0,0,1-3.9,4.92c-2.26.93-4.73.08-6.84-.85a25.05,25.05,0,0,1-5.89-3.75c-3.83-3.19-7-7.18-10.1-11-6.42-7.85-12.51-16.25-15.29-26.14a1.14,1.14,0,0,1-.82-1.88,14.9,14.9,0,0,1,14.83-4.23,1.06,1.06,0,0,1,.76.76,80.68,80.68,0,0,0,7.85,22.5c.89,1.68,1.83,3.34,2.84,5a23.09,23.09,0,0,0,3.2,4.5c.55.53,1.42,1.29,2.26,1.2s1.15-1,1.08-1.75c-.14-1.47-1-2.7-1.54-4.05-.74-1.95-1-4.83,1.2-6s4.12.82,5.88,1.91c.88.55,2,.8,2.29-.54a6.08,6.08,0,0,0-.66-3.31c-1.56-3.6-3.36-7.11-5-10.66l-5-10.67c-1.39-2.94-3-6.12-2.36-9.47a5.86,5.86,0,0,1,5-4.92c2.65-.19,4.76,1.71,6.25,3.68,2.1,2.79,3.46,6.19,5,9.3l5.37,10.68c1.76,3.5,3.56,7,5.28,10.51a32.28,32.28,0,0,1,3.12,8.71c.87,5.25-1.15,10.85-6.73,12.24A10.9,10.9,0,0,1,764.05,69,10.51,10.51,0,0,1,764.11,73.49Z" transform="translate(-80.52 -7.9)"/><path d="M704,84.6h0a0,0,0,0,0,0,0Z" transform="translate(-80.52 -7.9)"/><path d="M704,84.67s0,0,0,0h0Z" transform="translate(-80.52 -7.9)"/><path d="M704.35,88.57A3.62,3.62,0,0,1,702,84.18a3,3,0,0,1,.78-1.34,3.46,3.46,0,0,1,3.28-.81,3.16,3.16,0,0,1,2.43,2.29,1,1,0,0,1-.29,1,1.12,1.12,0,0,1-.08.26,7.39,7.39,0,0,1-1.36,1.83,7.28,7.28,0,0,1-1,.79c-.14.1-.29.19-.44.28a1.34,1.34,0,0,1-.66.18A1.48,1.48,0,0,1,704.35,88.57Zm-.37-4v0h0s0,.05,0,.05,0,0,0,0a.65.65,0,0,0,0,.13s0,.07,0,.1,0,.09,0,.14a1.77,1.77,0,0,0,0,.23v0a3.25,3.25,0,0,0,.11.42.25.25,0,0,0,0,.07l.07.15.14.22,0,0,.27.28.05,0,.07,0,.39-.22.16-.12.06,0,.32-.27a6,6,0,0,0,.6-.64h0l0,0,.13-.19c.07-.1.13-.21.19-.31l-.07-.11s0,0,0,0a1.37,1.37,0,0,0-.17-.17l-.08-.07h0l-.14-.1-.17-.1h0l-.07,0h0a3,3,0,0,0-.43-.12h-.46l-.27.06-.07,0-.08,0-.17.11,0,0-.13.14,0,.06-.09.16Z" transform="translate(-80.52 -7.9)"/><path class="cls-4" d="M702.79,82.84a3,3,0,0,0-.78,1.34l-1.5-.46c.75-2.25,2.23-4.36,4.61-5a6.1,6.1,0,0,1,7.11,3.8,6.21,6.21,0,0,1-3.12,7.09,1.14,1.14,0,0,0-.7-.13,3.41,3.41,0,0,0-1.84.9l-1.87-1.79a1.34,1.34,0,0,0,.66-.18c.15-.09.3-.18.44-.28a7.28,7.28,0,0,0,1-.79,7.39,7.39,0,0,0,1.36-1.83,1.12,1.12,0,0,0,.08-.26,1,1,0,0,0,.29-1A3.16,3.16,0,0,0,706.07,82,3.46,3.46,0,0,0,702.79,82.84Z" transform="translate(-80.52 -7.9)"/><path class="cls-4" d="M702,84.18a3.62,3.62,0,0,0,2.34,4.39,1.48,1.48,0,0,0,.35.05l1.87,1.79a4.21,4.21,0,0,0-.93,4.75c1.23,2.49,4.48,3.12,6.82,1.94a6.78,6.78,0,0,0,2.9-3c.49-1,.85-3.58,2.32-2.25a4.51,4.51,0,0,1,.87,4.41,6,6,0,0,1-3,3.62c-5.63,3-11.7-1.2-14.17-6.27a13.51,13.51,0,0,1-1.23-8.34,11.09,11.09,0,0,1,.41-1.55Z" transform="translate(-80.52 -7.9)"/><path class="cls-5" d="M700.6,104.47c.34,1.46-.11,3.63-1.82,4-2.64.62-4.17-4.2-5.21-5.81-1.61-2.5-4-5.26-6.82-6.36-2.62-1-6.44.35-6.08,3.65a5.85,5.85,0,0,0,1.77,3.2,11.41,11.41,0,0,1,1.6,1.91c-3,0-6.39,1.61-8.67-.89A38.06,38.06,0,0,1,671.82,99c-.57-.89-1.11-1.81-1.67-2.71v0c-1-3-3.69-4.82-5.24-7.51-.89-1.54-1.26-4.59.51-5.6,2.26,3.06,4.52,6.13,6.79,9.18.68.91,1.37,1.9,2.64,1.86S676.91,93,677.48,92a5.35,5.35,0,0,1,2.3-2.68,7,7,0,0,1,3.68-.43c3,.36,5.73,2.09,8,4a40.41,40.41,0,0,1,7,7.63A11.36,11.36,0,0,1,700.6,104.47Z" transform="translate(-80.52 -7.9)"/><path d="M702,78a8,8,0,0,1,8.7-.4c4.66,2.64,4.81,8.74,1.56,12.17a7.81,7.81,0,0,1-3.31,2.06.9.9,0,0,1-.59,0c-1.31.74-1,2.81.46,3.47,2,.86,3.86-.56,4.72-2.28a14.77,14.77,0,0,1,1.4-2.91,2.37,2.37,0,0,1,1.72-.86c1.87-.14,3.28,1.51,3.89,3.11a7.75,7.75,0,0,1-3.28,9,11,11,0,0,1-9.87.85c-6-2.35-10-9.19-9.52-15.58C698.05,83.41,699.28,80,702,78Zm16.6,18.25a4.51,4.51,0,0,0-.87-4.41c-1.47-1.33-1.83,1.29-2.32,2.25a6.78,6.78,0,0,1-2.9,3c-2.34,1.18-5.59.55-6.82-1.94a4.21,4.21,0,0,1,.93-4.75,3.41,3.41,0,0,1,1.84-.9,1.14,1.14,0,0,1,.7.13,6.21,6.21,0,0,0,3.12-7.09,6.1,6.1,0,0,0-7.11-3.8c-2.38.61-3.86,2.72-4.61,5a11.09,11.09,0,0,0-.41,1.55,13.51,13.51,0,0,0,1.23,8.34c2.47,5.07,8.54,9.29,14.17,6.27A6,6,0,0,0,718.55,96.26Z" transform="translate(-80.52 -7.9)"/><path class="cls-6" d="M684.72,115.49c.11,4-4.29,7.19-7.27,9.07-3.41,2.14-7.08,2.54-10.57.37-3.17-2-5.5-5.15-7.58-8.19-.53-.76-2.07-.59-1.95.53a2.22,2.22,0,0,1-2.23,2.47,3.36,3.36,0,0,1-3-2.59c-.63-2.41,1.05-4.79,3.13-5.8a1,1,0,0,0,.2-1.57,39.68,39.68,0,0,1-9.26-15A3.93,3.93,0,0,1,648.91,93l4,6.45a44.84,44.84,0,0,0,3.94,6.11,3.78,3.78,0,0,0,4.88,1.06c.85-.45,1.64-1.29,2.56-.57a8.91,8.91,0,0,1,2.1,2.74,2.81,2.81,0,0,1,.16,2.84c-.53.77-1.63.65-2.34,1.21-1.61,1.3-.25,3.57.73,4.83,2.21,2.81,6.44,4.52,9.76,2.57a6.56,6.56,0,0,0,2.58-8.48A4.75,4.75,0,0,1,684.72,115.49Z" transform="translate(-80.52 -7.9)"/><path d="M693.57,102.7c1,1.61,2.57,6.43,5.21,5.81,1.71-.41,2.16-2.58,1.82-4a11.36,11.36,0,0,0-2.14-4,40.41,40.41,0,0,0-7-7.63c-2.3-1.87-5-3.6-8-4a7,7,0,0,0-3.68.43,5.35,5.35,0,0,0-2.3,2.68c-.57,1-1.36,2.15-2.63,2.19s-2-1-2.64-1.86c-2.27-3-4.53-6.12-6.79-9.18-1.77,1-1.4,4.06-.51,5.6,1.55,2.69,4.21,4.49,5.24,7.51v0c.56.9,1.1,1.82,1.67,2.71a38.06,38.06,0,0,0,3.55,5.22c2.28,2.5,5.63.93,8.67.89a11.41,11.41,0,0,0-1.6-1.91,5.85,5.85,0,0,1-1.77-3.2c-.36-3.3,3.46-4.66,6.08-3.65C689.6,97.44,692,100.2,693.57,102.7Zm7.38,7c-2.22,1.85-4.93.74-6.5-1.33a30.84,30.84,0,0,1-2.06-3.52,18.77,18.77,0,0,0-3.12-4.13c-1.17-1.16-2.84-2.78-4.64-2.67-1.46.1-2.28,1.3-1.54,2.57,1.15,2,3.41,3.11,3.41,5.68a1.06,1.06,0,0,1-1.33,1c-2.06-.55-4.14.29-6.21.36a6.18,6.18,0,0,1-4.75-1.78,29.26,29.26,0,0,1-3.57-5.09c-1.28-2-2.53-4-3.74-6.1-1.72-2.21-3.94-4.13-4.6-6.89s.11-6.23,3.2-7a1.1,1.1,0,0,1,1.18.49l4.11,5.55c.69.93,1.37,1.86,2.06,2.78.33.44,1.36,2.4,1.95,2.4.43,0,1-1.39,1.15-1.7a7.58,7.58,0,0,1,1.16-1.71,6.4,6.4,0,0,1,3.56-1.8c5.9-1,11.48,3.26,15.3,7.26C699.2,97.51,706.35,105.19,701,109.7Z" transform="translate(-80.52 -7.9)"/><path d="M655.12,119.74a2.22,2.22,0,0,0,2.23-2.47c-.12-1.12,1.42-1.29,1.95-.53,2.08,3,4.41,6.21,7.58,8.19,3.49,2.17,7.16,1.77,10.57-.37,3-1.88,7.38-5.1,7.27-9.07a4.75,4.75,0,0,0-7.47-3.7,6.56,6.56,0,0,1-2.58,8.48c-3.32,2-7.55.24-9.76-2.57-1-1.26-2.34-3.53-.73-4.83.71-.56,1.81-.44,2.34-1.21a2.81,2.81,0,0,0-.16-2.84,8.91,8.91,0,0,0-2.1-2.74c-.92-.72-1.71.12-2.56.57a3.78,3.78,0,0,1-4.88-1.06,44.84,44.84,0,0,1-3.94-6.11l-4-6.45a3.93,3.93,0,0,0-2.68,1.79,39.68,39.68,0,0,0,9.26,15,1,1,0,0,1-.2,1.57c-2.08,1-3.76,3.39-3.13,5.8A3.36,3.36,0,0,0,655.12,119.74Zm12.35-2.43a5.91,5.91,0,0,0,4.76,1.58c2.74-.45,4.81-4.26,2.82-6.56a1.12,1.12,0,0,1,0-1.53,7,7,0,0,1,10.36.57c2.44,3.14,1.51,7-.82,9.92a21.74,21.74,0,0,1-9.62,6.79c-6.91,2.18-12.29-3.17-16.12-8.36a4.41,4.41,0,0,1-2.59,2,5.06,5.06,0,0,1-5.26-2.17c-2.19-3.07-.63-7.21,2.23-9.25a39.44,39.44,0,0,1-8.51-14.34,1.13,1.13,0,0,1-.71-1.59,6.35,6.35,0,0,1,5.45-3.48,1,1,0,0,1,.92.52l4.21,6.83,2,3.31a15.49,15.49,0,0,0,1.94,2.84c1.58,1.58,2.83-.43,4.52-.7s2.85,1,3.8,2.19a7.72,7.72,0,0,1,2.09,4.72,3.89,3.89,0,0,1-2.13,3.53c-.26.12-.93.18-1.11.36s0,.57.17.89A6.93,6.93,0,0,0,667.47,117.31Z" transform="translate(-80.52 -7.9)"/><path class="cls-1" d="M632,145.77c.8,1.24,1.06,2.35.07,3.55a8.2,8.2,0,0,1-2.25,1.79l-6.39-11.56a1,1,0,0,0-1.85.25c-.26,1.06-1.74.89-2.41.31a5.06,5.06,0,0,1-1.34-2.7,6.06,6.06,0,0,0,2.08-2,1,1,0,0,0-.36-1.37c-5.27-3.67-11.18-9.12-9.87-16.26a7.21,7.21,0,0,1,5.22-6,6.77,6.77,0,0,1,5.07.69c.58,1,1.33,2.26.81,3.34-.67,1.37-1.53.38-2.34-.16a3.58,3.58,0,0,0-4.47.5c-3.32,3.06-.18,7.87,2.08,10.5a21.73,21.73,0,0,0,4.59,4c1.33.88,3.45,2.36,4.86.82.45-.49.59-1.79,1.2-2,.91-.35,2,1,2.32,1.66,1,1.73.92,4.94-1.72,5a1,1,0,0,0-.89,1.55C628.23,140.31,630.17,143,632,145.77Z" transform="translate(-80.52 -7.9)"/><path class="cls-2" d="M615.18,145.9c3.38,2.93,5.83,8.22,3.21,12.43-1.94,3.11-6.17,4.21-9.61,3.51-4.2-.85-7.11-4.4-8.38-8.34a18.24,18.24,0,0,1-.77-7.3c.14-1.41.7-3.46,1.92-4.4a1,1,0,0,0,1.88-.07.9.9,0,0,1,.29-.47.91.91,0,0,0,.23-.15c1.18-.57,3.87.68,4.64,1A23.06,23.06,0,0,1,615.18,145.9Zm-5.26,8.8a3.34,3.34,0,0,0,1.54-3.7,3.73,3.73,0,0,0-3.53-2.88,1.12,1.12,0,0,0-.58.22.82.82,0,0,0-.38,0,3.55,3.55,0,0,0-2.43,2.83,3.4,3.4,0,0,0,1.53,3.58A3.94,3.94,0,0,0,609.92,154.7Z" transform="translate(-80.52 -7.9)"/><path d="M609.64,117.74c-1.31,7.14,4.6,12.59,9.87,16.26a1,1,0,0,1,.36,1.37,6.06,6.06,0,0,1-2.08,2,5.06,5.06,0,0,0,1.34,2.7c.67.58,2.15.75,2.41-.31a1,1,0,0,1,1.85-.25l6.39,11.56a8.2,8.2,0,0,0,2.25-1.79c1-1.2.73-2.31-.07-3.55-1.79-2.77-3.73-5.46-5.59-8.19a1,1,0,0,1,.89-1.55c2.64,0,2.7-3.24,1.72-5-.35-.62-1.41-2-2.32-1.66-.61.24-.75,1.54-1.2,2-1.41,1.54-3.53.06-4.86-.82a21.73,21.73,0,0,1-4.59-4c-2.26-2.63-5.4-7.44-2.08-10.5a3.58,3.58,0,0,1,4.47-.5c.81.54,1.67,1.53,2.34.16.52-1.08-.23-2.37-.81-3.34a6.77,6.77,0,0,0-5.07-.69A7.21,7.21,0,0,0,609.64,117.74Zm11.49,10.76c.65.45,1.73,1.41,2.56,1.41.5,0,.48-.36.67-.8a3.57,3.57,0,0,1,.48-.85,2.87,2.87,0,0,1,3.56-.54,6.05,6.05,0,0,1,3,3.62c.86,2.47-.11,5.39-2.39,6.39L631.9,142c1,1.46,2.43,3,2.8,4.8.65,3.13-2.41,5.29-4.8,6.55a1,1,0,0,1-1.4-.37q-3.06-5.53-6.1-11.08a3.72,3.72,0,0,1-3.22.47c-2.25-.68-3-3.22-3.51-5.25a1,1,0,0,1,.46-1.13,4.45,4.45,0,0,0,1.44-1,29.72,29.72,0,0,1-7.23-6.92c-3.24-4.62-4.31-12.12.38-16.26a8.73,8.73,0,0,1,9.56-1.19,1,1,0,0,1,1.28.4c.2.34.4.71.58,1.08a6.49,6.49,0,0,1,.83,1.15.73.73,0,0,1-.1.88,3.79,3.79,0,0,1-.34,2.59,3,3,0,0,1-3.95,1.49c-.73-.36-1.34-1.33-2.23-1.21a2.28,2.28,0,0,0-1.67,1.54c-.65,2,1.06,4.35,2.22,5.85A19.77,19.77,0,0,0,621.13,128.5Z" transform="translate(-80.52 -7.9)"/><path d="M606.84,150.54l-.05.05,0,0h0Z" transform="translate(-80.52 -7.9)"/><path d="M609.92,154.7a3.94,3.94,0,0,1-3.85.07,3.4,3.4,0,0,1-1.53-3.58,3.55,3.55,0,0,1,2.43-2.83.82.82,0,0,1,.38,0,1.12,1.12,0,0,1,.58-.22,3.73,3.73,0,0,1,3.53,2.88A3.34,3.34,0,0,1,609.92,154.7Zm-3.43-2.26a.23.23,0,0,0,0,.07,0,0,0,0,1,0,0,0,0,0,0,1,0,0l.07.13.08.11a0,0,0,0,0,0,0l.21.19,0,0,.13.08.12.06c.11,0,.22.07.33.09l.11,0h0a2,2,0,0,0,.35,0h.13a1.87,1.87,0,0,0,.34-.08l.15,0h0l.27-.14.12-.08h0l.24-.21s0,0,0-.05l0,0,.09-.15v0s0,0,0-.06a.24.24,0,0,0,0-.08.64.64,0,0,0,.06-.18.19.19,0,0,0,0-.08s0-.05,0-.07,0-.23,0-.34h0a.75.75,0,0,1,0-.16,2.64,2.64,0,0,1-.1-.3l0,0a.64.64,0,0,0-.08-.14,2.33,2.33,0,0,0-.17-.26l0-.05-.11-.12-.14-.13h0c-.09-.05-.17-.12-.27-.17l-.12-.06a2.42,2.42,0,0,0-.36-.1h-.14a1.35,1.35,0,0,1-.36-.08.45.45,0,0,1-.12.06l-.07,0-.13.06-.17.11-.23.23h0l0,0-.08.12c-.05.09-.1.21-.16.3s0,0,0,0l-.06.17-.09.37c0,.07,0,.14,0,.21s0,.21,0,.31a.51.51,0,0,0,0,.13A1.18,1.18,0,0,0,606.49,152.44Z" transform="translate(-80.52 -7.9)"/><path d="M619.81,160c-2.87,3.83-8.42,5-12.84,3.52-5.15-1.73-8.3-6.87-9.13-12a16.2,16.2,0,0,1,.37-7.92c.71-1.94,2.17-3.94,4.3-4.13,1.5-1,4.18-.35,5.66.2a26.38,26.38,0,0,1,9,5.18C621.2,148.6,623.39,155.26,619.81,160ZM601.55,141.8c-1.22.94-1.78,3-1.92,4.4a18.24,18.24,0,0,0,.77,7.3c1.27,3.94,4.18,7.49,8.38,8.34,3.44.7,7.67-.4,9.61-3.51,2.62-4.21.17-9.5-3.21-12.43a23.06,23.06,0,0,0-6.59-3.8c-.77-.31-3.46-1.56-4.64-1a.91.91,0,0,1-.23.15.9.9,0,0,0-.29.47A1,1,0,0,1,601.55,141.8Z" transform="translate(-80.52 -7.9)"/><path d="M554.59,180.05h0Z" transform="translate(-80.52 -7.9)"/><path d="M560.07,182.65a3.83,3.83,0,0,1-2.25,4.44c-2.12.67-3.79-1.22-4.68-2.87a7.49,7.49,0,0,1-1-3.16,2.57,2.57,0,0,1,2.41-2.92,1.11,1.11,0,0,1,1.06,0C557.41,179.05,559.66,180.43,560.07,182.65Zm-3.55,2.47.22.07H557l.15,0,.06,0,0,0h0l0,0,0,0h0l0,0h0v0a.93.93,0,0,0,.14-.14l.07-.09a.91.91,0,0,0,.11-.16l.07-.15,0,0a0,0,0,0,0,0,0c0-.12.08-.24.11-.37l0-.11s0-.06,0-.08h0a4.47,4.47,0,0,0,0-.52,1.05,1.05,0,0,1,0-.12c0-.05,0-.11,0-.12a3.16,3.16,0,0,0-.12-.37l0,0-.15-.29-.18-.26a.11.11,0,0,0,0-.05l0,0q-.18-.21-.36-.39a5.86,5.86,0,0,0-.67-.57l0,0a.83.83,0,0,1-.43.12,1,1,0,0,1-.95-1v0l-.24-.13h-.31l-.09,0h0l0,0h0l-.07,0h0l0,.05a1.4,1.4,0,0,0-.09.17,2.79,2.79,0,0,0,.29,1.92,9.18,9.18,0,0,0,1.09,1.9s.11.14.13.15a1.51,1.51,0,0,0,.21.23.93.93,0,0,0,.14.14l.14.12a2.55,2.55,0,0,0,.39.24Z" transform="translate(-80.52 -7.9)"/><path class="cls-4" d="M533.81,196a15.65,15.65,0,0,1-2.11-6.94,5.92,5.92,0,0,1,1.15-3.65,1,1,0,0,0,1.89-.25,2.68,2.68,0,0,1,.58-1.14,3.54,3.54,0,0,1,.57,0,.8.8,0,0,0,.87-.94,4.43,4.43,0,0,1,2.34-.15c2.16.45,4.11,2,5.82,3.29,3.37,2.63,6.76,6.62,5.82,11.22-.76,3.72-4.45,5.51-8,5.29C538.73,202.49,535.64,199.39,533.81,196Zm2.31-2.23a3,3,0,0,0,1.24,1.78,3.84,3.84,0,0,0,3.86.18,3.24,3.24,0,0,0,1.63-3.7,3.73,3.73,0,0,0-3.71-2.89,1.09,1.09,0,0,0-.92.65l-.4.19a3.7,3.7,0,0,0-1.39,1.52A3.44,3.44,0,0,0,536.12,193.8Z" transform="translate(-80.52 -7.9)"/><path class="cls-3" d="M543.13,152.68a11.23,11.23,0,0,1,3.2-4.77c2.37,7.12,6.67,13.36,11.3,19.22,2.57,3.25,5.25,6.42,7.82,9.67,1.31,1.65,2.58,3.33,3.79,5a32.56,32.56,0,0,1,3.34,5.17c.84,1.91-2.3,2.48-3.61,2.27a4.33,4.33,0,0,1-3.24-2.16,7.65,7.65,0,0,0-.44-1.08c-.57-1.09-2.23-.32-1.94.82a5.4,5.4,0,0,0,.45,1.2,5.19,5.19,0,0,1-3.61,6.09c-3.83.85-7.41-3.08-9.32-5.9a19.33,19.33,0,0,1-3.49-10.65c0-1.73.46-3.87,2.07-4.82,1.27-.75,3.19-.72,4,.67a.8.8,0,0,0,1,.38l1.36,1.68c.88,1.11,2.43-.45,1.55-1.55l-11.42-14.21C544.31,157.73,542.38,155.47,543.13,152.68Zm12.43,25.42a1.11,1.11,0,0,0-1.06,0,2.57,2.57,0,0,0-2.41,2.92,7.49,7.49,0,0,0,1,3.16c.89,1.65,2.56,3.54,4.68,2.87a3.83,3.83,0,0,0,2.25-4.44C559.66,180.43,557.41,179.05,555.56,178.1Z" transform="translate(-80.52 -7.9)"/><path d="M539.62,191.33h0Z" transform="translate(-80.52 -7.9)"/><path d="M538.12,192.36v0Z" transform="translate(-80.52 -7.9)"/><path d="M538.11,192.39s0,0,0,0h0Z" transform="translate(-80.52 -7.9)"/><path d="M539.17,194.21h.49l.14,0,.31-.09h0l.12-.06c.08-.05.16-.11.24-.15l.12-.12.09-.09a1.82,1.82,0,0,0,.15-.27h0a1.21,1.21,0,0,1,0-.18.51.51,0,0,1,0-.09V193a1.51,1.51,0,0,0,0-.3s0,0,0-.06,0-.1,0-.16l-.06-.18c-.07-.1-.11-.23-.18-.34l-.09-.14-.26-.28-.13-.11c-.08-.06-.16-.1-.24-.15a1.51,1.51,0,0,1-.3,0h-.36l-.2,0h0l-.16.09-.17.11h0a3,3,0,0,0-.31.31h0a1.63,1.63,0,0,0-.11.17,2,2,0,0,0-.13.25h0v0l0,0h0a.14.14,0,0,0,0,.06.76.76,0,0,0-.06.2,1.16,1.16,0,0,0,0,.18c0,.11,0,.22,0,.33h0a.83.83,0,0,1,0,.15s0,.1,0,.15a1.62,1.62,0,0,0,.1.18h0a1.8,1.8,0,0,0,.19.2h0l.09.07.24.12h0l.16,0,.14,0h.13Zm3.68-2.15a3.24,3.24,0,0,1-1.63,3.7,3.84,3.84,0,0,1-3.86-.18,3,3,0,0,1-1.24-1.78,3.44,3.44,0,0,1,.31-2.27,3.7,3.7,0,0,1,1.39-1.52l.4-.19a1.09,1.09,0,0,1,.92-.65A3.73,3.73,0,0,1,542.85,192.06Z" transform="translate(-80.52 -7.9)"/><path class="cls-5" d="M532.8,211.92c-2.06-2.89-4.1-5.79-6.15-8.68l2.41-1.71a26.69,26.69,0,0,0,1.76,2.29c1.22,1.44,2.87,2.77,3.52,4.6C534.73,209.53,534.31,211.94,532.8,211.92Z" transform="translate(-80.52 -7.9)"/><path d="M572.08,182.2c.68,1,1.34,2,2,3.08a4.18,4.18,0,0,1,.92,2.77c-.28,1.69-2.15,2.9-3.7,3.25a7.16,7.16,0,0,1-5.33-.94,7.49,7.49,0,0,1-3.3,5c-3.25,2.08-7.12.46-9.8-1.81a9.34,9.34,0,0,1-.46,6c-1.85,4.3-6.94,6-11.3,5.11-5.07-1.05-8.57-5.6-10.3-10.2-1-2.62-1.64-5.73-.58-8.43a6.39,6.39,0,0,1,3.49-3.56,6.08,6.08,0,0,1,5-1.89c3.06.29,5.78,2.37,8.1,4.25-.25-.65-.48-1.3-.67-2-1-3.48-1.55-8.29,1.32-11.08a5.45,5.45,0,0,1,4.24-1.43c-3-3.67-6-7.34-8.79-11.14-1.68-2.28-2.6-4.93-1.61-7.7.9-2.54,2.86-4.55,4.78-6.36a1.07,1.07,0,0,1,1.77.47,49.22,49.22,0,0,0,7,14.13C560.18,167.59,566.81,174.37,572.08,182.2ZM569,189.29c1.31.21,4.45-.36,3.61-2.27a32.56,32.56,0,0,0-3.34-5.17c-1.21-1.72-2.48-3.4-3.79-5-2.57-3.25-5.25-6.42-7.82-9.67-4.63-5.86-8.93-12.1-11.3-19.22a11.23,11.23,0,0,0-3.2,4.77c-.75,2.79,1.18,5,2.81,7.08L557.36,174c.88,1.1-.67,2.66-1.55,1.55l-1.36-1.68a.8.8,0,0,1-1-.38c-.8-1.39-2.72-1.42-4-.67-1.61,1-2.06,3.09-2.07,4.82a19.33,19.33,0,0,0,3.49,10.65c1.91,2.82,5.49,6.75,9.32,5.9a5.19,5.19,0,0,0,3.61-6.09,5.4,5.4,0,0,1-.45-1.2c-.29-1.14,1.37-1.91,1.94-.82a7.65,7.65,0,0,1,.44,1.08A4.33,4.33,0,0,0,569,189.29Zm-24.05-3.06c-1.71-1.33-3.66-2.84-5.82-3.29a4.43,4.43,0,0,0-2.34.15.8.8,0,0,1-.87.94,3.54,3.54,0,0,0-.57,0,2.68,2.68,0,0,0-.58,1.14,1,1,0,0,1-1.89.25,5.92,5.92,0,0,0-1.15,3.65,15.65,15.65,0,0,0,2.11,6.94c1.83,3.36,4.92,6.46,8.94,6.71,3.54.22,7.23-1.57,8-5.29C551.68,192.85,548.29,188.86,544.92,186.23Z" transform="translate(-80.52 -7.9)"/><path class="cls-5" d="M522.71,197.62c-.67-1.64,1.29-3,2.44-3.77a1.05,1.05,0,0,0,.24-.23,24.26,24.26,0,0,0,3.67,7.91l-2.41,1.71-.67-1-1.71-2.4A12.89,12.89,0,0,1,522.71,197.62Z" transform="translate(-80.52 -7.9)"/><path d="M532.8,211.92c1.51,0,1.93-2.39,1.54-3.5-.65-1.83-2.3-3.16-3.52-4.6a26.69,26.69,0,0,1-1.76-2.29,24.26,24.26,0,0,1-3.67-7.91,1.05,1.05,0,0,1-.24.23c-1.15.78-3.11,2.13-2.44,3.77a12.89,12.89,0,0,0,1.56,2.27l1.71,2.4.67,1C528.7,206.13,530.74,209,532.8,211.92Zm-5.57-19.36a27.7,27.7,0,0,0,5.93,10.76c2.11,2.3,4.59,5.2,2.87,8.46a3.88,3.88,0,0,1-3.09,2.19,2,2,0,0,1-1.94-1.06l-1.8-2.56c-2.44-3.47-4.9-6.93-7.31-10.42-.92-1.34-1.59-2.73-.91-4.34a8,8,0,0,1,3.25-3.3.78.78,0,0,1,1.09.18A1,1,0,0,1,527.23,192.56Z" transform="translate(-80.52 -7.9)"/><path class="cls-5" d="M521.28,188.87l0,0a1,1,0,0,1-.12.23l-.1.17-.11.15a4.12,4.12,0,0,1-.28.31l-.19.17-.14.11c-.13.09-.26.18-.4.26l-.23.11-.11.05a4.11,4.11,0,0,1-.46.15l-.2,0-.09,0h-.55l-.2,0-.13,0a1.9,1.9,0,0,1-.86-.37l-.13-.09a.9.9,0,0,0-.1-.09c-.12-.11-.23-.23-.34-.35l-.08-.11-.09-.13a3.29,3.29,0,0,1-.29-.52l0-.1a2,2,0,0,1-.08-.22c0-.16-.08-.32-.12-.49a.2.2,0,0,0,0-.07c0-.07,0-.14,0-.21a4.87,4.87,0,0,1,0-.54s0,0,0-.07a.2.2,0,0,1,0-.07,2.86,2.86,0,0,1,.07-.28,1.05,1.05,0,0,1,0-.19l.06-.15,0,0a3.26,3.26,0,0,1,.73-1,5.11,5.11,0,0,1,1.28-.83,1.19,1.19,0,0,0,.56.21l.3,0,.07,0a4.42,4.42,0,0,1,.52.14l.06,0,0,0,.24.12a5.07,5.07,0,0,1,.44.28,3.51,3.51,0,0,1,1.06,1.47,4.37,4.37,0,0,1,.12.49s0,.29,0,.35,0,.28,0,.34,0,0,0,0a2.91,2.91,0,0,1-.15.56A.06.06,0,0,0,521.28,188.87Z" transform="translate(-80.52 -7.9)"/><path d="M515.8,187.28s0,0,0,.07a4.87,4.87,0,0,0,0,.54c0,.07,0,.14,0,.21a.2.2,0,0,1,0,.07c0,.17.07.33.12.49a2,2,0,0,0,.08.22l0,.1a3.29,3.29,0,0,0,.29.52l.09.13.08.11c.11.12.22.24.34.35a.9.9,0,0,1,.1.09l.13.09a1.9,1.9,0,0,0,.86.37l.13,0,.2,0h.55l.09,0,.2,0a4.11,4.11,0,0,0,.46-.15l.11-.05.23-.11c.14-.08.27-.17.4-.26l.14-.11.19-.17a4.12,4.12,0,0,0,.28-.31l.11-.15.1-.17a1,1,0,0,0,.12-.23l0,0a.06.06,0,0,1,0,0,2.91,2.91,0,0,0,.15-.56s0,0,0,0,0-.3,0-.34,0-.35,0-.35a4.37,4.37,0,0,0-.12-.49,3.51,3.51,0,0,0-1.06-1.47,5.07,5.07,0,0,0-.44-.28l-.24-.12,0,0-.06,0A4.42,4.42,0,0,0,519,185l-.07,0-.3,0a1.19,1.19,0,0,1-.56-.21,5.11,5.11,0,0,0-1.28.83,3.26,3.26,0,0,0-.73,1l0,0-.06.15a1.05,1.05,0,0,0,0,.19,2.86,2.86,0,0,0-.07.28A.2.2,0,0,0,515.8,187.28Zm7.65-.23a4.88,4.88,0,0,1-7.89,4.54,5.17,5.17,0,0,1-1.58-5c.5-2.16,2.57-3.42,4.56-4a.81.81,0,0,1,1,.42,5,5,0,0,1,2.26,1.16A5.16,5.16,0,0,1,523.45,187.05Z" transform="translate(-80.52 -7.9)"/><path class="cls-6" d="M503.79,205.75a.91.91,0,0,0-1.45.26,13.72,13.72,0,0,1-1.65-1.91,3,3,0,0,1,4.27,1.06c.58,1.16,2.1.27,1.93-.82-.63-4.13,3.57-8,7.58-6.55a6.35,6.35,0,0,1,4,4.17c.27,1,.37,1.85-.82,1.83-1,0-1.93-.31-2.91-.26a3.81,3.81,0,0,0-3.52,2.88,5.7,5.7,0,0,0,1.15,5.06c1.31,1.71,3.22,2.84,4.49,4.58a3.41,3.41,0,0,1,.76,3.21c-.39.87-1.47,1.62-2.31.93a21.91,21.91,0,0,1-2.7-3.34l-2.88-3.65C507.76,210.71,505.81,208.21,503.79,205.75Z" transform="translate(-80.52 -7.9)"/><path d="M498.41,203.47a5.18,5.18,0,0,1,6.51-1.32c.81-4.26,4.88-7.66,9.47-6.6a8.58,8.58,0,0,1,5.47,4.19c.95,1.74,1.69,4.82-.58,5.9-1.74.82-5-1.12-5.93,1-1.2,2.69,2,4.86,3.64,6.42s3.55,4.14,2.65,6.67c-.67,1.87-3,3.48-4.94,2.47-1.26-.64-2.06-2.11-2.9-3.19-.25-.31-.49-.62-.73-.94-.77-1-1.52-1.94-2.28-2.92-1.05-1.35-2.1-2.7-3.13-4.05-.39-.48-.76-1-1.13-1.45a.92.92,0,0,1-1,0,17.1,17.1,0,0,1-5.09-5.11A1,1,0,0,1,498.41,203.47Zm8.48.87c.17,1.09-1.35,2-1.93.82a3,3,0,0,0-4.27-1.06,13.72,13.72,0,0,0,1.65,1.91.91.91,0,0,1,1.45-.26c2,2.46,4,5,5.94,7.45l2.88,3.65a21.91,21.91,0,0,0,2.7,3.34c.84.69,1.92-.06,2.31-.93a3.41,3.41,0,0,0-.76-3.21c-1.27-1.74-3.18-2.87-4.49-4.58a5.7,5.7,0,0,1-1.15-5.06,3.81,3.81,0,0,1,3.52-2.88c1-.05,1.93.24,2.91.26,1.19,0,1.09-.86.82-1.83a6.35,6.35,0,0,0-4-4.17C510.46,196.39,506.26,200.21,506.89,204.34Z" transform="translate(-80.52 -7.9)"/><path d="M493.19,218.34c0,.1-.07.19-.09.29a.17.17,0,0,0,0,.07.28.28,0,0,0,0,.09V219a.13.13,0,0,0,0,.06.43.43,0,0,1,0,.11,3.33,3.33,0,0,0,.25-.28l.17-.19.05-.07a8.51,8.51,0,0,0,.64-1h0l-.17,0-.17.05h0a2.69,2.69,0,0,0-.29.16h0l-.1.09-.13.14-.09.15Zm-1.93,1.3a3.49,3.49,0,0,1,0-1.51,3,3,0,0,1,1-1.74,3.37,3.37,0,0,1,1.61-.75,3.15,3.15,0,0,1,2,.3,1,1,0,0,1,.43,1.19,1,1,0,0,1-.1.66,9.32,9.32,0,0,1-.78,1.46,9.41,9.41,0,0,1-1.82,2.06,1,1,0,0,1-1.33,0A3.17,3.17,0,0,1,491.26,219.64Z" transform="translate(-80.52 -7.9)"/><path class="cls-1" d="M490.17,217.94a6.86,6.86,0,0,1,2.08-3.92c2.26-2,6.14-2.38,8.14.16a1,1,0,0,0,.34.27c-1.33,1.91-2.67,3.82-4,5.73l-1.33-.93a9.32,9.32,0,0,0,.78-1.46,1,1,0,0,0,.1-.66,1,1,0,0,0-.43-1.19,3.15,3.15,0,0,0-2-.3,3.37,3.37,0,0,0-1.61.75,3,3,0,0,0-1,1.74Z" transform="translate(-80.52 -7.9)"/><path class="cls-1" d="M497.86,226.14a6.3,6.3,0,0,0,8.45-6,3.41,3.41,0,0,1,1.85,2,4.59,4.59,0,0,1-.87,4.43,12.67,12.67,0,0,1-4,3.21c-1.75,1-3.79,1.89-5.84,1.51-3.49-.65-5.78-4.29-6.79-7.42a12.53,12.53,0,0,1-.51-5.94l1.06.19a3.49,3.49,0,0,0,0,1.51,3.17,3.17,0,0,0,1,1.67,1,1,0,0,0,1.33,0,9.41,9.41,0,0,0,1.82-2.06l1.33.93c-.08.1-.15.21-.22.31-.73,1-1.67,2.14-1.24,3.49A4,4,0,0,0,497.86,226.14Z" transform="translate(-80.52 -7.9)"/><path d="M506.31,220.14a6.3,6.3,0,0,1-8.45,6,4,4,0,0,1-2.58-2.16c-.43-1.35.51-2.45,1.24-3.49.07-.1.14-.21.22-.31,1.32-1.91,2.66-3.82,4-5.73a1,1,0,0,1-.34-.27c-2-2.54-5.88-2.2-8.14-.16a6.86,6.86,0,0,0-2.08,3.92,12.53,12.53,0,0,0,.51,5.94c1,3.13,3.3,6.77,6.79,7.42,2,.38,4.09-.53,5.84-1.51a12.67,12.67,0,0,0,4-3.21,4.59,4.59,0,0,0,.87-4.43A3.41,3.41,0,0,0,506.31,220.14Zm-1.24-2.33a4.6,4.6,0,0,1,4.08,1.79,6.38,6.38,0,0,1,0,8.09,15.19,15.19,0,0,1-5.35,4.31c-2.26,1.18-4.8,2-7.35,1.33-4.42-1.16-7.27-5.86-8.27-10s-.25-9.35,3.69-11.84c3.19-2,7.74-1.91,10.15,1.2a1,1,0,0,1,1.43.17.78.78,0,0,1,0,1l-3.74,5.55L498,222c-.17.26-.81,1-.72,1.3s.66.54.9.66a4.16,4.16,0,0,0,5.85-4.76A1.1,1.1,0,0,1,505.07,217.81Z" transform="translate(-80.52 -7.9)"/><path class="cls-2" d="M485.57,238.63c-1.6-3.53-3.64-6.94-5.52-10.33s-3.89-6.86-5.91-10.25q-6-10.14-12.7-19.9c3.84-3.38,6.58-8.16,11.19-10.58,2.29-1.2,5.18-1.84,7.6-.64s3.58,3.66,4.67,5.89c2.43,4.94,4.93,11,2.46,16.44-1.15,2.54-3.35,4.11-5.61,5.58a8.52,8.52,0,0,0-2.69,2.1c-.69,1.1-.16,2.27.35,3.32a81.13,81.13,0,0,0,9.71,15.26,9.47,9.47,0,0,0-1.68,1.72A5.62,5.62,0,0,1,485.57,238.63Zm-6.82-25.58c3.47-1.94,4.65-6.07,4-9.81-.63-3.91-4-8.56-8.37-8.33a5,5,0,0,0-4.82,4.53.93.93,0,0,0,.15.54h0a.94.94,0,0,0-.34,1.28q4,5.4,7.45,11.17a.91.91,0,0,0,.7.46A1,1,0,0,0,478.75,213.05Z" transform="translate(-80.52 -7.9)"/><path d="M482.79,203.24c.61,3.74-.57,7.87-4,9.81a1,1,0,0,1-1.21-.15.91.91,0,0,1-.7-.46q-3.45-5.77-7.45-11.17a.94.94,0,0,1,.34-1.28h0a.93.93,0,0,1-.15-.54,5,5,0,0,1,4.82-4.53C478.83,194.68,482.16,199.33,482.79,203.24Zm-11.21-3.8a.94.94,0,0,1-.6.85l0,0c2.54,3.42,4.94,7,7.2,10.55,2.78-2,3.16-5.94,2.05-9a7.76,7.76,0,0,0-4-4.51C474.52,196.64,471.7,197.17,471.58,199.44Z" transform="translate(-80.52 -7.9)"/><path d="M482.86,238.91A1,1,0,0,1,483,238c-1.59-2.87-3.05-5.84-4.65-8.71q-2.88-5.16-5.9-10.25-6.06-10.17-12.68-20a.8.8,0,0,1-.15-.38.84.84,0,0,1-.14-1.41c4.86-4.06,7.84-10.21,14.11-12.44a9.87,9.87,0,0,1,7.4.07,11.6,11.6,0,0,1,5.07,5.42c2.71,5.06,5.23,10.89,4.2,16.75a12.12,12.12,0,0,1-3.66,6.83,24.4,24.4,0,0,1-3.25,2.47c-.56.37-1.14.72-1.69,1.1-.87.6-.82.81-.4,1.71a76.21,76.21,0,0,0,10.22,15.91,1.08,1.08,0,0,1-.47,1.77c-1.1.32-1.69,1.47-2.39,2.29a4.28,4.28,0,0,1-2,1.37A2.82,2.82,0,0,1,482.86,238.91Zm-2.81-10.61c1.88,3.39,3.92,6.8,5.52,10.33a5.62,5.62,0,0,0,1.87-1.39,9.47,9.47,0,0,1,1.68-1.72,81.13,81.13,0,0,1-9.71-15.26c-.51-1-1-2.22-.35-3.32a8.52,8.52,0,0,1,2.69-2.1c2.26-1.47,4.46-3,5.61-5.58,2.47-5.42,0-11.5-2.46-16.44-1.09-2.23-2.34-4.73-4.67-5.89s-5.31-.56-7.6.64c-4.61,2.42-7.35,7.2-11.19,10.58q6.65,9.76,12.7,19.9Q477.17,223.14,480.05,228.3Z" transform="translate(-80.52 -7.9)"/><path d="M440.8,244.41l-.17.31,0,.05-.06.22s0,0,0,.08a.49.49,0,0,0,0,.12v.28c0,.11.05.22.09.33a.06.06,0,0,0,0,0,.56.56,0,0,0,.05.08l.06,0,.11.06.25.07.09,0h.4l.27-.06.25-.09.12-.06a1.74,1.74,0,0,0,.26-.15l.06-.05h0l.21-.2.07-.08.15-.24a.14.14,0,0,0,0-.06v0c0-.08,0-.17.07-.25v-.26c0-.08,0-.17-.07-.26v0l0-.06-.15-.26-.08-.08a1.45,1.45,0,0,0-.22-.21l0,0-.07,0-.27-.16-.11-.06-.28-.09-.16,0h-.44a.92.92,0,0,1-.2.94c-.06,0-.11.11-.16.16h0Zm2.68-2.41a3.3,3.3,0,0,1,1.47,3.34,3.5,3.5,0,0,1-2.39,2.47,3.71,3.71,0,0,1-1.78.12,2.41,2.41,0,0,1-1.65-1,3.3,3.3,0,0,1,.32-3.71h0a.9.9,0,0,1,.07-1.2,2.82,2.82,0,0,1,2.06-.68A3.91,3.91,0,0,1,443.48,242Z" transform="translate(-80.52 -7.9)"/><path class="cls-3" d="M445,245.34a3.3,3.3,0,0,0-1.47-3.34,3.91,3.91,0,0,0-1.9-.66,2.82,2.82,0,0,0-2.06.68.9.9,0,0,0-.07,1.2h0a3.3,3.3,0,0,0-.32,3.71,2.41,2.41,0,0,0,1.65,1,3.71,3.71,0,0,0,1.78-.12A3.5,3.5,0,0,0,445,245.34Zm-3.72-4.82a5,5,0,0,1,5.16,1.51,4.12,4.12,0,0,1,.14,5.27c-1.18,1.4-2.87,2.26-4.31,3.39a1.15,1.15,0,0,0-1.85.49,3.94,3.94,0,0,0,1.55,4.31c1.6,1.23,3.71,1.17,5.62,1a1.16,1.16,0,0,0,1.07-.82,1.29,1.29,0,0,1,1.46-.88,1.72,1.72,0,0,1,1.34,1.87c0,2.14-2.28,3.25-4.1,3.56-3.75.64-7.44-1.65-9.53-4.64a11.16,11.16,0,0,1-1.14-11.26A7.09,7.09,0,0,1,441.23,240.52Z" transform="translate(-80.52 -7.9)"/><path d="M446.77,254.36a3.69,3.69,0,0,1,5.84-.57c2.1,2.37.78,5.84-1.59,7.41-4.59,3-10.71.78-14-3-3.64-4.15-4.81-10.41-2-15.34,2.61-4.55,9.6-6.69,13.18-2a6.31,6.31,0,0,1,.64,6.94c-1.38,2.32-4.05,3.22-5.95,5a.84.84,0,0,1-.28.17,2.35,2.35,0,0,0,1.26,1.16A6.53,6.53,0,0,0,446.77,254.36Zm-10.13-10a11.16,11.16,0,0,0,1.14,11.26c2.09,3,5.78,5.28,9.53,4.64,1.82-.31,4.11-1.42,4.1-3.56a1.72,1.72,0,0,0-1.34-1.87,1.29,1.29,0,0,0-1.46.88,1.16,1.16,0,0,1-1.07.82c-1.91.14-4,.2-5.62-1a3.94,3.94,0,0,1-1.55-4.31,1.15,1.15,0,0,1,1.85-.49c1.44-1.13,3.13-2,4.31-3.39a4.12,4.12,0,0,0-.14-5.27,5,5,0,0,0-5.16-1.51A7.09,7.09,0,0,0,436.64,244.35Z" transform="translate(-80.52 -7.9)"/><path class="cls-4" d="M428.27,246.87c.75,0,1,2.13,1.11,2.79l1.59,6.47,1.64,6.71c.4,1.62,1.22,4-.05,5.48-1.09,1.24-3.1,1-4.42.34a17.75,17.75,0,0,1-4.34-3.91q-4.87-5.22-9.77-10.41a27,27,0,0,1,2.84-2c2.7,3,5.36,6.12,8,9.18.74.85,2-.07,1.76-1-.45-2.22-.91-4.43-1.37-6.65-.2-1-.41-2-.61-3a9.41,9.41,0,0,1-.32-1.58c0-.88.45-1,1.15-1.24l1.38-.59A5,5,0,0,1,428.27,246.87Z" transform="translate(-80.52 -7.9)"/><path class="cls-5" d="M413.81,265.55c1.69,3,3.25,6.06,4.68,9.18a2.55,2.55,0,0,1-3.16.29c-1.69-1-2.63-3.06-3.59-4.68-2.23-3.73-4.43-7.48-6.69-11.2l3.42-2.15A86.12,86.12,0,0,1,413.81,265.55Z" transform="translate(-80.52 -7.9)"/><path d="M423.8,264.75a17.75,17.75,0,0,0,4.34,3.91c1.32.69,3.33.9,4.42-.34,1.27-1.44.45-3.86.05-5.48L431,256.13l-1.59-6.47c-.16-.66-.36-2.81-1.11-2.79a5,5,0,0,0-1.38.57l-1.38.59c-.7.29-1.17.36-1.15,1.24a9.41,9.41,0,0,0,.32,1.58c.2,1,.41,2,.61,3,.46,2.22.92,4.43,1.37,6.65.2.95-1,1.87-1.76,1-2.67-3.06-5.33-6.14-8-9.18a27,27,0,0,0-2.84,2Q418.92,259.55,423.8,264.75Zm11.1-1.43c.47,2.07.79,4.47-.65,6.24a5.21,5.21,0,0,1-5,1.6c-2.26-.39-4-2-5.56-3.57-4-4.21-7.9-8.53-11.84-12.79a.89.89,0,0,1-.08-1.15,1.12,1.12,0,0,1,.31-.54,17.84,17.84,0,0,1,4.44-3.11,1.09,1.09,0,0,1,1.31.17q3,3.47,6,6.89-.58-2.84-1.15-5.65c-.24-1.17-.73-2.55-.17-3.69s2.08-1.55,3.19-2,2.29-1.26,3.43-1a2.46,2.46,0,0,1,1.67,1.91c.83,2.78,1.4,5.66,2.09,8.48S434.27,260.58,434.9,263.32Z" transform="translate(-80.52 -7.9)"/><path class="cls-5" d="M406.87,250.35s0,0,0,0a.17.17,0,0,0,0,.05l-.27.43,0,.06-.18.19-.16.13-.09.07a3.38,3.38,0,0,1-.41.24l-.06,0h-.05l-.2.07a3.9,3.9,0,0,1-.46.12l-.17,0-.16,0h-.48l-.23,0-.1,0a4.05,4.05,0,0,1-.47-.12l-.24-.08s0,0,0,0l0,0a3.42,3.42,0,0,1-.42-.23l-.13-.09-.13-.1c-.11-.1-.2-.22-.3-.33l-.06-.08a2.53,2.53,0,0,1-.13-.22s0-.07,0-.1l0-.07a.44.44,0,0,1-.06-.16,2.86,2.86,0,0,1-.07-.28.17.17,0,0,1,0-.07s0,0,0,0c0-.19,0-.37,0-.56v-.06c0-.11,0-.22.07-.32l.09-.28s0,0,0,0h0l0-.1a5.7,5.7,0,0,1,.3-.54l.13-.19.15-.18a6.14,6.14,0,0,1,.45-.43,0,0,0,0,0,0,0L403,247l.28-.16.11-.06.09,0h0l.19-.07.27-.07.12,0h.54a1.15,1.15,0,0,0,.61-.08,3,3,0,0,1,.34.2l.16.11.13.12a4.21,4.21,0,0,1,.36.37h0l0,0h0l.15.22a4.09,4.09,0,0,1,.25.46l.06.11c0,.08.06.16.08.24a3.18,3.18,0,0,1,.14.53s0,0,0,0a.78.78,0,0,0,0,.09c0,.08,0,.15,0,.23s0,.33,0,.5a.06.06,0,0,1,0,0c0,.1,0,.2-.07.31S406.9,250.27,406.87,250.35Z" transform="translate(-80.52 -7.9)"/><path d="M401.82,248.53h0Z" transform="translate(-80.52 -7.9)"/><path d="M404.11,251.82h.48l.16,0,.17,0a3.9,3.9,0,0,0,.46-.12l.2-.07h.05l.06,0a3.38,3.38,0,0,0,.41-.24l.09-.07.16-.13.18-.19,0-.06.27-.43a.17.17,0,0,1,0-.05s0,0,0,0,.05-.15.07-.22.05-.21.07-.31a.06.06,0,0,0,0,0c0-.17,0-.33,0-.5s0-.15,0-.23a.78.78,0,0,1,0-.09s0,0,0,0a3.18,3.18,0,0,0-.14-.53c0-.08-.06-.16-.08-.24l-.06-.11a4.09,4.09,0,0,0-.25-.46l-.15-.22h0l0,0h0a4.21,4.21,0,0,0-.36-.37l-.13-.12-.16-.11a3,3,0,0,0-.34-.2,1.15,1.15,0,0,1-.61.08h-.54l-.12,0-.27.07-.19.07h0l-.09,0-.11.06L403,247l-.13.09a0,0,0,0,1,0,0,6.14,6.14,0,0,0-.45.43l-.15.18-.13.19a5.7,5.7,0,0,0-.3.54l0,.1h0s0,0,0,0l-.09.28c0,.1,0,.21-.07.32v.06c0,.19,0,.37,0,.56,0,0,0,0,0,0a.17.17,0,0,0,0,.07,2.86,2.86,0,0,0,.07.28.44.44,0,0,0,.06.16.19.19,0,0,0,0,.07s0,.08,0,.1a2.53,2.53,0,0,0,.13.22l.06.08c.1.11.19.23.3.33l.13.1.13.09a3.42,3.42,0,0,0,.42.23l0,0s0,0,0,0l.24.08a4.05,4.05,0,0,0,.47.12l.1,0Zm-4.36-1.28a4.7,4.7,0,0,1,.41-3.06,4.86,4.86,0,0,1,3.43-2.67,1,1,0,0,1,.9-.58,5.08,5.08,0,0,1,4.51,4.22,4.41,4.41,0,0,1-2.35,4.89,5.3,5.3,0,0,1-5.25-.4A4.13,4.13,0,0,1,399.75,250.54Z" transform="translate(-80.52 -7.9)"/><path class="cls-6" d="M395.18,271.35a7.07,7.07,0,0,0-.64-1.41l2.27-1a40,40,0,0,0,2,4c.84,1.48,1.8,3.45,3.35,4.31,3,1.65,4.59-1.74,5-4.21,1.23-.79,2.92.53,3.17,1.81.4,2-1.16,4.08-2.6,5.31-3.55,3-8,.68-10.11-2.81A28.83,28.83,0,0,1,395.18,271.35Z" transform="translate(-80.52 -7.9)"/><path class="cls-6" d="M396.17,267.41c.2.5.41,1,.64,1.49l-2.27,1a2.47,2.47,0,0,0-2-1.37c-.95,0-1.38.71-2.19,1a2,2,0,0,1-1.94-.72c-1.45-1.68.35-3.84,1.83-4.71a1,1,0,0,0,.36-1.38,51.69,51.69,0,0,1-6.38-21.19,1,1,0,0,0-.29-.61,2.19,2.19,0,0,1,1.9-.38c1.44.35,1.89,2,2.1,3.34.25,1.57.24,3.17.47,4.74a29,29,0,0,0,1.28,5.36,30,30,0,0,0,2.15,4.89c.63,1.14,1.41,2.46,2.92,2.21a7.25,7.25,0,0,0,1.77-.86,2.26,2.26,0,0,1,2.14.29c1.27.81,1.75,2.37,2.09,3.81l-4,1.87A1.06,1.06,0,0,0,396.17,267.41Z" transform="translate(-80.52 -7.9)"/><path d="M403.47,275.49c1.2.15,1.49-1.89,1.6-2.71a2.32,2.32,0,0,1,2-2,4.19,4.19,0,0,1,2.78.37c-.33-.59-.65-1.18-1-1.72-1.9-3.2-3.81-6.39-5.68-9.61l-.29-.5a1,1,0,0,1,.34-1.32l4.66-2.85a1.16,1.16,0,0,1,1.94,0c2.16,3.5,4.47,6.87,6.45,10.48.84,1.53,1.64,3.07,2.42,4.63.41.84.81,1.68,1.21,2.52.28.61.91,1.53.82,2.21a3.36,3.36,0,0,1-2.49,2.35,5,5,0,0,1-3.56-.35,7.38,7.38,0,0,1-2.21-1.77,7.77,7.77,0,0,1-1.64,4.69,8.12,8.12,0,0,1-12.72,1.39,15.93,15.93,0,0,1-4.13-6.75c-.26-.73-.49-1.47-.73-2.21-.09-.3-.37-1.53-.78-1.61s-1.07.64-1.35.75a3.54,3.54,0,0,1-1.41.22,4.3,4.3,0,0,1-3.89-3.75,5.73,5.73,0,0,1,2.54-5,54,54,0,0,1-6-20.34,1,1,0,0,1-.82-1c-.07-3,3.69-3.9,5.88-2.63,3.26,1.88,2.57,6.86,3.11,10a28.37,28.37,0,0,0,1.91,6.5,12.4,12.4,0,0,0,1.6,3.14c.42.46.37.42.91.09a5.08,5.08,0,0,1,1-.52,4.64,4.64,0,0,1,4.5,1.11,5.75,5.75,0,0,1,1.17,1.48,13.91,13.91,0,0,1,1.33,3.91,1.08,1.08,0,0,1-.49,1.21l-3.9,1.79a41.2,41.2,0,0,0,2.09,4.21C401.18,272.76,402.26,275.33,403.47,275.49Zm15-.76c-1.43-3.12-3-6.19-4.68-9.18a86.12,86.12,0,0,0-5.34-8.56l-3.42,2.15c2.26,3.72,4.46,7.47,6.69,11.2,1,1.62,1.9,3.7,3.59,4.68A2.55,2.55,0,0,0,418.49,274.73Zm-30.13-26.1c-.23-1.57-.22-3.17-.47-4.74-.21-1.29-.66-3-2.1-3.34a2.19,2.19,0,0,0-1.9.38,1,1,0,0,1,.29.61,51.69,51.69,0,0,0,6.38,21.19,1,1,0,0,1-.36,1.38c-1.48.87-3.28,3-1.83,4.71a2,2,0,0,0,1.94.72c.81-.26,1.24-1,2.19-1a2.47,2.47,0,0,1,2,1.37,7.07,7.07,0,0,1,.64,1.41,28.83,28.83,0,0,0,2.43,6c2.12,3.49,6.56,5.84,10.11,2.81,1.44-1.23,3-3.28,2.6-5.31-.25-1.28-1.94-2.6-3.17-1.81-.37,2.47-1.95,5.86-5,4.21-1.55-.86-2.51-2.83-3.35-4.31a40,40,0,0,1-2-4c-.23-.49-.44-1-.64-1.49a1.06,1.06,0,0,1,.49-1.21l4-1.87c-.34-1.44-.82-3-2.09-3.81a2.26,2.26,0,0,0-2.14-.29,7.25,7.25,0,0,1-1.77.86c-1.51.25-2.29-1.07-2.92-2.21a30,30,0,0,1-2.15-4.89A29,29,0,0,1,388.36,248.63Z" transform="translate(-80.52 -7.9)"/><path d="M377.18,288.62h0Z" transform="translate(-80.52 -7.9)"/><path d="M377.16,288.6l0,0Z" transform="translate(-80.52 -7.9)"/><path d="M380,283.27a7,7,0,0,1,1,4.83,3.7,3.7,0,0,1-2.43,2.6,2.7,2.7,0,0,1-3.12-1.18c-1.06-1.88.33-4.39,1.81-5.61a1,1,0,0,1,.93-.21.93.93,0,0,1,.44-.78A1,1,0,0,1,380,283.27Zm-.82,3.91a5.08,5.08,0,0,0-.51-2.13.67.67,0,0,1-.09.14,5.78,5.78,0,0,0-.5.49l-.12.15,0,0c-.05.08-.11.15-.16.22a6.21,6.21,0,0,0-.35.6l-.15.31v0a.58.58,0,0,1-.05.14,5.12,5.12,0,0,0-.15.56s0,.07,0,.1a1.62,1.62,0,0,0,0,.22s0,.17,0,.25,0,.06,0,.09.1.22,0,.14a.45.45,0,0,0,.06.09h0l0,0h0s0,0,0,0l0,0,.13.1h0l.12.06h0l.1,0,.12,0h.15l.24-.07h0l.08,0,.2-.12.06,0,.12-.11a2.39,2.39,0,0,0,.22-.23l0-.06h0l0,0a2,2,0,0,0,.14-.25,1.62,1.62,0,0,0,.08-.2,2.86,2.86,0,0,0,.07-.28s0,0,0,0v0C379.16,287.32,379.17,287.25,379.17,287.18Z" transform="translate(-80.52 -7.9)"/><path class="cls-1" d="M378.6,290.7a3.7,3.7,0,0,0,2.43-2.6,7,7,0,0,0-1-4.83,1,1,0,0,0-1.33-.35.93.93,0,0,0-.44.78,1,1,0,0,0-.93.21c-1.48,1.22-2.87,3.73-1.81,5.61A2.7,2.7,0,0,0,378.6,290.7Zm5.8-4.45a1.56,1.56,0,0,0-1,2,4,4,0,0,1-.63,2.89,4.51,4.51,0,0,1-5.7,1.6,6.35,6.35,0,0,1-3.7-5.7c-.08-2,.67-5.56,2.89-6.32,1-.35,2.1,0,3.08-.61a3.45,3.45,0,0,0,1.43-2.06,7.46,7.46,0,0,0-1-5.59c-1.08-1.8-3.19-3.25-5.32-2.33a3.75,3.75,0,0,0-2.28,3.24.61.61,0,0,1-.21-.26,1.16,1.16,0,0,0-.7-.69c.35-3.12,1.33-7.2,5.27-6.92,3.6.26,5.92,3.31,7.17,6.39,1.33,3.28,2,6.83,3.77,9.9a11.08,11.08,0,0,0,5.7,5c-1.1,1.39-2.75,2.89-4.19,1.8-.8-.61-1.19-1.59-2.1-2.1A2.89,2.89,0,0,0,384.4,286.25Z" transform="translate(-80.52 -7.9)"/><path d="M371.29,272.38a1.16,1.16,0,0,1,.7.69.61.61,0,0,0,.21.26,3.75,3.75,0,0,1,2.28-3.24c2.13-.92,4.24.53,5.32,2.33a7.46,7.46,0,0,1,1,5.59,3.45,3.45,0,0,1-1.43,2.06c-1,.61-2.06.26-3.08.61-2.22.76-3,4.3-2.89,6.32a6.35,6.35,0,0,0,3.7,5.7,4.51,4.51,0,0,0,5.7-1.6,4,4,0,0,0,.63-2.89,1.56,1.56,0,0,1,1-2,2.89,2.89,0,0,1,2.51.23c.91.51,1.3,1.49,2.1,2.1,1.44,1.09,3.09-.41,4.19-1.8a11.08,11.08,0,0,1-5.7-5c-1.81-3.07-2.44-6.62-3.77-9.9-1.25-3.08-3.57-6.13-7.17-6.39C372.62,265.18,371.64,269.26,371.29,272.38ZM396,286.68c-1.19,1.87-2.92,4-5.22,4.4a3.72,3.72,0,0,1-3-.71c-.36-.28-1.4-1.79-2.11-2.06a6.61,6.61,0,0,1-4.5,6.74,7.73,7.73,0,0,1-8.16-2.83c-.16-.2-.3-.4-.44-.61a10.07,10.07,0,0,1-.54-9.13,7.14,7.14,0,0,1,2.94-3.72,5.72,5.72,0,0,1,2.48-.52c.86-.05,1.14-.45,1.24-1.29a5.47,5.47,0,0,0-1.4-4.07,1.65,1.65,0,0,0-2-.58c-.54.3-.92.84-.53,1.38a1.17,1.17,0,0,1-.42,1.59,3.05,3.05,0,0,1-4.33-1.13,3.13,3.13,0,0,1-.22-.45,1.25,1.25,0,0,1-.07-.31.75.75,0,0,1-.37-.78c.33-3.36,1-7.33,4.48-8.8,3.09-1.29,6.72.14,9,2.37,2.82,2.78,3.71,6.93,4.93,10.55,1.14,3.41,3.27,7.77,7.3,8.3A1.12,1.12,0,0,1,396,286.68Z" transform="translate(-80.52 -7.9)"/><path class="cls-2" d="M362.13,296.33a5,5,0,0,0,.95,0,4.54,4.54,0,0,0,3.43-1.88c.74-1.14.49-3.08,2.32-2.88a2.27,2.27,0,0,1,2,2.9,5.71,5.71,0,0,1-3.29,3.77,9,9,0,0,1-5.84.54Z" transform="translate(-80.52 -7.9)"/><path d="M361.28,278.05l-.08,0h0Z" transform="translate(-80.52 -7.9)"/><path d="M357.75,280.25a2.9,2.9,0,0,0,0,.51.43.43,0,0,0,0,.11,2.46,2.46,0,0,0,.07.29,1.18,1.18,0,0,0,.07.2l.51-.26a6.57,6.57,0,0,0,.62-.4l.17-.11,0,0,.26-.21a8.17,8.17,0,0,0,1.05-1.07l.06-.08.06-.08.21-.3a6.5,6.5,0,0,0,.37-.63l.1-.11-.08,0a1.61,1.61,0,0,0-.54-.16h-.1l-.27,0h-.29s-.33,0-.15,0-.1,0-.15,0l-.28.07-.28.09h0l-.07,0a3.1,3.1,0,0,0-.5.29l-.07.07a1.54,1.54,0,0,0-.19.17l-.16.18v0l0,.09a1.74,1.74,0,0,0-.15.26l-.05.1s0,0,0,0a1.51,1.51,0,0,0-.15.53s0,.07,0,.1a.07.07,0,0,1,0,.05A1.07,1.07,0,0,0,357.75,280.25Zm-2,.33a4.51,4.51,0,0,1,2.24-4.22,4.75,4.75,0,0,1,4.74.05,1.08,1.08,0,0,1,.38,1.45,1,1,0,0,1-.21.24,1,1,0,0,1,.07,1.08,9.47,9.47,0,0,1-5.16,4.4,1,1,0,0,1-1-.26A4.74,4.74,0,0,1,355.71,280.58Z" transform="translate(-80.52 -7.9)"/><path class="cls-2" d="M354.19,277.78C356,274.32,360,271.62,364,273a5.45,5.45,0,0,1,3.43,5.41,1,1,0,0,0-1.59.57c-.57,2.57-3.11,3.94-5,5.45-2.1,1.64-4,3.81-3.67,6.68a5.84,5.84,0,0,0,5,5.18l-.46,2.46a11.14,11.14,0,0,1-3.55-1.48C352.05,293.41,351,283.81,354.19,277.78Zm1.52,2.8a4.74,4.74,0,0,0,1.09,2.74,1,1,0,0,0,1,.26,9.47,9.47,0,0,0,5.16-4.4,1,1,0,0,0-.07-1.08,1,1,0,0,0,.21-.24,1.08,1.08,0,0,0-.38-1.45,4.75,4.75,0,0,0-4.74-.05A4.51,4.51,0,0,0,355.71,280.58Z" transform="translate(-80.52 -7.9)"/><path class="cls-3" d="M340.91,301.67c-.29-1.06-.57-2.12-.93-3.16a36,36,0,0,0-4.46-8.74,1.07,1.07,0,0,0-.62-.86c-.4-.54-.81-1.08-1.24-1.6a.83.83,0,0,0-1.22-.15,5.24,5.24,0,0,1-1.16-2.87,20.66,20.66,0,0,1,4.18,1.37,1.1,1.1,0,0,0,1.59-1.22c-.82-3.93,3.4-6.48,6.82-5.39s5.08,4.64,5,8.07a7.65,7.65,0,0,0-4.37-.78,4.6,4.6,0,0,0-3.53,3c-1.39,3.59.36,8.25,1.82,11.53.32.73,1.86,2.86,1.3,3.63-.41.56-1.43.24-1.85-.09A5.06,5.06,0,0,1,340.91,301.67Z" transform="translate(-80.52 -7.9)"/><path d="M363.08,296.34a5,5,0,0,1-.95,0,5.84,5.84,0,0,1-5-5.18c-.33-2.87,1.57-5,3.67-6.68,1.92-1.51,4.46-2.88,5-5.45a1,1,0,0,1,1.59-.57A5.45,5.45,0,0,0,364,273c-4-1.42-8,1.28-9.82,4.74-3.16,6-2.14,15.63,3.93,19.53a11.14,11.14,0,0,0,3.55,1.48,9,9,0,0,0,5.84-.54,5.71,5.71,0,0,0,3.29-3.77,2.27,2.27,0,0,0-2-2.9c-1.83-.2-1.58,1.74-2.32,2.88A4.54,4.54,0,0,1,363.08,296.34ZM330.56,282a23.8,23.8,0,0,1,4.27,1.15,7.34,7.34,0,0,1,8.92-6.33,9,9,0,0,1,6.68,6.44c.51-5.21,3-10.2,8-12,3.38-1.25,7.52-.57,9.69,2.49a9.12,9.12,0,0,1,.6,1,6.91,6.91,0,0,1-1,7.86,1,1,0,0,1-1.34.08c-1.47,1.71-3.65,2.91-5.29,4.43-1.43,1.34-2.4,3.11-1.52,5.06.78,1.71,3.54,3.17,5,1.3.57-.73.49-1.81,1-2.59a3.27,3.27,0,0,1,1.63-1.2,4.61,4.61,0,0,1,4,.71,4.06,4.06,0,0,1,1.19,1.31c1.41,2.46-.24,5.93-2.41,7.59a11.2,11.2,0,0,1-10.76,1.15,13.85,13.85,0,0,1-7.81-8.21,17.74,17.74,0,0,1-.83-2.88,1.14,1.14,0,0,1-1.52.43c-1.71-.87-4.66-2.29-6-.11-1,1.62-.49,3.93-.08,5.64a33.44,33.44,0,0,0,2.5,6.57c.76,1.57,1.13,3.65-.67,4.68a3.73,3.73,0,0,1-4.23-.6c-1.32-1.23-1.67-3.09-2.13-4.75a33.69,33.69,0,0,0-4.9-10.39,7.47,7.47,0,0,1-4.44-8A1.1,1.1,0,0,1,330.56,282Zm13.49,22.51c.56-.77-1-2.9-1.3-3.63-1.46-3.28-3.21-7.94-1.82-11.53a4.6,4.6,0,0,1,3.53-3,7.65,7.65,0,0,1,4.37.78c.12-3.43-1.48-7-5-8.07s-7.64,1.46-6.82,5.39a1.1,1.1,0,0,1-1.59,1.22,20.66,20.66,0,0,0-4.18-1.37,5.24,5.24,0,0,0,1.16,2.87.83.83,0,0,1,1.22.15c.43.52.84,1.06,1.24,1.6a1.07,1.07,0,0,1,.62.86,36,36,0,0,1,4.46,8.74c.36,1,.64,2.1.93,3.16a5.06,5.06,0,0,0,1.29,2.7C342.62,304.7,343.64,305,344.05,304.46Z" transform="translate(-80.52 -7.9)"/><path class="cls-4" d="M330.09,291.72c1.32,2.17,1.41,5.35,1,7.76-1,5.29-4.81,10-10.18,11.15-6.75,1.46-12.35-4.2-15.36-9.59s-4.16-11.63-4.43-17.73c-.31-6.88,0-14.71,4.2-20.49,3.44-4.75,11.22-7.63,16.18-3.44a.89.89,0,0,0,.42.19,2.7,2.7,0,0,1,.34,1.6c-.21,1.87-1.92,2.63-3.6,2.59a10.22,10.22,0,0,0-7.95,2.8c-5,4.8-4.75,13-3.91,19.3.75,5.61,2.38,12.77,7.75,15.8,4.14,2.34,10.52,1,11.77-4,.39-1.54.17-3.23.68-4.74S329,290,330.09,291.72Z" transform="translate(-80.52 -7.9)"/><path d="M320.87,310.63c5.37-1.17,9.2-5.86,10.18-11.15.45-2.41.36-5.59-1-7.76-1-1.71-2.67-.2-3.13,1.18s-.29,3.2-.68,4.74c-1.25,5.07-7.63,6.36-11.77,4-5.37-3-7-10.19-7.75-15.8-.84-6.3-1.06-14.5,3.91-19.3a10.22,10.22,0,0,1,7.95-2.8c1.68,0,3.39-.72,3.6-2.59a2.7,2.7,0,0,0-.34-1.6.89.89,0,0,1-.42-.19c-5-4.19-12.74-1.31-16.18,3.44-4.18,5.78-4.51,13.61-4.2,20.49.27,6.1,1.43,12.34,4.43,17.73S314.12,312.09,320.87,310.63Zm2.8-52.33a5.08,5.08,0,0,1-2.38,7.26c-1.71.74-3.51.1-5.27.47a8.15,8.15,0,0,0-4.19,2.49c-2.68,2.87-3.22,7.06-3.27,10.83a41.53,41.53,0,0,0,1.62,12.24c.91,3.08,2.42,6.4,5.3,8.1,2.21,1.31,5.53,1.34,7.48-.48,1.32-1.23,1.36-3,1.52-4.67a7.16,7.16,0,0,1,1.57-4.34,3.94,3.94,0,0,1,3.74-1.41c1.48.37,2.24,1.73,2.75,3.06,2,5.26.63,11.43-2.85,15.74a13.77,13.77,0,0,1-17.13,3.86c-5.92-3.13-9.7-9.53-11.62-15.74a53.79,53.79,0,0,1-1.88-20.12c.54-6.45,2.48-13.48,8-17.41a13.68,13.68,0,0,1,12.23-2.06,1.09,1.09,0,0,1,.88-.2A5.25,5.25,0,0,1,323.67,258.3Z" transform="translate(-80.52 -7.9)"/><path class="cls-5" d="M268.57,302.6c2.6,2.3.86,6.78-1.68,8.28a8.19,8.19,0,0,1-9.58-1.13c-1.88-1.87-2.29-4.69-2.36-7.23A36.24,36.24,0,0,1,256,293l2.79.25a1.24,1.24,0,0,0,0,.27c.78,3.8-3.09,9.78,1.67,12.3a3.68,3.68,0,0,0,4.49-.53,6.34,6.34,0,0,0,1-2.4C266.46,301.56,267.72,301.85,268.57,302.6Z" transform="translate(-80.52 -7.9)"/><path class="cls-5" d="M260.15,292.16a1.1,1.1,0,0,0-1.35,1L256,293a1,1,0,0,0-1-1.3,12.41,12.41,0,0,1-3.21-.55,35.63,35.63,0,0,1,.7-6.75,12.49,12.49,0,0,1,1.54.71,1.09,1.09,0,0,0,1.61-.93c-.15-3.64-1.53-7.4-.68-11a5.54,5.54,0,0,1,2.44-3.72,3.64,3.64,0,0,1,3.75-.09,132.41,132.41,0,0,0-1.51,16.28,1.07,1.07,0,0,0,1.36,1,4.12,4.12,0,0,1,5,1.34,4,4,0,0,1-.57,4.95Z" transform="translate(-80.52 -7.9)"/><path d="M271.89,306a8.28,8.28,0,0,1-7,7.8c-3.89.71-8.25-.74-10.36-4.24a15.28,15.28,0,0,1-1.7-8,37.92,37.92,0,0,1,.91-8,13.87,13.87,0,0,1-3.21-.81,1.2,1.2,0,0,1-.62-.53,1,1,0,0,1-1.13-1.32,21.45,21.45,0,0,0,.7-8.32,1.07,1.07,0,0,1,1.35-1,16.43,16.43,0,0,1,2.52.8c-.37-3.28-1.22-6.56-.45-9.85.68-2.92,2.75-5.4,5.83-5.8a5.15,5.15,0,0,1,3.86.95c.77.59.8,1,.66,1.9s-.31,2-.44,3.05c-.5,3.83-.81,7.68-1,11.53a6.08,6.08,0,0,1,6.87,5.3,6.17,6.17,0,0,1-2,5.2c-.9.73-2.17.24-3.24.09l-2.44-.33a15,15,0,0,1-.4,3.49c-.31,1.45-.74,3.07-.27,4.53.33,1,1.63,2.27,2.79,1.59.9-.53.83-2.3,1.46-3.13,1.37-1.8,4-1.16,5.46.19A6.43,6.43,0,0,1,271.89,306ZM266,302.85a6.34,6.34,0,0,1-1,2.4,3.68,3.68,0,0,1-4.49.53c-4.76-2.52-.89-8.5-1.67-12.3a1.24,1.24,0,0,1,0-.27,1.1,1.1,0,0,1,1.35-1l5.29.74A4,4,0,0,0,266,288a4.12,4.12,0,0,0-5-1.34,1.07,1.07,0,0,1-1.36-1,132.41,132.41,0,0,1,1.51-16.28,3.64,3.64,0,0,0-3.75.09,5.54,5.54,0,0,0-2.44,3.72c-.85,3.63.53,7.39.68,11a1.09,1.09,0,0,1-1.61.93,12.49,12.49,0,0,0-1.54-.71,35.63,35.63,0,0,0-.7,6.75,12.41,12.41,0,0,0,3.21.55,1,1,0,0,1,1,1.3,36.24,36.24,0,0,0-1.06,9.56c.07,2.54.48,5.36,2.36,7.23a8.19,8.19,0,0,0,9.58,1.13c2.54-1.5,4.28-6,1.68-8.28C267.72,301.85,266.46,301.56,266,302.85Z" transform="translate(-80.52 -7.9)"/><path class="cls-6" d="M245.61,289.62c-.22.88-1.17,2-2.06,1.14a9,9,0,0,1-1.16-2.05,4.51,4.51,0,0,0-1.7-1.74,2.47,2.47,0,0,0-3.64,1c-.67,1.69.69,3.51,1.56,4.86,1.1,1.71,2.32,3.36,3.25,5.18a7.28,7.28,0,0,1,.82,5.46,6.44,6.44,0,0,1-3.41,3.65,10.08,10.08,0,0,1-10.43-1.05c-1.51-1.22-2.91-3.42-2.19-5.44a2.47,2.47,0,0,1,2-1.63c1.09-.11,1.69.79,2.15,1.64.82,1.52,1.5,3.19,3.19,3.95a3.11,3.11,0,0,0,3.93-1.19c2.07-3.27-.75-6.93-3.05-9.15-1.64-1.59-3.61-3.15-4.35-5.41a3.93,3.93,0,0,1,2.1-4.76,14,14,0,0,1,5.68-1.52c2.11-.19,6.47.07,6,3.28a1,1,0,0,0,1.28,1.06A7.43,7.43,0,0,1,245.61,289.62Z" transform="translate(-80.52 -7.9)"/><path d="M245.61,289.62a7.43,7.43,0,0,0,0-2.7,1,1,0,0,1-1.28-1.06c.46-3.21-3.9-3.47-6-3.28a14,14,0,0,0-5.68,1.52,3.93,3.93,0,0,0-2.1,4.76c.74,2.26,2.71,3.82,4.35,5.41,2.3,2.22,5.12,5.88,3.05,9.15a3.11,3.11,0,0,1-3.93,1.19c-1.69-.76-2.37-2.43-3.19-3.95-.46-.85-1.06-1.75-2.15-1.64a2.47,2.47,0,0,0-2,1.63c-.72,2,.68,4.22,2.19,5.44a10.08,10.08,0,0,0,10.43,1.05,6.44,6.44,0,0,0,3.41-3.65,7.28,7.28,0,0,0-.82-5.46c-.93-1.82-2.15-3.47-3.25-5.18-.87-1.35-2.23-3.17-1.56-4.86a2.47,2.47,0,0,1,3.64-1,4.51,4.51,0,0,1,1.7,1.74,9,9,0,0,0,1.16,2.05C244.44,291.65,245.39,290.5,245.61,289.62ZM234.1,302c.83.92,1.88.95,2.22-.34a4.17,4.17,0,0,0-.71-3.09c-2.24-3.73-7.5-6-7.5-10.87,0-.12,0-.25,0-.37.22-4.35,4.74-6.07,8.42-6.56a12.83,12.83,0,0,1,6.22.27.93.93,0,0,1,.66-.19c2.24.15,3.46,1.94,4,4s1,5-.29,6.88a3.32,3.32,0,0,1-5.39.47c-.71-.84-.93-2-1.67-2.8-.53-.55-1.14-.8-.85.18a8.46,8.46,0,0,0,1,1.73c2.29,3.66,5.69,7.52,4.79,12.17-.8,4.12-4.93,6.49-8.82,6.9-4.18.44-9.05-1.38-11.07-5.25a6.17,6.17,0,0,1-.17-6,4,4,0,0,1,.22-.34,4.41,4.41,0,0,1,5.16-1.65C232.5,298,232.69,300.36,234.1,302Z" transform="translate(-80.52 -7.9)"/><path class="cls-1" d="M223.5,286.35c.61,4.83-.66,10.18-4.77,13.16a9,9,0,0,1-12-1c-3.58-3.71-3.72-9.27-1.94-13.86,1.6-4.13,6-9,10.63-7.6a1,1,0,0,0,.86.51l.38,0c.21.12.42.22.64.37a.75.75,0,0,0,1,0C221.47,279.11,223.09,283.07,223.5,286.35Zm-6,3.74c.38-2.22-.44-5-2.67-5.91a1,1,0,0,0-1.14.46s0,0,0,0a4.89,4.89,0,0,0-5.09,1.68,4.79,4.79,0,0,0-1.16,3,4.41,4.41,0,0,0,1.07,2.84,5.63,5.63,0,0,0,5.18,1.84A4.79,4.79,0,0,0,217.54,290.09Z" transform="translate(-80.52 -7.9)"/><path d="M213.12,292l.09,0Z" transform="translate(-80.52 -7.9)"/><path class="cls-2" d="M211.07,250c.9,1.13-.53,3.37-1,4.57-.71,1.86-1.41,3.72-2.12,5.57l-3.87,10.22c-2.93,7.74-6,15.44-8.78,23.23a1,1,0,0,0,0,.53,2,2,0,0,1-2.29.17,3.2,3.2,0,0,1-1.68-3.43,15.54,15.54,0,0,1,1.63-5l2.32-5.31c1.47-3.33,3.07-6.64,4.32-10.06s1.89-6.8.84-10.22a1.12,1.12,0,0,0-1.85-.49l-5.86,5.88c-1,1-1.95,2-2.93,2.93-.69.69-1.6,1.72-2.57.91-1.54-1.28-1.71-4.29-2.13-6.08L183.13,255a1.11,1.11,0,0,0-2-.26,69.23,69.23,0,0,0-8,14.52,66.73,66.73,0,0,0-2.67,8.06c-.5,1.9-.74,4.81-2.42,6.12a2.3,2.3,0,0,1-2.9-.16,4.38,4.38,0,0,1-1.47-3.73c.11-2.89,1.5-5.88,2.38-8.6,1.8-5.54,3.67-11.05,5.8-16.47a113.66,113.66,0,0,1,8.62-17.63c2.63.58,4.56,2.86,5.6,5.27,1.31,3.05,1.46,6.47,2.13,9.69a5.16,5.16,0,0,0,1.52,3.25,3.43,3.43,0,0,0,3.73.08c2.25-1.26,2.85-4.19,4.9-5.75C201.74,246.77,208.13,246.35,211.07,250Z" transform="translate(-80.52 -7.9)"/><path d="M209.54,289.65a2.27,2.27,0,0,0,.06.25c0,.09.06.18.09.27s0,0,0,.05a3.5,3.5,0,0,0,.24.42.76.76,0,0,0,.08.11,1.37,1.37,0,0,1,.16.18c.11.12.24.22.36.33l.08.06.24.16c.15.08.3.14.44.23l.1,0,.23.08.53.13.09,0,.24,0H213l.22,0-.09,0,.09,0h0l.14,0a2.75,2.75,0,0,0,.47-.13l.08,0,.25-.14.21-.13h0l0,0c.13-.13.26-.25.39-.39l.06-.06c0-.08.1-.15.15-.23l.14-.25.07-.14a1.31,1.31,0,0,0,0-.15,2.25,2.25,0,0,0,.08-.24,3.18,3.18,0,0,0,.08-.33.89.89,0,0,1,0-.11,1.25,1.25,0,0,1,0-.19c0-.08,0-.17,0-.26a5.06,5.06,0,0,0,0-.55.41.41,0,0,0,0-.11,2,2,0,0,1,0-.24,5.44,5.44,0,0,0-.15-.54l-.09-.24,0-.05a5.29,5.29,0,0,0-.29-.52,1.71,1.71,0,0,0-.11-.14l-.08-.11c-.08-.09-.17-.17-.25-.25a1,1,0,0,1-1.07.1c.12.06-.16,0-.21-.06a2.84,2.84,0,0,0-.31-.06,0,0,0,0,0,0,0h-.63l-.3.08-.3.1-.1,0-.08,0a4.94,4.94,0,0,0-.55.32l-.09.07,0,0-.24.21-.26.27-.12.14a3.36,3.36,0,0,0-.32.51l-.08.16,0,0s-.07.19-.08.22,0,.17-.07.26,0,.1,0,.13a4.87,4.87,0,0,0,0,.54s0,.05,0,.07A.35.35,0,0,0,209.54,289.65Zm8,.44a4.79,4.79,0,0,1-3.82,3.93,5.63,5.63,0,0,1-5.18-1.84,4.41,4.41,0,0,1-1.07-2.84,4.79,4.79,0,0,1,1.16-3,4.89,4.89,0,0,1,5.09-1.68s0,0,0,0a1,1,0,0,1,1.14-.46C217.1,285.1,217.92,287.87,217.54,290.09Z" transform="translate(-80.52 -7.9)"/><path d="M206.73,298.53a9,9,0,0,0,12,1c4.11-3,5.38-8.33,4.77-13.16-.41-3.28-2-7.24-5.23-8.42a.75.75,0,0,1-1,0c-.22-.15-.43-.25-.64-.37l-.38,0a1,1,0,0,1-.86-.51c-4.66-1.37-9,3.47-10.63,7.6C203,289.26,203.15,294.82,206.73,298.53Zm16.24-.11a12.76,12.76,0,0,1-4.69,4,11.3,11.3,0,0,1-14.39-3.77c-3.69-5.08-3-12.2.05-17.42,2.49-4.28,7.68-7.72,12.47-5.83,6.23-.54,9.18,7.05,9.48,12.16v.13A16.85,16.85,0,0,1,223,298.42Z" transform="translate(-80.52 -7.9)"/><path d="M165.11,283.26a2.3,2.3,0,0,0,2.9.16c1.68-1.31,1.92-4.22,2.42-6.12a66.73,66.73,0,0,1,2.67-8.06,69.23,69.23,0,0,1,8-14.52,1.11,1.11,0,0,1,2,.26l1.94,8.42c.42,1.79.59,4.8,2.13,6.08,1,.81,1.88-.22,2.57-.91,1-1,1.95-2,2.93-2.93l5.86-5.88a1.12,1.12,0,0,1,1.85.49c1.05,3.42.37,6.93-.84,10.22s-2.85,6.73-4.32,10.06l-2.32,5.31a15.54,15.54,0,0,0-1.63,5A3.2,3.2,0,0,0,193,294.3a2,2,0,0,0,2.29-.17,1,1,0,0,1,0-.53c2.79-7.79,5.85-15.49,8.78-23.23L208,260.15c.71-1.85,1.41-3.71,2.12-5.57.45-1.2,1.88-3.44,1-4.57-2.94-3.66-9.33-3.24-12.75-.64-2,1.56-2.65,4.49-4.9,5.75a3.43,3.43,0,0,1-3.73-.08,5.16,5.16,0,0,1-1.52-3.25c-.67-3.22-.82-6.64-2.13-9.69-1-2.41-3-4.69-5.6-5.27a113.66,113.66,0,0,0-8.62,17.63c-2.13,5.42-4,10.93-5.8,16.47-.88,2.72-2.27,5.71-2.38,8.6A4.38,4.38,0,0,0,165.11,283.26Zm25-32.95c.14.77.22,2.56,1,3s1.62-.33,2-.82c.88-1.06,1.4-2.37,2.31-3.42a11.56,11.56,0,0,1,5.94-3.55,12.55,12.55,0,0,1,7.28.31c2,.73,4.88,2.34,5,4.71a6.68,6.68,0,0,1-.71,2.76c-.35.93-.7,1.85-1.06,2.78q-1,2.56-1.94,5.11l-4.15,10.91c-2.77,7.27-5.44,14.59-8.33,21.81a1.1,1.1,0,0,1,0,1c-1.31,2.52-4.7,2.24-6.62.61-2.86-2.44-1.6-6.62-.35-9.55,1.8-4.19,3.67-8.35,5.5-12.52,1.46-3.34,3.06-7,2.7-10.66l-5.95,6c-1.58,1.58-3.6,4.2-6.14,2.95-2.2-1.08-2.74-3.89-3.24-6q-.89-3.87-1.78-7.72a66.59,66.59,0,0,0-8.16,17c-.79,2.54-1.17,5.3-2.26,7.74-.93,2.08-2.86,3.82-5.3,3.28a5.86,5.86,0,0,1-4.21-5.06c-.43-3.28,1.09-6.63,2.08-9.68,4-12.28,8.24-24.57,15.13-35.55a.47.47,0,0,1,.1-.1.84.84,0,0,1,.94-.86,9.44,9.44,0,0,1,7.39,5C189.16,242.91,189.46,246.72,190.13,250.31Z" transform="translate(-80.52 -7.9)"/><path d="M132.87,245v0l0,0Z" transform="translate(-80.52 -7.9)"/><path d="M132.65,246.74h0l0,0Z" transform="translate(-80.52 -7.9)"/><path d="M132.62,246.77h0Z" transform="translate(-80.52 -7.9)"/><path d="M132.61,246.78h0Z" transform="translate(-80.52 -7.9)"/><path d="M131.15,245.24l0,0v0Z" transform="translate(-80.52 -7.9)"/><path d="M131,246.13v0h0Z" transform="translate(-80.52 -7.9)"/><path d="M131,245.67v.2a.75.75,0,0,0,0,.16v0a.38.38,0,0,1,0,.1s0,0,0,0v0a2,2,0,0,0,.14.23l.06.07.12.12.06.07.08,0,.29.17.18,0,.14,0h.21l0,0a1.34,1.34,0,0,0,.23-.13h0l0,0,0,0,.1-.1h0s0,0,0,0a0,0,0,0,0,0,0h0a1,1,0,0,0,.13-.22l0,0a0,0,0,0,1,0,0h0a2,2,0,0,0,.08-.35,2.16,2.16,0,0,0,0-.44s0-.08,0-.12l0-.1-.09-.17v0a0,0,0,0,1,0,0h0l0,0v0h0s0,0,0,0a.46.46,0,0,0-.07-.07,1.18,1.18,0,0,0-.19-.11l-.11,0-.12,0H132c-.11,0-.21.06-.32.09h0l-.15.08-.14.09-.17.16,0,0,0,0a0,0,0,0,0,0,0v0h0l-.05.06-.06.12Zm4.2.22a3.44,3.44,0,0,1-.51,1.68,2.77,2.77,0,0,1-1.51,1.18.89.89,0,0,1-.36,0,3.27,3.27,0,0,1-3.4-1.65,2.9,2.9,0,0,1-.3-2,2.82,2.82,0,0,1,.9-1.48,3.36,3.36,0,0,1,3.33-.69,2.8,2.8,0,0,1,1.47,1.26A3.36,3.36,0,0,1,135.15,245.89Z" transform="translate(-80.52 -7.9)"/><path class="cls-3" d="M127.51,248.51a.92.92,0,0,0-.73-.3,1,1,0,0,0-1.14.21,6.22,6.22,0,0,0,4.18,10.44,4.13,4.13,0,0,1-3.54,2.11,6.54,6.54,0,0,1-5.18-2.92,10.13,10.13,0,0,1-.13-11c2-3.36,6.21-6.25,10.24-6.28,4.19,0,6.08,4.29,6,7.93a3.62,3.62,0,0,1-1.16,3,4,4,0,0,1-2.8.62C130.93,252.1,129.08,250.13,127.51,248.51Zm1.86-1.37a3.27,3.27,0,0,0,3.4,1.65.89.89,0,0,0,.36,0,2.77,2.77,0,0,0,1.51-1.18,3.44,3.44,0,0,0,.51-1.68,3.36,3.36,0,0,0-.38-1.7,2.8,2.8,0,0,0-1.47-1.26,3.36,3.36,0,0,0-3.33.69,2.82,2.82,0,0,0-.9,1.48A2.9,2.9,0,0,0,129.37,247.14Z" transform="translate(-80.52 -7.9)"/><path class="cls-5" d="M128.56,206.23a17.06,17.06,0,0,1-3.35,4.56,57.75,57.75,0,0,1-19-11.16,1.09,1.09,0,0,0-1.69.22q-6,11.09-11.9,22.18c-1,1.79-1.9,3.59-2.87,5.37-.7,1.27-1.6,2.83-3.25,2.81a4.28,4.28,0,0,1-3.4-2.45,6.73,6.73,0,0,1,0-5.14,32.65,32.65,0,0,1,2.47-5.25l2.87-5.44q2.92-5.55,5.86-11.11c.93-1.76,1.93-3.5,2.79-5.3a5.94,5.94,0,0,0,.58-4.36c-1-3.25-4.41-5.37-6.88-7.39l-5.27-4.29c-1.21-1-2.66-2.24-1.75-3.91,1-1.83,2.95-3,3.39-4.95A199.92,199.92,0,0,0,128.56,206.23Z" transform="translate(-80.52 -7.9)"/><path d="M131.21,240.8c-4,0-8.2,2.92-10.24,6.28a10.13,10.13,0,0,0,.13,11,6.54,6.54,0,0,0,5.18,2.92,4.13,4.13,0,0,0,3.54-2.11,6.22,6.22,0,0,1-4.18-10.44,1,1,0,0,1,1.14-.21.92.92,0,0,1,.73.3c1.57,1.62,3.42,3.59,5.79,3.87a4,4,0,0,0,2.8-.62,3.62,3.62,0,0,0,1.16-3C137.29,245.09,135.4,240.77,131.21,240.8Zm-4.44,9.84a4.18,4.18,0,0,0,0,4,4.25,4.25,0,0,0,4.24,2l.21,0a1.08,1.08,0,0,1,1.19,1.09,6,6,0,0,1-5.4,5.44,8.66,8.66,0,0,1-7.73-3.86c-3.1-4.31-2.56-10.33.53-14.46s9.29-7.83,14.4-5.74a8.55,8.55,0,0,1,4.54,5.1c.83,2.22,1.21,5.2.21,7.43a5.5,5.5,0,0,1-5.91,2.87l-.48-.08C130.2,254,128.39,252.33,126.77,250.64Z" transform="translate(-80.52 -7.9)"/><path class="cls-4" d="M118.82,235.22c.24,5.79-3.25,10.62-6.82,14.86a10.81,10.81,0,0,0-3.22-1.61c-1.61-.62-2.69-1.6-1.33-3.16,1.14-1.32,2.67-2.29,3.5-3.87a4.46,4.46,0,0,0-1-5.3,5.45,5.45,0,0,0-5.93-1.15,7.54,7.54,0,0,0-2.54,1.71,20.34,20.34,0,0,0-2,3c-.66,1-2.26-.12-3.07-.59s-2-1.33-2.08-2.5S95.53,234,96.18,233L98.71,229q5.13-7.94,10.31-15.82a9.73,9.73,0,0,0,4.17,2.87q-2.91,4.72-6,9.38c-.51.78.35,2,1.28,1.66a7.08,7.08,0,0,1,6.91,1.09A9.18,9.18,0,0,1,118.82,235.22Z" transform="translate(-80.52 -7.9)"/><path d="M115.26,214.26a1.14,1.14,0,0,1,.68,1.67c-1.74,2.84-3.52,5.64-5.33,8.44a9.64,9.64,0,0,1,5.66,1.66,11,11,0,0,1,4.66,7.69c1.06,7.39-3.61,13.6-8.14,18.88a1.13,1.13,0,0,1-1.76-.23c-.92-1.72-3.65-1.74-5.11-2.91a3.58,3.58,0,0,1-.71-4.9c1-1.54,2.89-2.47,3.76-4.12a2.34,2.34,0,0,0-.8-3,3.21,3.21,0,0,0-3.38-.4,6,6,0,0,0-2.76,2.57c-.52.88-.79,2-1.77,2.49-1.79.92-4.68-.94-6-2.08a4.52,4.52,0,0,1-1.42-5.48,32.67,32.67,0,0,1,2.4-3.9q1.34-2.07,2.69-4.14,4.92-7.56,9.94-15.08A1.17,1.17,0,0,1,109.4,210a.92.92,0,0,1,.89,1.07A7.51,7.51,0,0,0,115.26,214.26ZM96.18,233c-.65,1-1.84,2.34-1.76,3.61s1.17,2,2.08,2.5,2.41,1.55,3.07.59a20.34,20.34,0,0,1,2-3,7.54,7.54,0,0,1,2.54-1.71,5.45,5.45,0,0,1,5.93,1.15,4.46,4.46,0,0,1,1,5.3c-.83,1.58-2.36,2.55-3.5,3.87-1.36,1.56-.28,2.54,1.33,3.16a10.81,10.81,0,0,1,3.22,1.61c3.57-4.24,7.06-9.07,6.82-14.86a9.18,9.18,0,0,0-3.4-7,7.08,7.08,0,0,0-6.91-1.09c-.93.37-1.79-.88-1.28-1.66q3.06-4.65,6-9.38a9.73,9.73,0,0,1-4.17-2.87q-5.17,7.89-10.31,15.82Z" transform="translate(-80.52 -7.9)"/><path d="M87.85,168.53a221.35,221.35,0,0,0,42.2,36.26,1.15,1.15,0,0,1,.23.21,1,1,0,0,1,.66,1.26,18.16,18.16,0,0,1-4.67,6.59,1.09,1.09,0,0,1-1.07.29,60.73,60.73,0,0,1-19.39-11.07Q98.94,214.91,92,227.72c-1.41,2.61-3.44,5.42-6.83,4.39a7,7,0,0,1-4.69-6.82c.06-3.95,2.49-7.58,4.27-10.95q3.09-5.88,6.2-11.76l3.11-5.88c.91-1.72,2.27-3.56,1.32-5.55a12.8,12.8,0,0,0-3.67-3.88l-5-4.18c-2.16-1.8-6.11-4.19-5-7.58a8.47,8.47,0,0,1,2-2.94c.7-.76,1.86-1.78,1.67-2.94a1,1,0,0,1,1.28-1.16A.82.82,0,0,1,87.85,168.53Zm-.67,2.09c-.44,1.95-2.4,3.12-3.39,4.95-.91,1.67.54,2.92,1.75,3.91l5.27,4.29c2.47,2,5.92,4.14,6.88,7.39a5.94,5.94,0,0,1-.58,4.36c-.86,1.8-1.86,3.54-2.79,5.3q-2.92,5.56-5.86,11.11l-2.87,5.44a32.65,32.65,0,0,0-2.47,5.25,6.73,6.73,0,0,0,0,5.14,4.28,4.28,0,0,0,3.4,2.45c1.65,0,2.55-1.54,3.25-2.81,1-1.78,1.91-3.58,2.87-5.37q5.93-11.1,11.9-22.18a1.09,1.09,0,0,1,1.69-.22,57.75,57.75,0,0,0,19,11.16,17.06,17.06,0,0,0,3.35-4.56A199.92,199.92,0,0,1,87.18,170.62Z" transform="translate(-80.52 -7.9)"/></svg>