<svg width="1092" height="605" viewBox="0 0 1092 605" fill="none" xmlns="http://www.w3.org/2000/svg">
<g clip-path="url(#clip0)">
<rect width="1092" height="605" fill="white"/>
<path d="M727.241 0H1091.24V226C1060.24 246.5 1024.24 211.5 1024.24 211.5C1024.24 211.5 1007.24 257.5 946.241 259.5C885.241 261.5 863.741 221.5 863.741 221.5C863.741 221.5 795.241 257 755.741 221.5C717.817 187.416 738.241 149 738.241 149C738.241 149 699.645 139.259 689.241 108.5C677.741 74.5002 714.241 50 714.241 50C714.241 50 689.241 15.0002 727.241 0Z" fill="#F2F2F2"/>
<path d="M439.645 179V166.001H441.174V177.646H446.896L446.843 179H439.645ZM449.427 174.201C449.427 175.344 449.679 176.261 450.183 176.952C450.692 177.638 451.434 177.98 452.406 177.98C453.367 177.98 454.091 177.638 454.577 176.952C455.069 176.267 455.315 175.344 455.315 174.184C455.315 173.006 455.072 172.08 454.586 171.406C454.105 170.727 453.37 170.387 452.38 170.387C451.419 170.387 450.687 170.732 450.183 171.424C449.679 172.115 449.427 173.041 449.427 174.201ZM456.836 174.175C456.836 175.669 456.438 176.882 455.641 177.813C454.844 178.739 453.742 179.202 452.336 179.202C450.982 179.202 449.904 178.733 449.102 177.796C448.305 176.858 447.906 175.654 447.906 174.184C447.906 172.684 448.308 171.471 449.11 170.545C449.913 169.619 451.015 169.156 452.415 169.156C453.792 169.156 454.873 169.622 455.658 170.554C456.443 171.479 456.836 172.687 456.836 174.175ZM462.997 179.202C461.579 179.202 460.469 178.742 459.666 177.822C458.869 176.902 458.471 175.698 458.471 174.21C458.477 172.71 458.884 171.494 459.692 170.562C460.507 169.625 461.62 169.156 463.032 169.156C463.53 169.156 464.011 169.218 464.474 169.341C464.942 169.464 465.312 169.625 465.581 169.824L465.177 170.967C464.491 170.598 463.768 170.413 463.006 170.413C462.074 170.413 461.336 170.753 460.791 171.433C460.252 172.112 459.982 173.041 459.982 174.219C459.982 175.367 460.249 176.278 460.782 176.952C461.321 177.62 462.065 177.954 463.015 177.954C463.771 177.954 464.544 177.749 465.335 177.339L465.52 178.508C464.881 178.971 464.04 179.202 462.997 179.202ZM470.213 178.016C470.91 178.016 471.522 177.825 472.05 177.444C472.583 177.058 472.926 176.539 473.078 175.889V174.263C473.049 174.263 472.87 174.277 472.542 174.307C472.22 174.336 472.009 174.354 471.909 174.359C470.638 174.471 469.75 174.679 469.246 174.983C468.748 175.288 468.499 175.777 468.499 176.451C468.499 176.967 468.651 177.356 468.956 177.62C469.261 177.884 469.68 178.016 470.213 178.016ZM473.403 179C473.315 178.625 473.23 178.221 473.148 177.787C472.615 178.32 472.114 178.689 471.646 178.895C471.177 179.1 470.626 179.202 469.993 179.202C469.091 179.202 468.364 178.968 467.813 178.499C467.269 178.024 466.996 177.345 466.996 176.46C466.996 175.476 467.368 174.746 468.112 174.271C468.862 173.797 469.94 173.501 471.347 173.384C471.54 173.366 471.83 173.343 472.217 173.313C472.609 173.278 472.902 173.252 473.096 173.234V172.382C473.096 171.702 472.938 171.198 472.621 170.87C472.305 170.542 471.807 170.378 471.127 170.378C470.178 170.378 469.22 170.612 468.253 171.081C468.224 171.011 468.147 170.809 468.024 170.475C467.901 170.135 467.837 169.959 467.831 169.947C468.259 169.707 468.766 169.517 469.352 169.376C469.943 169.229 470.544 169.156 471.153 169.156C472.354 169.156 473.219 169.42 473.746 169.947C474.279 170.469 474.546 171.359 474.546 172.619V179H473.403ZM479.67 179.176C478.732 179.176 478.067 178.924 477.675 178.42C477.288 177.916 477.095 177.04 477.095 175.792V165.614L478.554 165.526V175.212C478.554 175.61 478.557 175.93 478.562 176.17C478.574 176.41 478.598 176.647 478.633 176.882C478.668 177.11 478.715 177.283 478.773 177.4C478.832 177.518 478.917 177.626 479.028 177.726C479.14 177.819 479.271 177.884 479.424 177.919C479.582 177.948 479.775 177.963 480.004 177.963C480.191 177.963 480.561 177.928 481.111 177.857L481.19 179.026C480.587 179.126 480.08 179.176 479.67 179.176ZM492.555 178.2L488.564 168.919L488.23 168.031L488.292 171.213V179H486.868V166.001H488.837L493.363 176.354L497.846 166.001H499.762V179H498.285V171.178L498.347 168.066L498.021 168.954L494.04 178.2H492.555ZM505.352 178.016C506.049 178.016 506.661 177.825 507.188 177.444C507.722 177.058 508.064 176.539 508.217 175.889V174.263C508.188 174.263 508.009 174.277 507.681 174.307C507.358 174.336 507.147 174.354 507.048 174.359C505.776 174.471 504.889 174.679 504.385 174.983C503.887 175.288 503.638 175.777 503.638 176.451C503.638 176.967 503.79 177.356 504.095 177.62C504.399 177.884 504.818 178.016 505.352 178.016ZM508.542 179C508.454 178.625 508.369 178.221 508.287 177.787C507.754 178.32 507.253 178.689 506.784 178.895C506.315 179.1 505.765 179.202 505.132 179.202C504.229 179.202 503.503 178.968 502.952 178.499C502.407 178.024 502.135 177.345 502.135 176.46C502.135 175.476 502.507 174.746 503.251 174.271C504.001 173.797 505.079 173.501 506.485 173.384C506.679 173.366 506.969 173.343 507.355 173.313C507.748 173.278 508.041 173.252 508.234 173.234V172.382C508.234 171.702 508.076 171.198 507.76 170.87C507.443 170.542 506.945 170.378 506.266 170.378C505.316 170.378 504.358 170.612 503.392 171.081C503.362 171.011 503.286 170.809 503.163 170.475C503.04 170.135 502.976 169.959 502.97 169.947C503.397 169.707 503.904 169.517 504.49 169.376C505.082 169.229 505.683 169.156 506.292 169.156C507.493 169.156 508.357 169.42 508.885 169.947C509.418 170.469 509.685 171.359 509.685 172.619V179H508.542ZM516.294 179.202C514.876 179.202 513.766 178.742 512.963 177.822C512.166 176.902 511.768 175.698 511.768 174.21C511.773 172.71 512.181 171.494 512.989 170.562C513.804 169.625 514.917 169.156 516.329 169.156C516.827 169.156 517.308 169.218 517.771 169.341C518.239 169.464 518.608 169.625 518.878 169.824L518.474 170.967C517.788 170.598 517.064 170.413 516.303 170.413C515.371 170.413 514.633 170.753 514.088 171.433C513.549 172.112 513.279 173.041 513.279 174.219C513.279 175.367 513.546 176.278 514.079 176.952C514.618 177.62 515.362 177.954 516.312 177.954C517.067 177.954 517.841 177.749 518.632 177.339L518.816 178.508C518.178 178.971 517.337 179.202 516.294 179.202ZM527.219 179V173.173C527.219 172.206 527.063 171.503 526.753 171.063C526.448 170.624 525.912 170.404 525.145 170.404C524.406 170.404 523.782 170.589 523.272 170.958C522.769 171.327 522.44 171.805 522.288 172.391C522.235 172.83 522.209 173.319 522.209 173.858V179H520.741V165.614L522.209 165.526V169.446C522.209 169.78 522.197 170.193 522.174 170.686C523 169.666 524.096 169.156 525.461 169.156C527.611 169.156 528.687 170.419 528.687 172.944V179H527.219ZM532.229 169.358V179H530.752V169.358H532.229ZM532.229 165.852V167.592H530.752V165.852H532.229ZM534.997 179V169.358H536.228L536.412 170.738C536.793 170.264 537.268 169.883 537.836 169.596C538.41 169.303 539.028 169.156 539.69 169.156C540.804 169.156 541.627 169.47 542.16 170.097C542.693 170.718 542.96 171.676 542.96 172.971V179H541.492C541.492 175.133 541.489 173.062 541.483 172.786C541.46 171.966 541.293 171.365 540.982 170.984C540.678 170.604 540.165 170.413 539.444 170.413C538.688 170.413 538.059 170.595 537.555 170.958C537.051 171.321 536.723 171.793 536.57 172.373C536.512 172.766 536.482 173.217 536.482 173.727V179H534.997ZM550.958 171.143C550.53 170.627 549.941 170.369 549.191 170.369C548.441 170.369 547.829 170.636 547.354 171.169C546.88 171.696 546.602 172.42 546.52 173.34H551.608C551.608 172.385 551.392 171.652 550.958 171.143ZM549.481 179.202C548.081 179.202 546.977 178.757 546.168 177.866C545.365 176.976 544.964 175.757 544.964 174.21C544.964 172.716 545.354 171.506 546.133 170.58C546.912 169.648 547.938 169.174 549.209 169.156C550.404 169.156 551.351 169.566 552.048 170.387C552.751 171.201 553.103 172.291 553.103 173.656C553.103 173.727 553.1 173.855 553.094 174.043C553.094 174.23 553.094 174.365 553.094 174.447H546.476C546.493 175.543 546.774 176.398 547.319 177.014C547.87 177.623 548.608 177.928 549.534 177.928C550.554 177.928 551.576 177.658 552.602 177.119L552.83 178.306C551.852 178.903 550.735 179.202 549.481 179.202Z" fill="black"/>
<path d="M235.883 554.604C234.646 551.012 233.964 548.993 233.835 548.548C233.835 548.548 233.123 550.566 231.699 554.604H235.883ZM237.896 560L236.375 555.878H231.189L229.616 560H228.069L233.062 546.975H234.617L239.46 560H237.896ZM243.292 555.096L239.891 550.358H241.569L244.145 554.032L246.729 550.358H248.407L244.997 555.113L248.495 560H246.869L244.153 556.124L241.438 560H239.759L243.292 555.096ZM251.773 550.358V560H250.297V550.358H251.773ZM251.773 546.852V548.592H250.297V546.852H251.773ZM263.876 553.531C263.876 551.715 263.407 550.394 262.47 549.567C261.532 548.741 260.167 548.328 258.374 548.328H256.335V558.673H258.629C260.34 558.673 261.641 558.242 262.531 557.381C263.428 556.514 263.876 555.23 263.876 553.531ZM265.502 553.487C265.502 555.603 264.901 557.217 263.7 558.33C262.499 559.443 260.823 560 258.673 560H254.814V547.001H258.418C259.502 547.001 260.472 547.13 261.327 547.388C262.183 547.64 262.924 548.026 263.551 548.548C264.184 549.063 264.667 549.74 265.001 550.578C265.335 551.41 265.502 552.38 265.502 553.487ZM272.067 550.271C272.331 550.271 272.571 550.288 272.788 550.323L272.735 551.677C272.466 551.63 272.231 551.606 272.032 551.606C271.212 551.606 270.544 551.894 270.028 552.468C269.519 553.036 269.264 553.742 269.264 554.586V560H267.796C267.79 554.082 267.787 550.868 267.787 550.358H269.009L269.149 552.09C269.483 551.545 269.908 551.105 270.424 550.771C270.939 550.438 271.487 550.271 272.067 550.271ZM276.91 559.016C277.607 559.016 278.22 558.825 278.747 558.444C279.28 558.058 279.623 557.539 279.775 556.889V555.263C279.746 555.263 279.567 555.277 279.239 555.307C278.917 555.336 278.706 555.354 278.606 555.359C277.335 555.471 276.447 555.679 275.943 555.983C275.445 556.288 275.196 556.777 275.196 557.451C275.196 557.967 275.349 558.356 275.653 558.62C275.958 558.884 276.377 559.016 276.91 559.016ZM280.101 560C280.013 559.625 279.928 559.221 279.846 558.787C279.312 559.32 278.812 559.689 278.343 559.895C277.874 560.1 277.323 560.202 276.69 560.202C275.788 560.202 275.062 559.968 274.511 559.499C273.966 559.024 273.693 558.345 273.693 557.46C273.693 556.476 274.065 555.746 274.81 555.271C275.56 554.797 276.638 554.501 278.044 554.384C278.237 554.366 278.527 554.343 278.914 554.313C279.307 554.278 279.6 554.252 279.793 554.234V553.382C279.793 552.702 279.635 552.198 279.318 551.87C279.002 551.542 278.504 551.378 277.824 551.378C276.875 551.378 275.917 551.612 274.95 552.081C274.921 552.011 274.845 551.809 274.722 551.475C274.599 551.135 274.534 550.959 274.528 550.947C274.956 550.707 275.463 550.517 276.049 550.376C276.641 550.229 277.241 550.156 277.851 550.156C279.052 550.156 279.916 550.42 280.443 550.947C280.977 551.469 281.243 552.359 281.243 553.619V560H280.101ZM292.098 560C290.744 555.676 289.906 552.983 289.584 551.923C289.402 552.567 289.194 553.265 288.96 554.015C288.726 554.765 288.521 555.409 288.345 555.948C288.169 556.487 287.94 557.185 287.659 558.04C287.378 558.896 287.164 559.549 287.018 560H285.436L282.685 550.358H284.205L286.271 558.251C286.558 557.313 287.401 554.683 288.802 550.358H290.463C291.857 554.776 292.678 557.398 292.924 558.225L294.963 550.358H296.466L293.688 560H292.098ZM303.972 560H302.416V546.852H306.652C307.297 546.852 307.88 546.919 308.401 547.054C308.923 547.188 309.386 547.394 309.79 547.669C310.194 547.944 310.508 548.313 310.73 548.776C310.953 549.239 311.064 549.778 311.064 550.394C311.064 550.903 311.018 551.36 310.924 551.765C310.83 552.163 310.669 552.538 310.44 552.89C310.212 553.241 309.913 553.534 309.544 553.769C309.175 553.997 308.7 554.179 308.12 554.313C307.546 554.442 306.878 554.507 306.116 554.507C305.513 554.507 304.798 554.469 303.972 554.393V560ZM306.266 553.162C306.84 553.162 307.332 553.106 307.742 552.995C308.152 552.884 308.466 552.746 308.683 552.582C308.905 552.418 309.078 552.204 309.201 551.94C309.33 551.677 309.409 551.437 309.438 551.22C309.468 550.997 309.482 550.73 309.482 550.42C309.482 549.676 309.23 549.128 308.727 548.776C308.229 548.425 307.549 548.249 306.688 548.249H303.972V553.145C305.103 553.156 305.867 553.162 306.266 553.162ZM315.178 560.176C314.24 560.176 313.575 559.924 313.183 559.42C312.796 558.916 312.603 558.04 312.603 556.792V546.614L314.062 546.526V556.212C314.062 556.61 314.064 556.93 314.07 557.17C314.082 557.41 314.105 557.647 314.141 557.882C314.176 558.11 314.223 558.283 314.281 558.4C314.34 558.518 314.425 558.626 314.536 558.726C314.647 558.819 314.779 558.884 314.932 558.919C315.09 558.948 315.283 558.963 315.512 558.963C315.699 558.963 316.068 558.928 316.619 558.857L316.698 560.026C316.095 560.126 315.588 560.176 315.178 560.176ZM318.667 555.201C318.667 556.344 318.919 557.261 319.423 557.952C319.933 558.638 320.674 558.98 321.646 558.98C322.607 558.98 323.331 558.638 323.817 557.952C324.31 557.267 324.556 556.344 324.556 555.184C324.556 554.006 324.312 553.08 323.826 552.406C323.346 551.727 322.61 551.387 321.62 551.387C320.659 551.387 319.927 551.732 319.423 552.424C318.919 553.115 318.667 554.041 318.667 555.201ZM326.076 555.175C326.076 556.669 325.678 557.882 324.881 558.813C324.084 559.739 322.982 560.202 321.576 560.202C320.223 560.202 319.145 559.733 318.342 558.796C317.545 557.858 317.146 556.654 317.146 555.184C317.146 553.684 317.548 552.471 318.351 551.545C319.153 550.619 320.255 550.156 321.655 550.156C323.032 550.156 324.113 550.622 324.898 551.554C325.684 552.479 326.076 553.687 326.076 555.175ZM331.235 560.176C330.286 560.176 329.612 559.944 329.214 559.481C328.815 559.019 328.604 558.271 328.581 557.24V551.448H327.148L327.21 550.481L328.572 550.358L329.073 548.152L330.04 548.117V550.358H332.721V551.448H330.04V556.977C330.04 557.709 330.151 558.225 330.374 558.523C330.597 558.822 330.978 558.972 331.517 558.972C331.71 558.972 332.129 558.925 332.773 558.831L332.835 559.991C332.138 560.114 331.604 560.176 331.235 560.176ZM337.476 560.176C336.526 560.176 335.853 559.944 335.454 559.481C335.056 559.019 334.845 558.271 334.821 557.24V551.448H333.389L333.45 550.481L334.812 550.358L335.313 548.152L336.28 548.117V550.358H338.961V551.448H336.28V556.977C336.28 557.709 336.392 558.225 336.614 558.523C336.837 558.822 337.218 558.972 337.757 558.972C337.95 558.972 338.369 558.925 339.014 558.831L339.075 559.991C338.378 560.114 337.845 560.176 337.476 560.176ZM346.089 552.143C345.661 551.627 345.072 551.369 344.322 551.369C343.572 551.369 342.96 551.636 342.485 552.169C342.011 552.696 341.732 553.42 341.65 554.34H346.739C346.739 553.385 346.522 552.652 346.089 552.143ZM344.612 560.202C343.212 560.202 342.107 559.757 341.299 558.866C340.496 557.976 340.095 556.757 340.095 555.21C340.095 553.716 340.484 552.506 341.264 551.58C342.043 550.648 343.068 550.174 344.34 550.156C345.535 550.156 346.481 550.566 347.179 551.387C347.882 552.201 348.233 553.291 348.233 554.656C348.233 554.727 348.23 554.855 348.225 555.043C348.225 555.23 348.225 555.365 348.225 555.447H341.606C341.624 556.543 341.905 557.398 342.45 558.014C343.001 558.623 343.739 558.928 344.665 558.928C345.685 558.928 346.707 558.658 347.732 558.119L347.961 559.306C346.982 559.903 345.866 560.202 344.612 560.202ZM354.597 550.271C354.86 550.271 355.101 550.288 355.317 550.323L355.265 551.677C354.995 551.63 354.761 551.606 354.562 551.606C353.741 551.606 353.073 551.894 352.558 552.468C352.048 553.036 351.793 553.742 351.793 554.586V560H350.325C350.319 554.082 350.316 550.868 350.316 550.358H351.538L351.679 552.09C352.013 551.545 352.438 551.105 352.953 550.771C353.469 550.438 354.017 550.271 354.597 550.271ZM359.703 560.202C359.047 560.202 358.44 560.132 357.884 559.991C357.333 559.851 356.885 559.669 356.539 559.446L356.724 558.207C357.702 558.729 358.663 558.989 359.606 558.989C361.036 558.989 361.771 558.485 361.812 557.478C361.812 557.05 361.66 556.713 361.355 556.467C361.051 556.221 360.453 555.945 359.562 555.641L358.833 555.386C357.989 555.104 357.386 554.756 357.022 554.34C356.665 553.924 356.483 553.405 356.478 552.784C356.478 552.028 356.779 551.401 357.383 550.903C357.992 550.405 358.824 550.156 359.879 550.156C360.969 550.156 361.962 550.367 362.858 550.789L362.428 551.914C361.52 551.539 360.67 551.352 359.879 551.352C359.264 551.352 358.78 551.475 358.429 551.721C358.083 551.961 357.91 552.301 357.91 552.74C357.91 553.115 358.036 553.402 358.288 553.602C358.54 553.801 359.044 554.029 359.8 554.287C359.993 554.357 360.236 554.439 360.529 554.533C361.502 554.85 362.19 555.225 362.595 555.658C362.999 556.086 363.201 556.666 363.201 557.398C363.189 558.289 362.87 558.98 362.243 559.473C361.616 559.959 360.77 560.202 359.703 560.202Z" fill="black"/>
<path d="M35.8809 376H34.3252V362.852H38.5615C39.2061 362.852 39.7891 362.919 40.3105 363.054C40.832 363.188 41.2949 363.394 41.6992 363.669C42.1035 363.944 42.417 364.313 42.6396 364.776C42.8623 365.239 42.9736 365.778 42.9736 366.394C42.9736 366.903 42.9268 367.36 42.833 367.765C42.7393 368.163 42.5781 368.538 42.3496 368.89C42.1211 369.241 41.8223 369.534 41.4531 369.769C41.084 369.997 40.6094 370.179 40.0293 370.313C39.4551 370.442 38.7871 370.507 38.0254 370.507C37.4219 370.507 36.707 370.469 35.8809 370.393V376ZM38.1748 369.162C38.749 369.162 39.2412 369.106 39.6514 368.995C40.0615 368.884 40.375 368.746 40.5918 368.582C40.8145 368.418 40.9873 368.204 41.1104 367.94C41.2393 367.677 41.3184 367.437 41.3477 367.22C41.377 366.997 41.3916 366.73 41.3916 366.42C41.3916 365.676 41.1396 365.128 40.6357 364.776C40.1377 364.425 39.458 364.249 38.5967 364.249H35.8809V369.145C37.0117 369.156 37.7764 369.162 38.1748 369.162ZM48.8184 366.271C49.082 366.271 49.3223 366.288 49.5391 366.323L49.4863 367.677C49.2168 367.63 48.9824 367.606 48.7832 367.606C47.9629 367.606 47.2949 367.894 46.7793 368.468C46.2695 369.036 46.0146 369.742 46.0146 370.586V376H44.5469C44.541 370.082 44.5381 366.868 44.5381 366.358H45.7598L45.9004 368.09C46.2344 367.545 46.6592 367.105 47.1748 366.771C47.6904 366.438 48.2383 366.271 48.8184 366.271ZM56.4297 368.143C56.002 367.627 55.4131 367.369 54.6631 367.369C53.9131 367.369 53.3008 367.636 52.8262 368.169C52.3516 368.696 52.0732 369.42 51.9912 370.34H57.0801C57.0801 369.385 56.8633 368.652 56.4297 368.143ZM54.9531 376.202C53.5527 376.202 52.4482 375.757 51.6396 374.866C50.8369 373.976 50.4355 372.757 50.4355 371.21C50.4355 369.716 50.8252 368.506 51.6045 367.58C52.3838 366.648 53.4092 366.174 54.6807 366.156C55.876 366.156 56.8223 366.566 57.5195 367.387C58.2227 368.201 58.5742 369.291 58.5742 370.656C58.5742 370.727 58.5713 370.855 58.5654 371.043C58.5654 371.23 58.5654 371.365 58.5654 371.447H51.9473C51.9648 372.543 52.2461 373.398 52.791 374.014C53.3418 374.623 54.0801 374.928 55.0059 374.928C56.0254 374.928 57.0479 374.658 58.0732 374.119L58.3018 375.306C57.3232 375.903 56.207 376.202 54.9531 376.202ZM63.083 376L59.3477 366.358H60.9209L63.0479 372.089C63.0479 372.089 63.3408 372.903 63.9268 374.532C64.126 373.905 64.4014 373.097 64.7529 372.106C65.1982 370.858 65.8896 368.942 66.8271 366.358H68.3916L64.6826 376H63.083ZM71.415 366.358V376H69.9385V366.358H71.415ZM71.415 362.852V364.592H69.9385V362.852H71.415ZM79.7383 368.143C79.3105 367.627 78.7217 367.369 77.9717 367.369C77.2217 367.369 76.6094 367.636 76.1348 368.169C75.6602 368.696 75.3818 369.42 75.2998 370.34H80.3887C80.3887 369.385 80.1719 368.652 79.7383 368.143ZM78.2617 376.202C76.8613 376.202 75.7568 375.757 74.9482 374.866C74.1455 373.976 73.7441 372.757 73.7441 371.21C73.7441 369.716 74.1338 368.506 74.9131 367.58C75.6924 366.648 76.7178 366.174 77.9893 366.156C79.1846 366.156 80.1309 366.566 80.8281 367.387C81.5312 368.201 81.8828 369.291 81.8828 370.656C81.8828 370.727 81.8799 370.855 81.874 371.043C81.874 371.23 81.874 371.365 81.874 371.447H75.2559C75.2734 372.543 75.5547 373.398 76.0996 374.014C76.6504 374.623 77.3887 374.928 78.3145 374.928C79.334 374.928 80.3564 374.658 81.3818 374.119L81.6104 375.306C80.6318 375.903 79.5156 376.202 78.2617 376.202ZM92.2451 376C90.8916 371.676 90.0537 368.983 89.7314 367.923C89.5498 368.567 89.3418 369.265 89.1074 370.015C88.873 370.765 88.668 371.409 88.4922 371.948C88.3164 372.487 88.0879 373.185 87.8066 374.04C87.5254 374.896 87.3115 375.549 87.165 376H85.583L82.832 366.358H84.3525L86.418 374.251C86.7051 373.313 87.5488 370.683 88.9492 366.358H90.6104C92.0049 370.776 92.8252 373.398 93.0713 374.225L95.1104 366.358H96.6133L93.8359 376H92.2451ZM111.871 369.531C111.871 367.715 111.402 366.394 110.465 365.567C109.527 364.741 108.162 364.328 106.369 364.328H104.33V374.673H106.624C108.335 374.673 109.636 374.242 110.526 373.381C111.423 372.514 111.871 371.23 111.871 369.531ZM113.497 369.487C113.497 371.603 112.896 373.217 111.695 374.33C110.494 375.443 108.818 376 106.668 376H102.81V363.001H106.413C107.497 363.001 108.467 363.13 109.322 363.388C110.178 363.64 110.919 364.026 111.546 364.548C112.179 365.063 112.662 365.74 112.996 366.578C113.33 367.41 113.497 368.38 113.497 369.487ZM117.47 366.358V376H115.993V366.358H117.47ZM117.47 362.852V364.592H115.993V362.852H117.47ZM123.112 376.202C122.456 376.202 121.85 376.132 121.293 375.991C120.742 375.851 120.294 375.669 119.948 375.446L120.133 374.207C121.111 374.729 122.072 374.989 123.016 374.989C124.445 374.989 125.181 374.485 125.222 373.478C125.222 373.05 125.069 372.713 124.765 372.467C124.46 372.221 123.862 371.945 122.972 371.641L122.242 371.386C121.398 371.104 120.795 370.756 120.432 370.34C120.074 369.924 119.893 369.405 119.887 368.784C119.887 368.028 120.188 367.401 120.792 366.903C121.401 366.405 122.233 366.156 123.288 366.156C124.378 366.156 125.371 366.367 126.268 366.789L125.837 367.914C124.929 367.539 124.079 367.352 123.288 367.352C122.673 367.352 122.189 367.475 121.838 367.721C121.492 367.961 121.319 368.301 121.319 368.74C121.319 369.115 121.445 369.402 121.697 369.602C121.949 369.801 122.453 370.029 123.209 370.287C123.402 370.357 123.646 370.439 123.938 370.533C124.911 370.85 125.6 371.225 126.004 371.658C126.408 372.086 126.61 372.666 126.61 373.398C126.599 374.289 126.279 374.98 125.652 375.473C125.025 375.959 124.179 376.202 123.112 376.202ZM128.623 380.184V366.358H129.915L130.056 367.668C130.899 366.66 131.913 366.156 133.097 366.156C133.976 366.156 134.72 366.376 135.329 366.815C135.938 367.255 136.387 367.85 136.674 368.6C136.967 369.35 137.113 370.226 137.113 371.228C137.113 372.188 136.955 373.044 136.639 373.794C136.322 374.538 135.856 375.127 135.241 375.561C134.632 375.988 133.917 376.202 133.097 376.202C132.476 376.202 131.893 376.064 131.348 375.789C130.803 375.508 130.366 375.139 130.038 374.682C130.073 375.314 130.091 375.93 130.091 376.527V380.087L128.623 380.184ZM132.895 374.963C133.34 374.963 133.738 374.863 134.09 374.664C134.441 374.459 134.726 374.181 134.942 373.829C135.159 373.478 135.323 373.079 135.435 372.634C135.546 372.183 135.602 371.696 135.602 371.175C135.602 370.073 135.37 369.171 134.907 368.468C134.444 367.759 133.768 367.404 132.877 367.404C131.014 367.404 130.082 368.608 130.082 371.017C130.082 372.323 130.299 373.308 130.732 373.97C131.172 374.632 131.893 374.963 132.895 374.963ZM141.78 376.176C140.843 376.176 140.178 375.924 139.785 375.42C139.398 374.916 139.205 374.04 139.205 372.792V362.614L140.664 362.526V372.212C140.664 372.61 140.667 372.93 140.673 373.17C140.685 373.41 140.708 373.647 140.743 373.882C140.778 374.11 140.825 374.283 140.884 374.4C140.942 374.518 141.027 374.626 141.139 374.726C141.25 374.819 141.382 374.884 141.534 374.919C141.692 374.948 141.886 374.963 142.114 374.963C142.302 374.963 142.671 374.928 143.222 374.857L143.301 376.026C142.697 376.126 142.19 376.176 141.78 376.176ZM146.983 375.016C147.681 375.016 148.293 374.825 148.82 374.444C149.354 374.058 149.696 373.539 149.849 372.889V371.263C149.819 371.263 149.641 371.277 149.312 371.307C148.99 371.336 148.779 371.354 148.68 371.359C147.408 371.471 146.521 371.679 146.017 371.983C145.519 372.288 145.27 372.777 145.27 373.451C145.27 373.967 145.422 374.356 145.727 374.62C146.031 374.884 146.45 375.016 146.983 375.016ZM150.174 376C150.086 375.625 150.001 375.221 149.919 374.787C149.386 375.32 148.885 375.689 148.416 375.895C147.947 376.1 147.396 376.202 146.764 376.202C145.861 376.202 145.135 375.968 144.584 375.499C144.039 375.024 143.767 374.345 143.767 373.46C143.767 372.476 144.139 371.746 144.883 371.271C145.633 370.797 146.711 370.501 148.117 370.384C148.311 370.366 148.601 370.343 148.987 370.313C149.38 370.278 149.673 370.252 149.866 370.234V369.382C149.866 368.702 149.708 368.198 149.392 367.87C149.075 367.542 148.577 367.378 147.897 367.378C146.948 367.378 145.99 367.612 145.023 368.081C144.994 368.011 144.918 367.809 144.795 367.475C144.672 367.135 144.607 366.959 144.602 366.947C145.029 366.707 145.536 366.517 146.122 366.376C146.714 366.229 147.314 366.156 147.924 366.156C149.125 366.156 149.989 366.42 150.517 366.947C151.05 367.469 151.316 368.359 151.316 369.619V376H150.174ZM152.617 366.358H154.173L157.214 374.383L159.921 366.358H161.477C158.875 373.519 157.53 377.21 157.442 377.433C157.038 378.446 156.549 379.188 155.975 379.656C155.4 380.131 154.645 380.368 153.707 380.368C153.426 380.368 153.13 380.345 152.819 380.298L152.731 379.05C153.06 379.073 153.306 379.085 153.47 379.085C154.132 379.085 154.633 378.962 154.973 378.716C155.318 378.476 155.626 378.021 155.896 377.354C156.136 376.738 156.314 376.264 156.432 375.93L152.617 366.358ZM165.704 376.202C165.048 376.202 164.441 376.132 163.885 375.991C163.334 375.851 162.886 375.669 162.54 375.446L162.725 374.207C163.703 374.729 164.664 374.989 165.607 374.989C167.037 374.989 167.772 374.485 167.813 373.478C167.813 373.05 167.661 372.713 167.356 372.467C167.052 372.221 166.454 371.945 165.563 371.641L164.834 371.386C163.99 371.104 163.387 370.756 163.023 370.34C162.666 369.924 162.484 369.405 162.479 368.784C162.479 368.028 162.78 367.401 163.384 366.903C163.993 366.405 164.825 366.156 165.88 366.156C166.97 366.156 167.963 366.367 168.859 366.789L168.429 367.914C167.521 367.539 166.671 367.352 165.88 367.352C165.265 367.352 164.781 367.475 164.43 367.721C164.084 367.961 163.911 368.301 163.911 368.74C163.911 369.115 164.037 369.402 164.289 369.602C164.541 369.801 165.045 370.029 165.801 370.287C165.994 370.357 166.237 370.439 166.53 370.533C167.503 370.85 168.191 371.225 168.596 371.658C169 372.086 169.202 372.666 169.202 373.398C169.19 374.289 168.871 374.98 168.244 375.473C167.617 375.959 166.771 376.202 165.704 376.202Z" fill="black"/>
<path d="M512.122 601H510.602V588.001H517.817L517.756 589.346H512.122V593.907H517.492V595.199H512.122V601ZM522.08 601.176C521.143 601.176 520.478 600.924 520.085 600.42C519.698 599.916 519.505 599.04 519.505 597.792V587.614L520.964 587.526V597.212C520.964 597.61 520.967 597.93 520.973 598.17C520.984 598.41 521.008 598.647 521.043 598.882C521.078 599.11 521.125 599.283 521.184 599.4C521.242 599.518 521.327 599.626 521.438 599.726C521.55 599.819 521.682 599.884 521.834 599.919C521.992 599.948 522.186 599.963 522.414 599.963C522.602 599.963 522.971 599.928 523.521 599.857L523.601 601.026C522.997 601.126 522.49 601.176 522.08 601.176ZM526.229 591.358V601H524.752V591.358H526.229ZM526.229 587.852V589.592H524.752V587.852H526.229ZM533.075 601.202C531.657 601.202 530.547 600.742 529.744 599.822C528.947 598.902 528.549 597.698 528.549 596.21C528.555 594.71 528.962 593.494 529.771 592.562C530.585 591.625 531.698 591.156 533.11 591.156C533.608 591.156 534.089 591.218 534.552 591.341C535.021 591.464 535.39 591.625 535.659 591.824L535.255 592.967C534.569 592.598 533.846 592.413 533.084 592.413C532.152 592.413 531.414 592.753 530.869 593.433C530.33 594.112 530.061 595.041 530.061 596.219C530.061 597.367 530.327 598.278 530.86 598.952C531.399 599.62 532.144 599.954 533.093 599.954C533.849 599.954 534.622 599.749 535.413 599.339L535.598 600.508C534.959 600.971 534.118 601.202 533.075 601.202ZM543.868 601H542.348V588.001H543.868V601ZM547.823 596.201C547.823 597.344 548.075 598.261 548.579 598.952C549.089 599.638 549.83 599.98 550.803 599.98C551.764 599.98 552.487 599.638 552.974 598.952C553.466 598.267 553.712 597.344 553.712 596.184C553.712 595.006 553.469 594.08 552.982 593.406C552.502 592.727 551.767 592.387 550.776 592.387C549.815 592.387 549.083 592.732 548.579 593.424C548.075 594.115 547.823 595.041 547.823 596.201ZM555.232 596.175C555.232 597.669 554.834 598.882 554.037 599.813C553.24 600.739 552.139 601.202 550.732 601.202C549.379 601.202 548.301 600.733 547.498 599.796C546.701 598.858 546.303 597.654 546.303 596.184C546.303 594.684 546.704 593.471 547.507 592.545C548.31 591.619 549.411 591.156 550.812 591.156C552.188 591.156 553.27 591.622 554.055 592.554C554.84 593.479 555.232 594.687 555.232 596.175ZM561.648 601H560.119V589.346H556.12V588.001H565.647V589.346H561.648V601ZM573.276 594.812V599.752H575.992C577.094 599.752 577.92 599.55 578.471 599.146C579.021 598.735 579.297 598.1 579.297 597.238C579.297 596.342 578.998 595.715 578.4 595.357C577.809 594.994 576.883 594.812 575.623 594.812H573.276ZM573.276 593.591H576.062C576.971 593.591 577.656 593.433 578.119 593.116C578.582 592.8 578.813 592.237 578.813 591.429C578.813 590.614 578.535 590.055 577.979 589.75C577.428 589.439 576.569 589.284 575.403 589.284H573.276V593.591ZM571.756 588.001H575.482C577.152 588.001 578.389 588.256 579.191 588.766C580 589.275 580.404 590.087 580.404 591.2C580.404 591.364 580.393 591.528 580.369 591.692C580.352 591.851 580.299 592.056 580.211 592.308C580.129 592.56 580.015 592.791 579.868 593.002C579.722 593.207 579.505 593.415 579.218 593.626C578.937 593.831 578.605 593.995 578.225 594.118C579.098 594.282 579.76 594.651 580.211 595.226C580.662 595.8 580.888 596.491 580.888 597.3C580.888 598.478 580.501 599.389 579.728 600.033C578.96 600.678 577.814 601 576.291 601H571.756V588.001ZM582.452 597.783V591.358H583.929V597.801C583.929 598.223 583.987 598.58 584.104 598.873C584.228 599.166 584.4 599.395 584.623 599.559C584.852 599.717 585.106 599.831 585.388 599.901C585.675 599.972 586.003 600.007 586.372 600.007C587.134 600.007 587.726 599.84 588.147 599.506C588.575 599.172 588.789 598.604 588.789 597.801V591.358H590.266V597.783C590.266 598.275 590.195 598.718 590.055 599.11C589.914 599.503 589.724 599.831 589.483 600.095C589.249 600.353 588.965 600.566 588.631 600.736C588.297 600.906 587.942 601.029 587.567 601.105C587.198 601.182 586.8 601.22 586.372 601.22C585.95 601.22 585.552 601.182 585.177 601.105C584.802 601.029 584.444 600.906 584.104 600.736C583.771 600.561 583.48 600.344 583.234 600.086C582.994 599.822 582.804 599.494 582.663 599.102C582.522 598.709 582.452 598.27 582.452 597.783ZM595.53 601.176C594.581 601.176 593.907 600.944 593.509 600.481C593.11 600.019 592.899 599.271 592.876 598.24V592.448H591.443L591.505 591.481L592.867 591.358L593.368 589.152L594.335 589.117V591.358H597.016V592.448H594.335V597.977C594.335 598.709 594.446 599.225 594.669 599.523C594.892 599.822 595.272 599.972 595.812 599.972C596.005 599.972 596.424 599.925 597.068 599.831L597.13 600.991C596.433 601.114 595.899 601.176 595.53 601.176ZM601.771 601.176C600.821 601.176 600.147 600.944 599.749 600.481C599.351 600.019 599.14 599.271 599.116 598.24V592.448H597.684L597.745 591.481L599.107 591.358L599.608 589.152L600.575 589.117V591.358H603.256V592.448H600.575V597.977C600.575 598.709 600.687 599.225 600.909 599.523C601.132 599.822 601.513 599.972 602.052 599.972C602.245 599.972 602.664 599.925 603.309 599.831L603.37 600.991C602.673 601.114 602.14 601.176 601.771 601.176ZM605.901 596.201C605.901 597.344 606.153 598.261 606.657 598.952C607.167 599.638 607.908 599.98 608.881 599.98C609.842 599.98 610.565 599.638 611.052 598.952C611.544 598.267 611.79 597.344 611.79 596.184C611.79 595.006 611.547 594.08 611.061 593.406C610.58 592.727 609.845 592.387 608.854 592.387C607.894 592.387 607.161 592.732 606.657 593.424C606.153 594.115 605.901 595.041 605.901 596.201ZM613.311 596.175C613.311 597.669 612.912 598.882 612.115 599.813C611.318 600.739 610.217 601.202 608.811 601.202C607.457 601.202 606.379 600.733 605.576 599.796C604.779 598.858 604.381 597.654 604.381 596.184C604.381 594.684 604.782 593.471 605.585 592.545C606.388 591.619 607.489 591.156 608.89 591.156C610.267 591.156 611.348 591.622 612.133 592.554C612.918 593.479 613.311 594.687 613.311 596.175ZM615.394 601V591.358H616.624L616.809 592.738C617.189 592.264 617.664 591.883 618.232 591.596C618.807 591.303 619.425 591.156 620.087 591.156C621.2 591.156 622.023 591.47 622.557 592.097C623.09 592.718 623.356 593.676 623.356 594.971V601H621.889C621.889 597.133 621.886 595.062 621.88 594.786C621.856 593.966 621.689 593.365 621.379 592.984C621.074 592.604 620.562 592.413 619.841 592.413C619.085 592.413 618.455 592.595 617.951 592.958C617.447 593.321 617.119 593.793 616.967 594.373C616.908 594.766 616.879 595.217 616.879 595.727V601H615.394ZM628.674 601.202C628.018 601.202 627.411 601.132 626.854 600.991C626.304 600.851 625.855 600.669 625.51 600.446L625.694 599.207C626.673 599.729 627.634 599.989 628.577 599.989C630.007 599.989 630.742 599.485 630.783 598.478C630.783 598.05 630.631 597.713 630.326 597.467C630.021 597.221 629.424 596.945 628.533 596.641L627.804 596.386C626.96 596.104 626.356 595.756 625.993 595.34C625.636 594.924 625.454 594.405 625.448 593.784C625.448 593.028 625.75 592.401 626.354 591.903C626.963 591.405 627.795 591.156 628.85 591.156C629.939 591.156 630.933 591.367 631.829 591.789L631.398 592.914C630.49 592.539 629.641 592.352 628.85 592.352C628.234 592.352 627.751 592.475 627.399 592.721C627.054 592.961 626.881 593.301 626.881 593.74C626.881 594.115 627.007 594.402 627.259 594.602C627.511 594.801 628.015 595.029 628.771 595.287C628.964 595.357 629.207 595.439 629.5 595.533C630.473 595.85 631.161 596.225 631.565 596.658C631.97 597.086 632.172 597.666 632.172 598.398C632.16 599.289 631.841 599.98 631.214 600.473C630.587 600.959 629.74 601.202 628.674 601.202Z" fill="black"/>
<path d="M825.782 85.1935C824.792 85.1935 823.901 85.0294 823.11 84.7013C822.325 84.3673 821.675 83.9044 821.159 83.3127C820.649 82.715 820.257 82.0089 819.981 81.1945C819.712 80.38 819.577 79.4865 819.577 78.5138C819.577 77.2013 819.826 76.0412 820.324 75.0334C820.822 74.0255 821.563 73.2316 822.548 72.6515C823.532 72.0714 824.698 71.7814 826.046 71.7814C827.54 71.7814 828.852 72.1212 829.983 72.8009L829.403 74.0578C828.313 73.4308 827.2 73.1173 826.063 73.1173C825.272 73.1173 824.563 73.255 823.936 73.5304C823.315 73.8 822.806 74.1779 822.407 74.6642C822.015 75.1447 821.713 75.713 821.502 76.3693C821.297 77.0197 821.194 77.7345 821.194 78.5138C821.194 80.1662 821.604 81.4728 822.425 82.4337C823.251 83.3888 824.467 83.8664 826.072 83.8664C826.986 83.8664 827.915 83.6818 828.858 83.3127V79.6037H825.791L825.844 78.2765H830.282V84.2179C829.544 84.5695 828.829 84.8214 828.138 84.9738C827.452 85.1203 826.667 85.1935 825.782 85.1935ZM833.763 80.2013C833.763 81.3439 834.015 82.2609 834.518 82.9523C835.028 83.6378 835.769 83.9806 836.742 83.9806C837.703 83.9806 838.427 83.6378 838.913 82.9523C839.405 82.2668 839.651 81.3439 839.651 80.1837C839.651 79.006 839.408 78.0802 838.922 77.4064C838.441 76.7267 837.706 76.3869 836.716 76.3869C835.755 76.3869 835.022 76.7326 834.518 77.424C834.015 78.1154 833.763 79.0412 833.763 80.2013ZM841.172 80.175C841.172 81.6691 840.773 82.882 839.977 83.8136C839.18 84.7394 838.078 85.2023 836.672 85.2023C835.318 85.2023 834.24 84.7336 833.437 83.7961C832.641 82.8586 832.242 81.6544 832.242 80.1837C832.242 78.6837 832.643 77.4709 833.446 76.5451C834.249 75.6193 835.351 75.1564 836.751 75.1564C838.128 75.1564 839.209 75.6222 839.994 76.5539C840.779 77.4796 841.172 78.6867 841.172 80.175ZM844.327 80.2013C844.327 81.3439 844.579 82.2609 845.083 82.9523C845.593 83.6378 846.334 83.9806 847.307 83.9806C848.268 83.9806 848.991 83.6378 849.477 82.9523C849.97 82.2668 850.216 81.3439 850.216 80.1837C850.216 79.006 849.973 78.0802 849.486 77.4064C849.006 76.7267 848.27 76.3869 847.28 76.3869C846.319 76.3869 845.587 76.7326 845.083 77.424C844.579 78.1154 844.327 79.0412 844.327 80.2013ZM851.736 80.175C851.736 81.6691 851.338 82.882 850.541 83.8136C849.744 84.7394 848.643 85.2023 847.236 85.2023C845.883 85.2023 844.805 84.7336 844.002 83.7961C843.205 82.8586 842.807 81.6544 842.807 80.1837C842.807 78.6837 843.208 77.4709 844.011 76.5451C844.813 75.6193 845.915 75.1564 847.315 75.1564C848.692 75.1564 849.773 75.6222 850.559 76.5539C851.344 77.4796 851.736 78.6867 851.736 80.175ZM857.563 83.7433C858.061 83.7433 858.498 83.6554 858.873 83.4796C859.248 83.3039 859.541 83.0607 859.752 82.7502C859.963 82.4396 860.118 82.0939 860.218 81.713C860.323 81.3322 860.376 80.9162 860.376 80.465V79.7531C860.376 79.2843 860.323 78.8537 860.218 78.4611C860.112 78.0627 859.948 77.7082 859.726 77.3976C859.509 77.0812 859.216 76.8351 858.847 76.6593C858.483 76.4836 858.059 76.3957 857.572 76.3957C857.168 76.3957 856.799 76.4718 856.465 76.6242C856.137 76.7765 855.864 76.9787 855.647 77.2306C855.436 77.4767 855.255 77.7668 855.102 78.1007C854.956 78.4289 854.851 78.7628 854.786 79.1027C854.722 79.4425 854.689 79.7853 854.689 80.131C854.689 80.4709 854.725 80.8078 854.795 81.1418C854.865 81.4757 854.977 81.8009 855.129 82.1173C855.281 82.4337 855.466 82.7121 855.683 82.9523C855.899 83.1867 856.169 83.3771 856.491 83.5236C856.819 83.6701 857.177 83.7433 857.563 83.7433ZM855.305 89.4123L855.173 88.0851H856.966C857.464 88.0851 857.897 88.05 858.267 87.9796C858.636 87.9093 858.943 87.7921 859.189 87.6281C859.435 87.4699 859.635 87.2912 859.787 87.0919C859.939 86.8986 860.054 86.6437 860.13 86.3273C860.212 86.0168 860.265 85.7062 860.288 85.3957C860.317 85.091 860.332 84.716 860.332 84.2707V83.4181C859.98 83.922 859.573 84.3117 859.11 84.5871C858.647 84.8566 858.059 84.9914 857.344 84.9914C856.793 84.9914 856.283 84.8976 855.814 84.7101C855.352 84.5168 854.959 84.2619 854.637 83.9455C854.32 83.6291 854.048 83.2628 853.819 82.8468C853.597 82.4308 853.433 82.0002 853.327 81.5548C853.227 81.1095 853.178 80.6613 853.178 80.2101C853.178 79.507 853.263 78.8566 853.433 78.2589C853.608 77.6613 853.866 77.1281 854.206 76.6593C854.546 76.1906 854.991 75.8244 855.542 75.5607C856.099 75.2912 856.734 75.1564 857.449 75.1564C858.082 75.1564 858.633 75.2794 859.102 75.5255C859.576 75.7658 860.001 76.1378 860.376 76.6418V75.3586H861.809V84.3058C861.809 84.716 861.797 85.0734 861.773 85.3781C861.756 85.6886 861.706 86.0314 861.624 86.4064C861.548 86.7814 861.442 87.1037 861.308 87.3732C861.173 87.6427 860.982 87.9123 860.736 88.1818C860.496 88.4572 860.206 88.6769 859.866 88.841C859.532 89.0109 859.116 89.1486 858.618 89.2541C858.12 89.3595 857.558 89.4123 856.931 89.4123H855.305ZM866.853 85.1759C865.916 85.1759 865.251 84.924 864.858 84.4201C864.472 83.9162 864.278 83.0402 864.278 81.7921V71.6144L865.737 71.5265V81.2121C865.737 81.6105 865.74 81.9298 865.746 82.1701C865.758 82.4103 865.781 82.6476 865.816 82.882C865.852 83.1105 865.898 83.2834 865.957 83.4005C866.016 83.5177 866.101 83.6261 866.212 83.7257C866.323 83.8195 866.455 83.8839 866.607 83.9191C866.766 83.9484 866.959 83.963 867.187 83.963C867.375 83.963 867.744 83.9279 868.295 83.8576L868.374 85.0265C867.77 85.1261 867.264 85.1759 866.853 85.1759ZM874.825 77.1427C874.397 76.6271 873.809 76.3693 873.059 76.3693C872.309 76.3693 871.696 76.6359 871.222 77.1691C870.747 77.6964 870.469 78.4201 870.387 79.34H875.476C875.476 78.3849 875.259 77.6525 874.825 77.1427ZM873.349 85.2023C871.948 85.2023 870.844 84.757 870.035 83.8664C869.232 82.9757 868.831 81.757 868.831 80.2101C868.831 78.716 869.221 77.506 870 76.5802C870.779 75.6486 871.805 75.174 873.076 75.1564C874.271 75.1564 875.218 75.5666 875.915 76.3869C876.618 77.2013 876.97 78.2912 876.97 79.6564C876.97 79.7267 876.967 79.8556 876.961 80.0431C876.961 80.2306 876.961 80.3654 876.961 80.4474H870.343C870.36 81.5431 870.642 82.3986 871.186 83.0138C871.737 83.6232 872.476 83.9279 873.401 83.9279C874.421 83.9279 875.443 83.6584 876.469 83.1193L876.697 84.3058C875.719 84.9035 874.602 85.2023 873.349 85.2023ZM889.485 73.1173C888.507 73.1173 887.663 73.3546 886.954 73.8293C886.251 74.3039 885.727 74.9425 885.381 75.7453C885.035 76.548 884.862 77.4709 884.862 78.5138C884.862 79.2931 884.956 80.005 885.143 80.6496C885.331 81.2882 885.612 81.8507 885.987 82.3371C886.362 82.8175 886.849 83.1925 887.446 83.4621C888.05 83.7257 888.741 83.8576 889.52 83.8576C890.522 83.8576 891.56 83.5968 892.632 83.0753L892.887 84.3673C892.014 84.9181 890.833 85.1935 889.345 85.1935C888.366 85.1935 887.487 85.0324 886.708 84.7101C885.935 84.382 885.293 83.922 884.783 83.3302C884.279 82.7326 883.895 82.0236 883.632 81.2033C883.368 80.3771 883.236 79.4601 883.236 78.4523C883.236 77.4796 883.38 76.5832 883.667 75.7628C883.954 74.9425 884.358 74.2394 884.88 73.6535C885.407 73.0617 886.063 72.6017 886.849 72.2736C887.634 71.9455 888.507 71.7814 889.468 71.7814C890.927 71.7814 892.157 72.1037 893.159 72.7482L892.561 73.9875C891.601 73.4074 890.575 73.1173 889.485 73.1173ZM895.919 80.2013C895.919 81.3439 896.171 82.2609 896.675 82.9523C897.185 83.6378 897.926 83.9806 898.898 83.9806C899.859 83.9806 900.583 83.6378 901.069 82.9523C901.561 82.2668 901.808 81.3439 901.808 80.1837C901.808 79.006 901.564 78.0802 901.078 77.4064C900.598 76.7267 899.862 76.3869 898.872 76.3869C897.911 76.3869 897.179 76.7326 896.675 77.424C896.171 78.1154 895.919 79.0412 895.919 80.2013ZM903.328 80.175C903.328 81.6691 902.93 82.882 902.133 83.8136C901.336 84.7394 900.234 85.2023 898.828 85.2023C897.475 85.2023 896.396 84.7336 895.594 83.7961C894.797 82.8586 894.398 81.6544 894.398 80.1837C894.398 78.6837 894.8 77.4709 895.602 76.5451C896.405 75.6193 897.507 75.1564 898.907 75.1564C900.284 75.1564 901.365 75.6222 902.15 76.5539C902.935 77.4796 903.328 78.6867 903.328 80.175ZM917.654 85.0002V79.9816C917.654 79.5128 917.643 79.1203 917.619 78.8039C917.602 78.4875 917.555 78.1652 917.478 77.8371C917.408 77.5089 917.306 77.2511 917.171 77.0636C917.042 76.8703 916.86 76.715 916.626 76.5978C916.392 76.4748 916.11 76.4132 915.782 76.4132C915.138 76.4132 914.587 76.5861 914.13 76.9318C913.679 77.2775 913.356 77.7638 913.163 78.3908C913.11 78.8127 913.084 79.2638 913.084 79.7443V85.0002H911.616V79.8234C911.616 79.3898 911.602 79.0148 911.572 78.6984C911.543 78.3761 911.487 78.0656 911.405 77.7668C911.323 77.4621 911.212 77.216 911.071 77.0285C910.936 76.841 910.755 76.6916 910.526 76.5802C910.298 76.4689 910.025 76.4132 909.709 76.4132C909.006 76.4132 908.414 76.5919 907.934 76.9494C907.459 77.3068 907.14 77.7814 906.976 78.3732C906.923 78.8244 906.896 79.3136 906.896 79.841V85.0002H905.429C905.417 78.9709 905.411 75.757 905.411 75.3586H906.642L906.826 76.7384C907.119 76.2931 907.535 75.9181 908.074 75.6134C908.613 75.3087 909.226 75.1564 909.911 75.1564C910.268 75.1564 910.597 75.1945 910.895 75.2707C911.2 75.341 911.452 75.4318 911.651 75.5431C911.856 75.6544 912.038 75.7892 912.196 75.9474C912.354 76.0998 912.477 76.2521 912.565 76.4044C912.653 76.5509 912.727 76.7062 912.785 76.8703C913.488 75.7277 914.563 75.1564 916.011 75.1564C917.083 75.1564 917.868 75.464 918.366 76.0793C918.87 76.6886 919.122 77.5939 919.122 78.7951V85.0002H917.654ZM921.003 89.1837V75.3586H922.295L922.435 76.6681C923.279 75.6603 924.293 75.1564 925.477 75.1564C926.355 75.1564 927.1 75.3761 927.709 75.8156C928.318 76.255 928.767 76.8498 929.054 77.5998C929.347 78.3498 929.493 79.2257 929.493 80.2277C929.493 81.1886 929.335 82.0441 929.018 82.7941C928.702 83.5382 928.236 84.1271 927.621 84.5607C927.012 84.9884 926.297 85.2023 925.477 85.2023C924.855 85.2023 924.272 85.0646 923.727 84.7892C923.183 84.508 922.746 84.1388 922.418 83.6818C922.453 84.3146 922.471 84.9298 922.471 85.5275V89.0871L921.003 89.1837ZM925.274 83.963C925.72 83.963 926.118 83.8634 926.47 83.6642C926.821 83.4591 927.105 83.1808 927.322 82.8293C927.539 82.4777 927.703 82.0793 927.814 81.6339C927.926 81.1828 927.981 80.6964 927.981 80.175C927.981 79.0734 927.75 78.1711 927.287 77.4679C926.824 76.7589 926.147 76.4044 925.257 76.4044C923.393 76.4044 922.462 77.6086 922.462 80.0168C922.462 81.3234 922.679 82.3078 923.112 82.9699C923.552 83.632 924.272 83.963 925.274 83.963ZM931.233 81.7834V75.3586H932.71V81.8009C932.71 82.2228 932.768 82.5802 932.886 82.8732C933.009 83.1662 933.182 83.3947 933.404 83.5587C933.633 83.7169 933.888 83.8312 934.169 83.9015C934.456 83.9718 934.784 84.007 935.153 84.007C935.915 84.007 936.507 83.84 936.929 83.506C937.356 83.172 937.57 82.6037 937.57 81.8009V75.3586H939.047V81.7834C939.047 82.2755 938.977 82.7179 938.836 83.1105C938.695 83.5031 938.505 83.8312 938.265 84.0949C938.03 84.3527 937.746 84.5666 937.412 84.7365C937.078 84.9064 936.724 85.0294 936.349 85.1056C935.979 85.1818 935.581 85.2199 935.153 85.2199C934.731 85.2199 934.333 85.1818 933.958 85.1056C933.583 85.0294 933.226 84.9064 932.886 84.7365C932.552 84.5607 932.262 84.3439 932.016 84.0861C931.775 83.8224 931.585 83.4943 931.444 83.1017C931.304 82.7091 931.233 82.2697 931.233 81.7834ZM944.311 85.1759C943.362 85.1759 942.688 84.9445 942.29 84.4816C941.892 84.0187 941.681 83.2716 941.657 82.2404V76.4484H940.225L940.286 75.4816L941.648 75.3586L942.149 73.1525L943.116 73.1173V75.3586H945.797V76.4484H943.116V81.9767C943.116 82.7091 943.227 83.2248 943.45 83.5236C943.673 83.8224 944.054 83.9718 944.593 83.9718C944.786 83.9718 945.205 83.925 945.85 83.8312L945.911 84.9914C945.214 85.1144 944.681 85.1759 944.311 85.1759ZM952.925 77.1427C952.497 76.6271 951.908 76.3693 951.158 76.3693C950.408 76.3693 949.796 76.6359 949.321 77.1691C948.847 77.6964 948.568 78.4201 948.486 79.34H953.575C953.575 78.3849 953.358 77.6525 952.925 77.1427ZM951.448 85.2023C950.048 85.2023 948.943 84.757 948.135 83.8664C947.332 82.9757 946.931 81.757 946.931 80.2101C946.931 78.716 947.32 77.506 948.1 76.5802C948.879 75.6486 949.904 75.174 951.176 75.1564C952.371 75.1564 953.317 75.5666 954.015 76.3869C954.718 77.2013 955.069 78.2912 955.069 79.6564C955.069 79.7267 955.066 79.8556 955.06 80.0431C955.06 80.2306 955.06 80.3654 955.06 80.4474H948.442C948.46 81.5431 948.741 82.3986 949.286 83.0138C949.837 83.6232 950.575 83.9279 951.501 83.9279C952.52 83.9279 953.543 83.6584 954.568 83.1193L954.797 84.3058C953.818 84.9035 952.702 85.2023 951.448 85.2023ZM961.881 85.0002V72.0011H969.334L969.272 73.3459H963.401V77.5998H968.982V78.9269H963.401V83.6554H969.466L969.395 85.0002H961.881ZM971.663 85.0002V75.3586H972.893L973.078 76.7384C973.459 76.2638 973.934 75.883 974.502 75.5959C975.076 75.3029 975.694 75.1564 976.356 75.1564C977.47 75.1564 978.293 75.4699 978.826 76.0968C979.359 76.7179 979.626 77.6759 979.626 78.9709V85.0002H978.158C978.158 81.133 978.155 79.0617 978.149 78.7863C978.126 77.966 977.959 77.3654 977.648 76.9845C977.344 76.6037 976.831 76.4132 976.11 76.4132C975.354 76.4132 974.725 76.5949 974.221 76.9582C973.717 77.3214 973.389 77.7931 973.236 78.3732C973.178 78.7658 973.148 79.2169 973.148 79.7267V85.0002H971.663ZM985.813 83.7433C986.311 83.7433 986.748 83.6554 987.123 83.4796C987.498 83.3039 987.791 83.0607 988.002 82.7502C988.213 82.4396 988.368 82.0939 988.468 81.713C988.573 81.3322 988.626 80.9162 988.626 80.465V79.7531C988.626 79.2843 988.573 78.8537 988.468 78.4611C988.362 78.0627 988.198 77.7082 987.976 77.3976C987.759 77.0812 987.466 76.8351 987.097 76.6593C986.733 76.4836 986.309 76.3957 985.822 76.3957C985.418 76.3957 985.049 76.4718 984.715 76.6242C984.387 76.7765 984.114 76.9787 983.897 77.2306C983.686 77.4767 983.505 77.7668 983.352 78.1007C983.206 78.4289 983.101 78.7628 983.036 79.1027C982.972 79.4425 982.939 79.7853 982.939 80.131C982.939 80.4709 982.975 80.8078 983.045 81.1418C983.115 81.4757 983.227 81.8009 983.379 82.1173C983.531 82.4337 983.716 82.7121 983.933 82.9523C984.149 83.1867 984.419 83.3771 984.741 83.5236C985.069 83.6701 985.427 83.7433 985.813 83.7433ZM983.555 89.4123L983.423 88.0851H985.216C985.714 88.0851 986.147 88.05 986.517 87.9796C986.886 87.9093 987.193 87.7921 987.439 87.6281C987.685 87.4699 987.885 87.2912 988.037 87.0919C988.189 86.8986 988.304 86.6437 988.38 86.3273C988.462 86.0168 988.515 85.7062 988.538 85.3957C988.567 85.091 988.582 84.716 988.582 84.2707V83.4181C988.23 83.922 987.823 84.3117 987.36 84.5871C986.897 84.8566 986.309 84.9914 985.594 84.9914C985.043 84.9914 984.533 84.8976 984.064 84.7101C983.602 84.5168 983.209 84.2619 982.887 83.9455C982.57 83.6291 982.298 83.2628 982.069 82.8468C981.847 82.4308 981.683 82.0002 981.577 81.5548C981.477 81.1095 981.428 80.6613 981.428 80.2101C981.428 79.507 981.513 78.8566 981.683 78.2589C981.858 77.6613 982.116 77.1281 982.456 76.6593C982.796 76.1906 983.241 75.8244 983.792 75.5607C984.349 75.2912 984.984 75.1564 985.699 75.1564C986.332 75.1564 986.883 75.2794 987.352 75.5255C987.826 75.7658 988.251 76.1378 988.626 76.6418V75.3586H990.059V84.3058C990.059 84.716 990.047 85.0734 990.023 85.3781C990.006 85.6886 989.956 86.0314 989.874 86.4064C989.798 86.7814 989.692 87.1037 989.558 87.3732C989.423 87.6427 989.232 87.9123 988.986 88.1818C988.746 88.4572 988.456 88.6769 988.116 88.841C987.782 89.0109 987.366 89.1486 986.868 89.2541C986.37 89.3595 985.808 89.4123 985.181 89.4123H983.555ZM994.242 75.3586V85.0002H992.766V75.3586H994.242ZM994.242 71.8517V73.5919H992.766V71.8517H994.242ZM997.011 85.0002V75.3586H998.241L998.426 76.7384C998.807 76.2638 999.281 75.883 999.85 75.5959C1000.42 75.3029 1001.04 75.1564 1001.7 75.1564C1002.82 75.1564 1003.64 75.4699 1004.17 76.0968C1004.71 76.7179 1004.97 77.6759 1004.97 78.9709V85.0002H1003.51C1003.51 81.133 1003.5 79.0617 1003.5 78.7863C1003.47 77.966 1003.31 77.3654 1003 76.9845C1002.69 76.6037 1002.18 76.4132 1001.46 76.4132C1000.7 76.4132 1000.07 76.5949 999.568 76.9582C999.064 77.3214 998.736 77.7931 998.584 78.3732C998.525 78.7658 998.496 79.2169 998.496 79.7267V85.0002H997.011ZM1012.97 77.1427C1012.54 76.6271 1011.96 76.3693 1011.21 76.3693C1010.46 76.3693 1009.84 76.6359 1009.37 77.1691C1008.89 77.6964 1008.62 78.4201 1008.53 79.34H1013.62C1013.62 78.3849 1013.41 77.6525 1012.97 77.1427ZM1011.5 85.2023C1010.09 85.2023 1008.99 84.757 1008.18 83.8664C1007.38 82.9757 1006.98 81.757 1006.98 80.2101C1006.98 78.716 1007.37 77.506 1008.15 76.5802C1008.93 75.6486 1009.95 75.174 1011.22 75.1564C1012.42 75.1564 1013.36 75.5666 1014.06 76.3869C1014.76 77.2013 1015.12 78.2912 1015.12 79.6564C1015.12 79.7267 1015.11 79.8556 1015.11 80.0431C1015.11 80.2306 1015.11 80.3654 1015.11 80.4474H1008.49C1008.51 81.5431 1008.79 82.3986 1009.33 83.0138C1009.88 83.6232 1010.62 83.9279 1011.55 83.9279C1012.57 83.9279 1013.59 83.6584 1014.62 83.1193L1014.84 84.3058C1013.87 84.9035 1012.75 85.2023 1011.5 85.2023Z" fill="black"/>
<rect x="424" y="192" width="147" height="92" fill="#E6E6E6"/>
<path d="M424 284H571L594 336H398L424 284Z" fill="#DDDDDD"/>
<path d="M398 336H594L584 341H409L398 336Z" fill="#D7D7D7"/>
<rect x="430" y="199" width="134" height="79" fill="#C4C4C4"/>
<path d="M227 395H247L148 558H128L227 395Z" fill="#E6E6E6"/>
<path d="M148 558L247 395V411L148 575V558Z" fill="#D7D7D7"/>
<path d="M5.28431 470.031H230.969L226.471 474.531H0L5.28431 470.031Z" fill="#E6E6E6"/>
<path d="M0 474.531H226.471V478H0V474.531Z" fill="#DDDDDD"/>
<path d="M226.471 474.531L231 470V473.469L226.471 478V474.531Z" fill="#DDDDDD"/>
<path d="M180.5 451H220.5L196 488H156L180.5 451Z" fill="#9B9B9B"/>
<rect x="156" y="488" width="40" height="6" fill="#9B9B9B"/>
<path d="M196 488L220.5 451V457L196 494V488Z" fill="#9B9B9B"/>
<rect x="128" y="558" width="20" height="17" fill="#E6E6E6"/>
<path d="M503 395H523L456 558H436L503 395Z" fill="#E6E6E6"/>
<path d="M456 558L523 395V411L456 575V558Z" fill="#D7D7D7"/>
<path d="M313.284 470.031H537.5L534.471 474.531H308L313.284 470.031Z" fill="#E6E6E6"/>
<path d="M308 474.531H534.471V478H308V474.531Z" fill="#DDDDDD"/>
<path d="M534.471 474.531L537.5 470.031V473.5L534.471 478V474.531Z" fill="#DDDDDD"/>
<path d="M471 451H511L493 488H453L471 451Z" fill="#9B9B9B"/>
<rect x="453" y="488" width="40" height="6" fill="#9B9B9B"/>
<path d="M493 488L511 451V457L493 494V488Z" fill="#9B9B9B"/>
<rect x="436" y="558" width="20" height="17" fill="#E6E6E6"/>
<path d="M236.5 395C236.5 372 386.6 381.6 335 352C270.5 315 379.5 294 418.5 295" stroke="#389EB5" stroke-width="2"/>
<path d="M512 395C512.5 392.667 514.5 389 505 388C495.5 387 382 399.5 357.5 362.5C333.726 326.597 372.5 298 416.5 300" stroke="#389EB5" stroke-width="2"/>
<line x1="576.343" y1="231.246" x2="693.343" y2="129.246" stroke="#389EB5" stroke-width="2" stroke-dasharray="5 8"/>
<line x1="539.189" y1="560.416" x2="763.189" y2="249.416" stroke="#389EB5" stroke-width="2" stroke-dasharray="5 8"/>
<line x1="585.755" y1="272.031" x2="747.755" y2="231.031" stroke="#389EB5" stroke-width="2" stroke-dasharray="5 8"/>
<line x1="597.317" y1="566.27" x2="911.317" y2="272.27" stroke="#389EB5" stroke-width="2" stroke-dasharray="5 8"/>
<rect x="788" y="109" width="75" height="51" fill="#D7D7D7"/>
<rect x="875" y="109" width="75" height="51" fill="#D7D7D7"/>
<rect x="962" y="109" width="75" height="51" fill="#D7D7D7"/>
<path d="M554 571.5C554 574.538 549.523 575 544 575C538.477 575 534 574.538 534 571.5C534 568.462 538.477 566 544 566C549.523 566 554 568.462 554 571.5Z" fill="#389EB5"/>
<path d="M591 571.5C591 574.538 586.523 575 581 575C575.477 575 571 574.538 571 571.5C571 568.462 575.477 566 581 566C586.523 566 591 568.462 591 571.5Z" fill="#389EB5"/>
<path d="M100 338.5C99.1667 325.333 97.4 299 97 299L95 338.5H100Z" fill="#9B9B9B"/>
<path d="M24 299H97L95 344.5L22 344.687L24 299Z" fill="#E6E6E6"/>
<path d="M26.4659 301H90.0238L88.1137 342H24.5558L26.4659 301Z" fill="#C4C4C4"/>
<path d="M95.0068 321.844C95.0068 323.215 93.8951 324.327 92.5238 324.327C91.1525 324.327 90.0408 323.215 90.0408 321.844C90.0408 320.472 91.1525 319.361 92.5238 319.361C93.8951 319.361 95.0068 320.472 95.0068 321.844Z" fill="#C4C4C4"/>
<path d="M95.5 344L95 344.5L97 299L95.5 344Z" fill="#C4C4C4"/>
<path d="M193 340.5C192.167 327.333 190.4 301 190 301L188 340.5H193Z" fill="#9B9B9B"/>
<path d="M117 301H190L188 346.5L115 346.687L117 301Z" fill="#E6E6E6"/>
<path d="M119.466 303H183.024L181.114 344H117.556L119.466 303Z" fill="#C4C4C4"/>
<path d="M188.007 323.844C188.007 325.215 186.895 326.327 185.524 326.327C184.153 326.327 183.041 325.215 183.041 323.844C183.041 322.472 184.153 321.361 185.524 321.361C186.895 321.361 188.007 322.472 188.007 323.844Z" fill="#C4C4C4"/>
<path d="M188.5 346L188 346.5L190 301L188.5 346Z" fill="#C4C4C4"/>
<path d="M496 42L496 134" stroke="#FF7A00" stroke-width="3" stroke-linecap="round" stroke-linejoin="round"/>
<path d="M112.954 288.971C112.66 289.904 111.34 289.904 111.046 288.971L104.615 268.55C104.412 267.906 104.894 267.25 105.569 267.25L118.431 267.25C119.106 267.25 119.588 267.906 119.385 268.55L112.954 288.971Z" fill="#FF7A00"/>
<path d="M496.954 142.971C496.66 143.904 495.34 143.904 495.046 142.971L488.615 122.55C488.412 121.906 488.894 121.25 489.569 121.25L502.431 121.25C503.106 121.25 503.588 121.906 503.385 122.55L496.954 142.971Z" fill="#FF7A00"/>
<path d="M1000.05 208.029C1000.34 207.096 1001.66 207.096 1001.95 208.029L1008.38 228.45C1008.59 229.094 1008.11 229.75 1007.43 229.75H994.569C993.894 229.75 993.412 229.094 993.615 228.45L1000.05 208.029Z" fill="#FF7A00"/>
<path d="M722.5 40.9999L117 41C114.239 41 112 43.2385 112 46L112 284" stroke="#FF7A00" stroke-width="3" stroke-linecap="round" stroke-linejoin="round"/>
<path d="M623 570L996 570C998.761 570 1001 567.761 1001 565L1001 220" stroke="#FF7A00" stroke-width="3" stroke-linecap="round" stroke-linejoin="round"/>
</g>
<defs>
<clipPath id="clip0">
<rect width="1092" height="605" fill="white"/>
</clipPath>
</defs>
</svg>
