<svg width="1092" height="605" viewBox="0 0 1092 605" fill="none" xmlns="http://www.w3.org/2000/svg">
<rect width="1092" height="605" fill="white"/>
<path d="M727.241 0H1091.24V226C1060.24 246.5 1024.24 211.5 1024.24 211.5C1024.24 211.5 1007.24 257.5 946.241 259.5C885.241 261.5 863.741 221.5 863.741 221.5C863.741 221.5 795.241 257 755.741 221.5C717.817 187.416 738.241 149 738.241 149C738.241 149 699.645 139.259 689.241 108.5C677.741 74.5002 714.241 50 714.241 50C714.241 50 689.241 15.0002 727.241 0Z" fill="#F2F2F2"/>
<path d="M968.539 175L965.49 164.89H966.728L969.229 173.592L971.731 165.074H973.064L975.491 173.599L978.014 164.89H979.251L976.161 175H974.869L972.408 166.503L969.824 175H968.539ZM984.241 168.889C983.909 168.488 983.451 168.287 982.867 168.287C982.284 168.287 981.808 168.494 981.438 168.909C981.069 169.319 980.853 169.882 980.789 170.598H984.747C984.747 169.855 984.578 169.285 984.241 168.889ZM983.093 175.157C982.004 175.157 981.145 174.811 980.516 174.118C979.891 173.425 979.579 172.478 979.579 171.274C979.579 170.112 979.882 169.171 980.488 168.451C981.094 167.727 981.892 167.357 982.881 167.344C983.811 167.344 984.547 167.663 985.089 168.301C985.636 168.934 985.909 169.782 985.909 170.844C985.909 170.898 985.907 170.999 985.902 171.145C985.902 171.29 985.902 171.395 985.902 171.459H980.755C980.769 172.311 980.987 172.977 981.411 173.455C981.84 173.929 982.414 174.166 983.134 174.166C983.927 174.166 984.722 173.956 985.52 173.537L985.697 174.46C984.936 174.925 984.068 175.157 983.093 175.157ZM990.906 168.294C990.182 168.294 989.626 168.545 989.238 169.046C988.855 169.543 988.664 170.274 988.664 171.24C988.664 173.218 989.409 174.207 990.899 174.207C991.269 174.207 991.592 174.132 991.87 173.981C992.153 173.826 992.374 173.612 992.533 173.339C992.697 173.061 992.818 172.749 992.896 172.402C992.978 172.056 993.019 171.671 993.019 171.247C993.019 170.673 992.95 170.172 992.813 169.743C992.681 169.315 992.453 168.966 992.13 168.697C991.806 168.428 991.398 168.294 990.906 168.294ZM991.022 167.344C991.688 167.344 992.262 167.512 992.745 167.85C993.228 168.187 993.59 168.645 993.832 169.224C994.074 169.802 994.194 170.465 994.194 171.213C994.194 171.988 994.074 172.669 993.832 173.257C993.595 173.845 993.233 174.31 992.745 174.651C992.262 174.989 991.683 175.157 991.009 175.157C990.512 175.157 990.059 175.05 989.648 174.836C989.238 174.622 988.896 174.33 988.623 173.961L988.507 175H987.529V164.589L988.671 164.521V167.002C988.671 167.613 988.662 168.137 988.644 168.574C988.908 168.196 989.25 167.897 989.669 167.679C990.093 167.455 990.544 167.344 991.022 167.344ZM1000.86 175V170.468C1000.86 169.716 1000.74 169.169 1000.5 168.827C1000.26 168.485 999.843 168.314 999.246 168.314C998.672 168.314 998.187 168.458 997.79 168.745C997.398 169.032 997.143 169.404 997.024 169.859C996.983 170.201 996.963 170.582 996.963 171.001V175H995.821V164.589L996.963 164.521V167.569C996.963 167.829 996.954 168.15 996.936 168.533C997.578 167.74 998.43 167.344 999.492 167.344C1001.16 167.344 1002 168.326 1002 170.29V175H1000.86ZM1004.24 171.268C1004.24 172.156 1004.44 172.869 1004.83 173.407C1005.23 173.94 1005.8 174.207 1006.56 174.207C1007.31 174.207 1007.87 173.94 1008.25 173.407C1008.63 172.874 1008.82 172.156 1008.82 171.254C1008.82 170.338 1008.63 169.618 1008.26 169.094C1007.88 168.565 1007.31 168.301 1006.54 168.301C1005.79 168.301 1005.22 168.57 1004.83 169.107C1004.44 169.645 1004.24 170.365 1004.24 171.268ZM1010.01 171.247C1010.01 172.409 1009.7 173.353 1009.08 174.077C1008.46 174.797 1007.6 175.157 1006.51 175.157C1005.45 175.157 1004.61 174.793 1003.99 174.063C1003.37 173.334 1003.06 172.398 1003.06 171.254C1003.06 170.087 1003.37 169.144 1004 168.424C1004.62 167.704 1005.48 167.344 1006.57 167.344C1007.64 167.344 1008.48 167.706 1009.09 168.431C1009.7 169.151 1010.01 170.09 1010.01 171.247ZM1012.46 171.268C1012.46 172.156 1012.66 172.869 1013.05 173.407C1013.44 173.94 1014.02 174.207 1014.78 174.207C1015.52 174.207 1016.09 173.94 1016.47 173.407C1016.85 172.874 1017.04 172.156 1017.04 171.254C1017.04 170.338 1016.85 169.618 1016.47 169.094C1016.1 168.565 1015.53 168.301 1014.76 168.301C1014.01 168.301 1013.44 168.57 1013.05 169.107C1012.66 169.645 1012.46 170.365 1012.46 171.268ZM1018.22 171.247C1018.22 172.409 1017.91 173.353 1017.29 174.077C1016.67 174.797 1015.82 175.157 1014.72 175.157C1013.67 175.157 1012.83 174.793 1012.21 174.063C1011.59 173.334 1011.28 172.398 1011.28 171.254C1011.28 170.087 1011.59 169.144 1012.21 168.424C1012.84 167.704 1013.69 167.344 1014.78 167.344C1015.86 167.344 1016.7 167.706 1017.31 168.431C1017.92 169.151 1018.22 170.09 1018.22 171.247ZM1019.86 175V164.589L1020.99 164.521V169.969V170.926C1021.02 170.898 1021.06 170.853 1021.11 170.789C1021.17 170.725 1021.21 170.677 1021.24 170.646C1021.64 170.213 1022.67 169.164 1024.32 167.501H1025.77L1022.65 170.659L1025.99 175H1024.57L1021.83 171.309L1020.99 172.026V175H1019.86ZM1029.2 175.157C1028.69 175.157 1028.22 175.103 1027.79 174.993C1027.36 174.884 1027.01 174.743 1026.74 174.569L1026.88 173.605C1027.64 174.011 1028.39 174.214 1029.13 174.214C1030.24 174.214 1030.81 173.822 1030.84 173.038C1030.84 172.705 1030.72 172.443 1030.49 172.252C1030.25 172.061 1029.78 171.846 1029.09 171.609L1028.52 171.411C1027.87 171.192 1027.4 170.921 1027.12 170.598C1026.84 170.274 1026.7 169.871 1026.69 169.388C1026.69 168.8 1026.93 168.312 1027.4 167.925C1027.87 167.537 1028.52 167.344 1029.34 167.344C1030.19 167.344 1030.96 167.508 1031.66 167.836L1031.32 168.711C1030.61 168.419 1029.95 168.273 1029.34 168.273C1028.86 168.273 1028.48 168.369 1028.21 168.561C1027.94 168.747 1027.81 169.012 1027.81 169.354C1027.81 169.645 1027.9 169.868 1028.1 170.023C1028.3 170.178 1028.69 170.356 1029.28 170.557C1029.43 170.611 1029.62 170.675 1029.84 170.748C1030.6 170.994 1031.14 171.286 1031.45 171.623C1031.76 171.956 1031.92 172.407 1031.92 172.977C1031.91 173.669 1031.66 174.207 1031.18 174.59C1030.69 174.968 1030.03 175.157 1029.2 175.157Z" fill="black"/>
<path d="M875.305 175H874.095V164.773H877.39C877.891 164.773 878.344 164.826 878.75 164.931C879.156 165.035 879.516 165.195 879.83 165.409C880.145 165.623 880.388 165.91 880.562 166.271C880.735 166.631 880.821 167.05 880.821 167.528C880.821 167.925 880.785 168.28 880.712 168.595C880.639 168.905 880.514 169.196 880.336 169.47C880.158 169.743 879.926 169.971 879.639 170.153C879.352 170.331 878.982 170.472 878.531 170.577C878.085 170.677 877.565 170.728 876.973 170.728C876.503 170.728 875.947 170.698 875.305 170.639V175ZM877.089 169.682C877.535 169.682 877.918 169.638 878.237 169.552C878.556 169.465 878.8 169.358 878.969 169.23C879.142 169.103 879.276 168.937 879.372 168.731C879.472 168.526 879.534 168.34 879.557 168.171C879.579 167.998 879.591 167.79 879.591 167.549C879.591 166.97 879.395 166.544 879.003 166.271C878.616 165.997 878.087 165.86 877.417 165.86H875.305V169.668C876.184 169.677 876.779 169.682 877.089 169.682ZM884.021 175.137C883.291 175.137 882.774 174.941 882.469 174.549C882.168 174.157 882.018 173.476 882.018 172.505V164.589L883.152 164.521V172.054C883.152 172.364 883.155 172.612 883.159 172.799C883.168 172.986 883.187 173.17 883.214 173.353C883.241 173.53 883.278 173.665 883.323 173.756C883.369 173.847 883.435 173.931 883.521 174.009C883.608 174.082 883.711 174.132 883.829 174.159C883.952 174.182 884.103 174.193 884.28 174.193C884.426 174.193 884.713 174.166 885.142 174.111L885.203 175.021C884.734 175.098 884.34 175.137 884.021 175.137ZM886.734 171.268C886.734 172.156 886.93 172.869 887.322 173.407C887.719 173.94 888.295 174.207 889.052 174.207C889.799 174.207 890.362 173.94 890.74 173.407C891.123 172.874 891.314 172.156 891.314 171.254C891.314 170.338 891.125 169.618 890.747 169.094C890.373 168.565 889.801 168.301 889.031 168.301C888.284 168.301 887.714 168.57 887.322 169.107C886.93 169.645 886.734 170.365 886.734 171.268ZM892.497 171.247C892.497 172.409 892.187 173.353 891.567 174.077C890.948 174.797 890.091 175.157 888.997 175.157C887.944 175.157 887.106 174.793 886.481 174.063C885.862 173.334 885.552 172.398 885.552 171.254C885.552 170.087 885.864 169.144 886.488 168.424C887.113 167.704 887.969 167.344 889.059 167.344C890.13 167.344 890.97 167.706 891.581 168.431C892.192 169.151 892.497 170.09 892.497 171.247ZM896.51 175.137C895.771 175.137 895.247 174.957 894.938 174.597C894.628 174.237 894.464 173.656 894.445 172.854V168.349H893.331L893.379 167.597L894.438 167.501L894.828 165.785L895.58 165.758V167.501H897.665V168.349H895.58V172.648C895.58 173.218 895.667 173.619 895.84 173.852C896.013 174.084 896.309 174.2 896.729 174.2C896.879 174.2 897.205 174.164 897.706 174.091L897.754 174.993C897.212 175.089 896.797 175.137 896.51 175.137ZM905.841 175H904.651V165.936H901.541V164.89H908.951V165.936H905.841V175ZM911.897 174.234C912.44 174.234 912.916 174.086 913.326 173.79C913.741 173.489 914.007 173.086 914.126 172.58V171.315C914.103 171.315 913.964 171.327 913.709 171.35C913.458 171.372 913.294 171.386 913.217 171.391C912.228 171.477 911.537 171.639 911.146 171.876C910.758 172.113 910.564 172.493 910.564 173.018C910.564 173.419 910.683 173.722 910.92 173.927C911.157 174.132 911.483 174.234 911.897 174.234ZM914.379 175C914.311 174.708 914.244 174.394 914.181 174.057C913.766 174.471 913.376 174.758 913.012 174.918C912.647 175.077 912.219 175.157 911.727 175.157C911.025 175.157 910.46 174.975 910.031 174.61C909.607 174.241 909.396 173.713 909.396 173.024C909.396 172.259 909.685 171.691 910.264 171.322C910.847 170.953 911.686 170.723 912.779 170.632C912.93 170.618 913.155 170.6 913.456 170.577C913.761 170.55 913.989 170.529 914.14 170.516V169.853C914.14 169.324 914.017 168.932 913.771 168.677C913.524 168.422 913.137 168.294 912.608 168.294C911.87 168.294 911.125 168.476 910.373 168.841C910.35 168.786 910.291 168.629 910.195 168.369C910.1 168.105 910.049 167.968 910.045 167.959C910.378 167.772 910.772 167.624 911.228 167.515C911.688 167.401 912.155 167.344 912.629 167.344C913.563 167.344 914.235 167.549 914.646 167.959C915.06 168.365 915.268 169.057 915.268 170.037V175H914.379ZM919.472 175.157C918.961 175.157 918.49 175.103 918.057 174.993C917.628 174.884 917.28 174.743 917.011 174.569L917.154 173.605C917.915 174.011 918.663 174.214 919.396 174.214C920.508 174.214 921.08 173.822 921.112 173.038C921.112 172.705 920.994 172.443 920.757 172.252C920.52 172.061 920.055 171.846 919.362 171.609L918.795 171.411C918.139 171.192 917.669 170.921 917.387 170.598C917.109 170.274 916.967 169.871 916.963 169.388C916.963 168.8 917.198 168.312 917.667 167.925C918.141 167.537 918.788 167.344 919.608 167.344C920.456 167.344 921.229 167.508 921.926 167.836L921.591 168.711C920.884 168.419 920.224 168.273 919.608 168.273C919.13 168.273 918.754 168.369 918.48 168.561C918.212 168.747 918.077 169.012 918.077 169.354C918.077 169.645 918.175 169.868 918.371 170.023C918.567 170.178 918.959 170.356 919.547 170.557C919.697 170.611 919.886 170.675 920.114 170.748C920.871 170.994 921.406 171.286 921.721 171.623C922.035 171.956 922.192 172.407 922.192 172.977C922.183 173.669 921.935 174.207 921.447 174.59C920.96 174.968 920.301 175.157 919.472 175.157ZM923.771 175V164.589L924.906 164.521V169.969V170.926C924.934 170.898 924.975 170.853 925.029 170.789C925.084 170.725 925.127 170.677 925.159 170.646C925.556 170.213 926.581 169.164 928.235 167.501H929.685L926.567 170.659L929.903 175H928.481L925.74 171.309L924.906 172.026V175H923.771Z" fill="black"/>
<path d="M794.421 175H793.211V164.773H796.506C797.007 164.773 797.461 164.826 797.866 164.931C798.272 165.035 798.632 165.195 798.946 165.409C799.261 165.623 799.505 165.91 799.678 166.271C799.851 166.631 799.938 167.05 799.938 167.528C799.938 167.925 799.901 168.28 799.828 168.595C799.755 168.905 799.63 169.196 799.452 169.47C799.274 169.743 799.042 169.971 798.755 170.153C798.468 170.331 798.099 170.472 797.647 170.577C797.201 170.677 796.681 170.728 796.089 170.728C795.619 170.728 795.063 170.698 794.421 170.639V175ZM796.205 169.682C796.652 169.682 797.035 169.638 797.354 169.552C797.673 169.465 797.916 169.358 798.085 169.23C798.258 169.103 798.393 168.937 798.488 168.731C798.589 168.526 798.65 168.34 798.673 168.171C798.696 167.998 798.707 167.79 798.707 167.549C798.707 166.97 798.511 166.544 798.119 166.271C797.732 165.997 797.203 165.86 796.533 165.86H794.421V169.668C795.3 169.677 795.895 169.682 796.205 169.682ZM804.483 167.433C804.688 167.433 804.875 167.446 805.044 167.474L805.003 168.526C804.793 168.49 804.611 168.472 804.456 168.472C803.818 168.472 803.299 168.695 802.897 169.142C802.501 169.584 802.303 170.133 802.303 170.789V175H801.161C801.157 170.397 801.154 167.897 801.154 167.501H802.104L802.214 168.848C802.474 168.424 802.804 168.082 803.205 167.822C803.606 167.562 804.032 167.433 804.483 167.433ZM810.403 168.889C810.071 168.488 809.613 168.287 809.029 168.287C808.446 168.287 807.97 168.494 807.601 168.909C807.231 169.319 807.015 169.882 806.951 170.598H810.909C810.909 169.855 810.741 169.285 810.403 168.889ZM809.255 175.157C808.166 175.157 807.307 174.811 806.678 174.118C806.053 173.425 805.741 172.478 805.741 171.274C805.741 170.112 806.044 169.171 806.65 168.451C807.257 167.727 808.054 167.357 809.043 167.344C809.973 167.344 810.709 167.663 811.251 168.301C811.798 168.934 812.071 169.782 812.071 170.844C812.071 170.898 812.069 170.999 812.064 171.145C812.064 171.29 812.064 171.395 812.064 171.459H806.917C806.931 172.311 807.149 172.977 807.573 173.455C808.002 173.929 808.576 174.166 809.296 174.166C810.089 174.166 810.884 173.956 811.682 173.537L811.859 174.46C811.098 174.925 810.23 175.157 809.255 175.157ZM815.578 175L812.673 167.501H813.896L815.551 171.958C815.551 171.958 815.779 172.591 816.234 173.858C816.389 173.371 816.604 172.742 816.877 171.972C817.223 171.001 817.761 169.511 818.49 167.501H819.707L816.822 175H815.578ZM822.059 167.501V175H820.91V167.501H822.059ZM822.059 164.773V166.127H820.91V164.773H822.059ZM828.532 168.889C828.2 168.488 827.742 168.287 827.158 168.287C826.575 168.287 826.099 168.494 825.729 168.909C825.36 169.319 825.144 169.882 825.08 170.598H829.038C829.038 169.855 828.869 169.285 828.532 168.889ZM827.384 175.157C826.295 175.157 825.436 174.811 824.807 174.118C824.182 173.425 823.87 172.478 823.87 171.274C823.87 170.112 824.173 169.171 824.779 168.451C825.385 167.727 826.183 167.357 827.172 167.344C828.102 167.344 828.838 167.663 829.38 168.301C829.927 168.934 830.2 169.782 830.2 170.844C830.2 170.898 830.198 170.999 830.193 171.145C830.193 171.29 830.193 171.395 830.193 171.459H825.046C825.06 172.311 825.278 172.977 825.702 173.455C826.131 173.929 826.705 174.166 827.425 174.166C828.218 174.166 829.013 173.956 829.811 173.537L829.988 174.46C829.227 174.925 828.359 175.157 827.384 175.157ZM838.26 175C837.207 171.637 836.555 169.543 836.305 168.718C836.163 169.219 836.002 169.761 835.819 170.345C835.637 170.928 835.478 171.429 835.341 171.849C835.204 172.268 835.026 172.81 834.808 173.476C834.589 174.141 834.423 174.649 834.309 175H833.078L830.938 167.501H832.121L833.728 173.64C833.951 172.91 834.607 170.864 835.696 167.501H836.988C838.073 170.937 838.711 172.977 838.902 173.619L840.488 167.501H841.657L839.497 175H838.26Z" fill="black"/>
<rect x="424" y="192" width="147" height="92" fill="#E6E6E6"/>
<path d="M424 284H571L594 336H398L424 284Z" fill="#DDDDDD"/>
<path d="M398 336H594L584 341H409L398 336Z" fill="#D7D7D7"/>
<rect x="430" y="199" width="134" height="79" fill="#C4C4C4"/>
<path d="M227 395H247L148 558H128L227 395Z" fill="#E6E6E6"/>
<path d="M148 558L247 395V411L148 575V558Z" fill="#D7D7D7"/>
<path d="M5.28431 470.031H230.969L226.471 474.531H0L5.28431 470.031Z" fill="#E6E6E6"/>
<path d="M0 474.531H226.471V478H0V474.531Z" fill="#DDDDDD"/>
<path d="M226.471 474.531L231 470V473.469L226.471 478V474.531Z" fill="#DDDDDD"/>
<path d="M180.5 451H220.5L196 488H156L180.5 451Z" fill="#9B9B9B"/>
<rect x="156" y="488" width="40" height="6" fill="#9B9B9B"/>
<path d="M196 488L220.5 451V457L196 494V488Z" fill="#9B9B9B"/>
<rect x="128" y="558" width="20" height="17" fill="#E6E6E6"/>
<path d="M503 395H523L456 558H436L503 395Z" fill="#E6E6E6"/>
<path d="M456 558L523 395V411L456 575V558Z" fill="#D7D7D7"/>
<path d="M313.284 470.031H537.5L534.471 474.531H308L313.284 470.031Z" fill="#E6E6E6"/>
<path d="M308 474.531H534.471V478H308V474.531Z" fill="#DDDDDD"/>
<path d="M534.471 474.531L537.5 470.031V473.5L534.471 478V474.531Z" fill="#DDDDDD"/>
<path d="M471 451H511L493 488H453L471 451Z" fill="#9B9B9B"/>
<rect x="453" y="488" width="40" height="6" fill="#9B9B9B"/>
<path d="M493 488L511 451V457L493 494V488Z" fill="#9B9B9B"/>
<rect x="436" y="558" width="20" height="17" fill="#E6E6E6"/>
<path d="M236.5 395C236.5 372 386.6 381.6 335 352C270.5 315 379.5 294 418.5 295" stroke="#389EB5" stroke-width="2"/>
<path d="M512 395C512.5 392.667 514.5 389 505 388C495.5 387 382 399.5 357.5 362.5C333.726 326.597 372.5 298 416.5 300" stroke="#389EB5" stroke-width="2"/>
<line x1="576.343" y1="231.246" x2="693.343" y2="129.246" stroke="#389EB5" stroke-width="2" stroke-dasharray="5 8"/>
<line x1="539.189" y1="560.416" x2="763.189" y2="249.416" stroke="#389EB5" stroke-width="2" stroke-dasharray="5 8"/>
<line x1="585.755" y1="272.031" x2="747.755" y2="231.031" stroke="#389EB5" stroke-width="2" stroke-dasharray="5 8"/>
<line x1="597.317" y1="566.27" x2="911.317" y2="272.27" stroke="#389EB5" stroke-width="2" stroke-dasharray="5 8"/>
<rect x="788.5" y="109.5" width="74" height="50" fill="#00ACFF" fill-opacity="0.17" stroke="#00ACFF"/>
<rect x="875.5" y="109.5" width="74" height="50" fill="#00ACFF" fill-opacity="0.17" stroke="#00ACFF"/>
<rect x="962.5" y="109.5" width="74" height="50" fill="#00ACFF" fill-opacity="0.17" stroke="#00ACFF"/>
<path d="M554 571.5C554 574.538 549.523 575 544 575C538.477 575 534 574.538 534 571.5C534 568.462 538.477 566 544 566C549.523 566 554 568.462 554 571.5Z" fill="#389EB5"/>
<path d="M591 571.5C591 574.538 586.523 575 581 575C575.477 575 571 574.538 571 571.5C571 568.462 575.477 566 581 566C586.523 566 591 568.462 591 571.5Z" fill="#389EB5"/>
<path d="M100 338.5C99.1667 325.333 97.4 299 97 299L95 338.5H100Z" fill="#9B9B9B"/>
<path d="M24 299H97L95 344.5L22 344.687L24 299Z" fill="#E6E6E6"/>
<path d="M26.4659 301H90.0238L88.1137 342H24.5558L26.4659 301Z" fill="#C4C4C4"/>
<path d="M95.0068 321.844C95.0068 323.215 93.8951 324.327 92.5238 324.327C91.1525 324.327 90.0408 323.215 90.0408 321.844C90.0408 320.472 91.1525 319.361 92.5238 319.361C93.8951 319.361 95.0068 320.472 95.0068 321.844Z" fill="#C4C4C4"/>
<path d="M95.5 344L95 344.5L97 299L95.5 344Z" fill="#C4C4C4"/>
<path d="M193 340.5C192.167 327.333 190.4 301 190 301L188 340.5H193Z" fill="#9B9B9B"/>
<path d="M117 301H190L188 346.5L115 346.687L117 301Z" fill="#E6E6E6"/>
<path d="M119.466 303H183.024L181.114 344H117.556L119.466 303Z" fill="#C4C4C4"/>
<path d="M188.007 323.844C188.007 325.215 186.895 326.327 185.524 326.327C184.153 326.327 183.041 325.215 183.041 323.844C183.041 322.472 184.153 321.361 185.524 321.361C186.895 321.361 188.007 322.472 188.007 323.844Z" fill="#C4C4C4"/>
<path d="M188.5 346L188 346.5L190 301L188.5 346Z" fill="#C4C4C4"/>
<path d="M799.903 100H798.181L791.431 89.7695L790.991 89.1631C791.038 90.3936 791.062 91.4922 791.062 92.459V100H789.638V87.001H791.334L798.102 97.2314L798.55 97.8379C798.509 95.9688 798.488 94.8877 798.488 94.5947V87.001H799.903V100ZM803.762 95.2012C803.762 96.3438 804.014 97.2607 804.518 97.9521C805.027 98.6377 805.769 98.9805 806.741 98.9805C807.702 98.9805 808.426 98.6377 808.912 97.9521C809.404 97.2666 809.65 96.3438 809.65 95.1836C809.65 94.0059 809.407 93.0801 808.921 92.4062C808.44 91.7266 807.705 91.3867 806.715 91.3867C805.754 91.3867 805.021 91.7324 804.518 92.4238C804.014 93.1152 803.762 94.041 803.762 95.2012ZM811.171 95.1748C811.171 96.6689 810.772 97.8818 809.976 98.8135C809.179 99.7393 808.077 100.202 806.671 100.202C805.317 100.202 804.239 99.7334 803.437 98.7959C802.64 97.8584 802.241 96.6543 802.241 95.1836C802.241 93.6836 802.643 92.4707 803.445 91.5449C804.248 90.6191 805.35 90.1562 806.75 90.1562C808.127 90.1562 809.208 90.6221 809.993 91.5537C810.778 92.4795 811.171 93.6865 811.171 95.1748ZM825.497 100V94.9814C825.497 94.5127 825.485 94.1201 825.462 93.8037C825.444 93.4873 825.397 93.165 825.321 92.8369C825.251 92.5088 825.148 92.251 825.014 92.0635C824.885 91.8701 824.703 91.7148 824.469 91.5977C824.234 91.4746 823.953 91.4131 823.625 91.4131C822.98 91.4131 822.43 91.5859 821.973 91.9316C821.521 92.2773 821.199 92.7637 821.006 93.3906C820.953 93.8125 820.927 94.2637 820.927 94.7441V100H819.459V94.8232C819.459 94.3896 819.444 94.0146 819.415 93.6982C819.386 93.376 819.33 93.0654 819.248 92.7666C819.166 92.4619 819.055 92.2158 818.914 92.0283C818.779 91.8408 818.598 91.6914 818.369 91.5801C818.141 91.4688 817.868 91.4131 817.552 91.4131C816.849 91.4131 816.257 91.5918 815.776 91.9492C815.302 92.3066 814.982 92.7812 814.818 93.373C814.766 93.8242 814.739 94.3135 814.739 94.8408V100H813.271C813.26 93.9707 813.254 90.7568 813.254 90.3584H814.484L814.669 91.7383C814.962 91.293 815.378 90.918 815.917 90.6133C816.456 90.3086 817.068 90.1562 817.754 90.1562C818.111 90.1562 818.439 90.1943 818.738 90.2705C819.043 90.3408 819.295 90.4316 819.494 90.543C819.699 90.6543 819.881 90.7891 820.039 90.9473C820.197 91.0996 820.32 91.252 820.408 91.4043C820.496 91.5508 820.569 91.7061 820.628 91.8701C821.331 90.7275 822.406 90.1562 823.854 90.1562C824.926 90.1562 825.711 90.4639 826.209 91.0791C826.713 91.6885 826.965 92.5938 826.965 93.7949V100H825.497ZM831.632 99.0156C832.329 99.0156 832.941 98.8252 833.469 98.4443C834.002 98.0576 834.345 97.5391 834.497 96.8887V95.2627C834.468 95.2627 834.289 95.2773 833.961 95.3066C833.639 95.3359 833.428 95.3535 833.328 95.3594C832.057 95.4707 831.169 95.6787 830.665 95.9834C830.167 96.2881 829.918 96.7773 829.918 97.4512C829.918 97.9668 830.07 98.3564 830.375 98.6201C830.68 98.8838 831.099 99.0156 831.632 99.0156ZM834.822 100C834.734 99.625 834.649 99.2207 834.567 98.7871C834.034 99.3203 833.533 99.6895 833.064 99.8945C832.596 100.1 832.045 100.202 831.412 100.202C830.51 100.202 829.783 99.9678 829.232 99.499C828.688 99.0244 828.415 98.3447 828.415 97.46C828.415 96.4756 828.787 95.7461 829.531 95.2715C830.281 94.7969 831.359 94.501 832.766 94.3838C832.959 94.3662 833.249 94.3428 833.636 94.3135C834.028 94.2783 834.321 94.252 834.515 94.2344V93.3818C834.515 92.7021 834.356 92.1982 834.04 91.8701C833.724 91.542 833.226 91.3779 832.546 91.3779C831.597 91.3779 830.639 91.6123 829.672 92.0811C829.643 92.0107 829.566 91.8086 829.443 91.4746C829.32 91.1348 829.256 90.959 829.25 90.9473C829.678 90.707 830.185 90.5166 830.771 90.376C831.362 90.2295 831.963 90.1562 832.572 90.1562C833.773 90.1562 834.638 90.4199 835.165 90.9473C835.698 91.4688 835.965 92.3594 835.965 93.6191V100H834.822ZM842.258 98.9365C843.225 98.9365 843.942 98.626 844.411 98.0049C844.886 97.3838 845.123 96.4961 845.123 95.3418C845.123 94.041 844.895 93.0625 844.438 92.4062C843.986 91.7441 843.254 91.4131 842.24 91.4131C841.789 91.4131 841.391 91.5098 841.045 91.7031C840.699 91.8965 840.421 92.166 840.21 92.5117C839.999 92.8574 839.838 93.2559 839.727 93.707C839.621 94.1523 839.568 94.6416 839.568 95.1748C839.568 95.9248 839.659 96.5752 839.841 97.126C840.028 97.6768 840.327 98.1162 840.737 98.4443C841.147 98.7725 841.654 98.9365 842.258 98.9365ZM845.149 98.6025C844.833 99.0889 844.411 99.4756 843.884 99.7627C843.356 100.05 842.768 100.193 842.117 100.193C840.846 100.193 839.85 99.7422 839.129 98.8398C838.408 97.9316 838.048 96.6982 838.048 95.1396C838.048 93.6514 838.414 92.4502 839.146 91.5361C839.879 90.6162 840.86 90.1562 842.091 90.1562C842.729 90.1562 843.33 90.2969 843.893 90.5781C844.461 90.8535 844.886 91.2256 845.167 91.6943L845.141 90.8594V86.6143L846.591 86.5264V100H845.343L845.149 98.6025Z" fill="#00BC7F"/>
<path d="M686.548 201.117C685.569 201.117 684.726 201.354 684.017 201.829C683.313 202.304 682.789 202.942 682.443 203.745C682.098 204.548 681.925 205.471 681.925 206.514C681.925 207.293 682.019 208.005 682.206 208.649C682.394 209.288 682.675 209.851 683.05 210.337C683.425 210.817 683.911 211.192 684.509 211.462C685.112 211.726 685.804 211.857 686.583 211.857C687.585 211.857 688.622 211.597 689.694 211.075L689.949 212.367C689.076 212.918 687.896 213.193 686.407 213.193C685.429 213.193 684.55 213.032 683.771 212.71C682.997 212.382 682.355 211.922 681.846 211.33C681.342 210.732 680.958 210.023 680.694 209.203C680.431 208.377 680.299 207.46 680.299 206.452C680.299 205.479 680.442 204.583 680.729 203.763C681.017 202.942 681.421 202.239 681.942 201.653C682.47 201.062 683.126 200.602 683.911 200.273C684.696 199.945 685.569 199.781 686.53 199.781C687.989 199.781 689.22 200.104 690.222 200.748L689.624 201.987C688.663 201.407 687.638 201.117 686.548 201.117ZM692.981 208.201C692.981 209.344 693.233 210.261 693.737 210.952C694.247 211.638 694.988 211.98 695.961 211.98C696.922 211.98 697.646 211.638 698.132 210.952C698.624 210.267 698.87 209.344 698.87 208.184C698.87 207.006 698.627 206.08 698.141 205.406C697.66 204.727 696.925 204.387 695.935 204.387C694.974 204.387 694.241 204.732 693.737 205.424C693.233 206.115 692.981 207.041 692.981 208.201ZM700.391 208.175C700.391 209.669 699.992 210.882 699.195 211.813C698.398 212.739 697.297 213.202 695.891 213.202C694.537 213.202 693.459 212.733 692.656 211.796C691.859 210.858 691.461 209.654 691.461 208.184C691.461 206.684 691.862 205.471 692.665 204.545C693.468 203.619 694.569 203.156 695.97 203.156C697.347 203.156 698.428 203.622 699.213 204.554C699.998 205.479 700.391 206.687 700.391 208.175ZM702.474 213V203.358H703.704L703.889 204.738C704.27 204.264 704.744 203.883 705.312 203.596C705.887 203.303 706.505 203.156 707.167 203.156C708.28 203.156 709.104 203.47 709.637 204.097C710.17 204.718 710.437 205.676 710.437 206.971V213H708.969C708.969 209.133 708.966 207.062 708.96 206.786C708.937 205.966 708.77 205.365 708.459 204.984C708.154 204.604 707.642 204.413 706.921 204.413C706.165 204.413 705.535 204.595 705.031 204.958C704.527 205.321 704.199 205.793 704.047 206.373C703.988 206.766 703.959 207.217 703.959 207.727V213H702.474ZM715.754 213.202C715.098 213.202 714.491 213.132 713.935 212.991C713.384 212.851 712.936 212.669 712.59 212.446L712.774 211.207C713.753 211.729 714.714 211.989 715.657 211.989C717.087 211.989 717.822 211.485 717.863 210.478C717.863 210.05 717.711 209.713 717.406 209.467C717.102 209.221 716.504 208.945 715.613 208.641L714.884 208.386C714.04 208.104 713.437 207.756 713.073 207.34C712.716 206.924 712.534 206.405 712.528 205.784C712.528 205.028 712.83 204.401 713.434 203.903C714.043 203.405 714.875 203.156 715.93 203.156C717.02 203.156 718.013 203.367 718.909 203.789L718.479 204.914C717.57 204.539 716.721 204.352 715.93 204.352C715.314 204.352 714.831 204.475 714.479 204.721C714.134 204.961 713.961 205.301 713.961 205.74C713.961 206.115 714.087 206.402 714.339 206.602C714.591 206.801 715.095 207.029 715.851 207.287C716.044 207.357 716.287 207.439 716.58 207.533C717.553 207.85 718.241 208.225 718.646 208.658C719.05 209.086 719.252 209.666 719.252 210.398C719.24 211.289 718.921 211.98 718.294 212.473C717.667 212.959 716.82 213.202 715.754 213.202ZM720.931 209.783V203.358H722.407V209.801C722.407 210.223 722.466 210.58 722.583 210.873C722.706 211.166 722.879 211.395 723.102 211.559C723.33 211.717 723.585 211.831 723.866 211.901C724.153 211.972 724.481 212.007 724.851 212.007C725.612 212.007 726.204 211.84 726.626 211.506C727.054 211.172 727.268 210.604 727.268 209.801V203.358H728.744V209.783C728.744 210.275 728.674 210.718 728.533 211.11C728.393 211.503 728.202 211.831 727.962 212.095C727.728 212.353 727.443 212.566 727.109 212.736C726.775 212.906 726.421 213.029 726.046 213.105C725.677 213.182 725.278 213.22 724.851 213.22C724.429 213.22 724.03 213.182 723.655 213.105C723.28 213.029 722.923 212.906 722.583 212.736C722.249 212.561 721.959 212.344 721.713 212.086C721.473 211.822 721.282 211.494 721.142 211.102C721.001 210.709 720.931 210.27 720.931 209.783ZM733.525 213.176C732.588 213.176 731.923 212.924 731.53 212.42C731.144 211.916 730.95 211.04 730.95 209.792V199.614L732.409 199.526V209.212C732.409 209.61 732.412 209.93 732.418 210.17C732.43 210.41 732.453 210.647 732.488 210.882C732.523 211.11 732.57 211.283 732.629 211.4C732.688 211.518 732.772 211.626 732.884 211.726C732.995 211.819 733.127 211.884 733.279 211.919C733.438 211.948 733.631 211.963 733.859 211.963C734.047 211.963 734.416 211.928 734.967 211.857L735.046 213.026C734.442 213.126 733.936 213.176 733.525 213.176Z" fill="#CA2171"/>
<path d="M599.219 248V240.501H600.176L600.319 241.574C600.616 241.205 600.985 240.909 601.427 240.686C601.873 240.458 602.354 240.344 602.869 240.344C603.735 240.344 604.375 240.588 604.79 241.075C605.205 241.558 605.412 242.303 605.412 243.311V248H604.271C604.271 244.992 604.268 243.381 604.264 243.167C604.245 242.529 604.116 242.062 603.874 241.766C603.637 241.469 603.238 241.321 602.678 241.321C602.09 241.321 601.6 241.463 601.208 241.745C600.816 242.028 600.561 242.395 600.442 242.846C600.397 243.151 600.374 243.502 600.374 243.898V248H599.219ZM610.225 247.022C610.612 247.022 610.951 246.954 611.243 246.817C611.535 246.681 611.763 246.492 611.927 246.25C612.091 246.008 612.212 245.74 612.289 245.443C612.371 245.147 612.412 244.824 612.412 244.473V243.919C612.412 243.554 612.371 243.219 612.289 242.914C612.207 242.604 612.079 242.328 611.906 242.087C611.738 241.841 611.51 241.649 611.223 241.513C610.94 241.376 610.61 241.308 610.231 241.308C609.917 241.308 609.63 241.367 609.37 241.485C609.115 241.604 608.903 241.761 608.734 241.957C608.57 242.148 608.429 242.374 608.311 242.634C608.197 242.889 608.115 243.149 608.064 243.413C608.014 243.677 607.989 243.944 607.989 244.213C607.989 244.477 608.017 244.739 608.071 244.999C608.126 245.259 608.213 245.512 608.331 245.758C608.45 246.004 608.593 246.22 608.762 246.407C608.93 246.59 609.14 246.738 609.391 246.852C609.646 246.965 609.924 247.022 610.225 247.022ZM608.468 251.432L608.365 250.399H609.76C610.147 250.399 610.484 250.372 610.771 250.317C611.059 250.263 611.298 250.172 611.489 250.044C611.681 249.921 611.836 249.782 611.954 249.627C612.073 249.477 612.161 249.278 612.221 249.032C612.285 248.791 612.326 248.549 612.344 248.308C612.367 248.071 612.378 247.779 612.378 247.433V246.77C612.104 247.161 611.788 247.465 611.428 247.679C611.068 247.888 610.61 247.993 610.054 247.993C609.625 247.993 609.229 247.92 608.864 247.774C608.504 247.624 608.199 247.426 607.948 247.18C607.702 246.934 607.49 246.649 607.312 246.325C607.139 246.002 607.012 245.667 606.93 245.32C606.852 244.974 606.813 244.625 606.813 244.274C606.813 243.728 606.88 243.222 607.012 242.757C607.148 242.292 607.349 241.877 607.613 241.513C607.878 241.148 608.224 240.863 608.652 240.658C609.085 240.449 609.58 240.344 610.136 240.344C610.628 240.344 611.056 240.439 611.421 240.631C611.79 240.818 612.12 241.107 612.412 241.499V240.501H613.526V247.46C613.526 247.779 613.517 248.057 613.499 248.294C613.485 248.535 613.447 248.802 613.383 249.094C613.324 249.385 613.242 249.636 613.137 249.846C613.032 250.055 612.884 250.265 612.692 250.475C612.506 250.689 612.28 250.86 612.016 250.987C611.756 251.119 611.432 251.227 611.045 251.309C610.658 251.391 610.22 251.432 609.732 251.432H608.468ZM618.797 240.433C619.002 240.433 619.189 240.446 619.357 240.474L619.316 241.526C619.107 241.49 618.924 241.472 618.77 241.472C618.132 241.472 617.612 241.695 617.211 242.142C616.814 242.584 616.616 243.133 616.616 243.789V248H615.475C615.47 243.397 615.468 240.897 615.468 240.501H616.418L616.527 241.848C616.787 241.424 617.118 241.082 617.519 240.822C617.92 240.562 618.346 240.433 618.797 240.433ZM621.23 244.268C621.23 245.156 621.426 245.869 621.818 246.407C622.215 246.94 622.791 247.207 623.548 247.207C624.295 247.207 624.858 246.94 625.236 246.407C625.619 245.874 625.811 245.156 625.811 244.254C625.811 243.338 625.621 242.618 625.243 242.094C624.869 241.565 624.298 241.301 623.527 241.301C622.78 241.301 622.21 241.57 621.818 242.107C621.426 242.645 621.23 243.365 621.23 244.268ZM626.993 244.247C626.993 245.409 626.683 246.353 626.063 247.077C625.444 247.797 624.587 248.157 623.493 248.157C622.44 248.157 621.602 247.793 620.978 247.063C620.358 246.334 620.048 245.398 620.048 244.254C620.048 243.087 620.36 242.144 620.984 241.424C621.609 240.704 622.465 240.344 623.555 240.344C624.626 240.344 625.466 240.706 626.077 241.431C626.688 242.151 626.993 243.09 626.993 244.247ZM628.627 248V237.589L629.762 237.521V242.969V243.926C629.789 243.898 629.83 243.853 629.885 243.789C629.939 243.725 629.983 243.677 630.015 243.646C630.411 243.213 631.437 242.164 633.091 240.501H634.54L631.423 243.659L634.759 248H633.337L630.596 244.309L629.762 245.026V248H628.627Z" fill="#E65300"/>
<path d="M86.375 271H84.8545V258.001H92.0703L92.0088 259.346H86.375V263.907H91.7451V265.199H86.375V271ZM96.3154 270.016C97.0127 270.016 97.625 269.825 98.1523 269.444C98.6855 269.058 99.0283 268.539 99.1807 267.889V266.263C99.1514 266.263 98.9727 266.277 98.6445 266.307C98.3223 266.336 98.1113 266.354 98.0117 266.359C96.7402 266.471 95.8525 266.679 95.3486 266.983C94.8506 267.288 94.6016 267.777 94.6016 268.451C94.6016 268.967 94.7539 269.356 95.0586 269.62C95.3633 269.884 95.7822 270.016 96.3154 270.016ZM99.5059 271C99.418 270.625 99.333 270.221 99.251 269.787C98.7178 270.32 98.2168 270.689 97.748 270.895C97.2793 271.1 96.7285 271.202 96.0957 271.202C95.1934 271.202 94.4668 270.968 93.916 270.499C93.3711 270.024 93.0986 269.345 93.0986 268.46C93.0986 267.476 93.4707 266.746 94.2148 266.271C94.9648 265.797 96.043 265.501 97.4492 265.384C97.6426 265.366 97.9326 265.343 98.3193 265.313C98.7119 265.278 99.0049 265.252 99.1982 265.234V264.382C99.1982 263.702 99.04 263.198 98.7236 262.87C98.4072 262.542 97.9092 262.378 97.2295 262.378C96.2803 262.378 95.3223 262.612 94.3555 263.081C94.3262 263.011 94.25 262.809 94.127 262.475C94.0039 262.135 93.9395 261.959 93.9336 261.947C94.3613 261.707 94.8682 261.517 95.4541 261.376C96.0459 261.229 96.6465 261.156 97.2559 261.156C98.457 261.156 99.3213 261.42 99.8486 261.947C100.382 262.469 100.648 263.359 100.648 264.619V271H99.5059ZM107.565 262.378C106.634 262.378 105.919 262.7 105.421 263.345C104.929 263.983 104.683 264.924 104.683 266.166C104.683 268.709 105.641 269.98 107.557 269.98C108.031 269.98 108.447 269.884 108.805 269.69C109.168 269.491 109.452 269.216 109.657 268.864C109.868 268.507 110.023 268.105 110.123 267.66C110.229 267.215 110.281 266.72 110.281 266.175C110.281 265.437 110.193 264.792 110.018 264.241C109.848 263.69 109.555 263.242 109.139 262.896C108.723 262.551 108.198 262.378 107.565 262.378ZM107.715 261.156C108.57 261.156 109.309 261.373 109.93 261.807C110.551 262.24 111.017 262.829 111.327 263.573C111.638 264.317 111.793 265.17 111.793 266.131C111.793 267.127 111.638 268.003 111.327 268.759C111.022 269.515 110.557 270.112 109.93 270.552C109.309 270.985 108.564 271.202 107.697 271.202C107.059 271.202 106.476 271.064 105.948 270.789C105.421 270.514 104.981 270.139 104.63 269.664L104.48 271H103.224V257.614L104.691 257.526V260.717C104.691 261.502 104.68 262.176 104.656 262.738C104.996 262.252 105.436 261.868 105.975 261.587C106.52 261.3 107.1 261.156 107.715 261.156ZM115.599 261.358V271H114.122V261.358H115.599ZM115.599 257.852V259.592H114.122V257.852H115.599ZM119.439 266.201C119.439 267.344 119.691 268.261 120.195 268.952C120.705 269.638 121.446 269.98 122.419 269.98C123.38 269.98 124.104 269.638 124.59 268.952C125.082 268.267 125.328 267.344 125.328 266.184C125.328 265.006 125.085 264.08 124.599 263.406C124.118 262.727 123.383 262.387 122.393 262.387C121.432 262.387 120.699 262.732 120.195 263.424C119.691 264.115 119.439 265.041 119.439 266.201ZM126.849 266.175C126.849 267.669 126.45 268.882 125.653 269.813C124.856 270.739 123.755 271.202 122.349 271.202C120.995 271.202 119.917 270.733 119.114 269.796C118.317 268.858 117.919 267.654 117.919 266.184C117.919 264.684 118.32 263.471 119.123 262.545C119.926 261.619 121.027 261.156 122.428 261.156C123.805 261.156 124.886 261.622 125.671 262.554C126.456 263.479 126.849 264.687 126.849 266.175Z" fill="#468BF2"/>
<path d="M659.375 424H657.854V411.001H665.07L665.009 412.346H659.375V416.907H664.745V418.199H659.375V424ZM669.315 423.016C670.013 423.016 670.625 422.825 671.152 422.444C671.686 422.058 672.028 421.539 672.181 420.889V419.263C672.151 419.263 671.973 419.277 671.645 419.307C671.322 419.336 671.111 419.354 671.012 419.359C669.74 419.471 668.853 419.679 668.349 419.983C667.851 420.288 667.602 420.777 667.602 421.451C667.602 421.967 667.754 422.356 668.059 422.62C668.363 422.884 668.782 423.016 669.315 423.016ZM672.506 424C672.418 423.625 672.333 423.221 672.251 422.787C671.718 423.32 671.217 423.689 670.748 423.895C670.279 424.1 669.729 424.202 669.096 424.202C668.193 424.202 667.467 423.968 666.916 423.499C666.371 423.024 666.099 422.345 666.099 421.46C666.099 420.476 666.471 419.746 667.215 419.271C667.965 418.797 669.043 418.501 670.449 418.384C670.643 418.366 670.933 418.343 671.319 418.313C671.712 418.278 672.005 418.252 672.198 418.234V417.382C672.198 416.702 672.04 416.198 671.724 415.87C671.407 415.542 670.909 415.378 670.229 415.378C669.28 415.378 668.322 415.612 667.355 416.081C667.326 416.011 667.25 415.809 667.127 415.475C667.004 415.135 666.939 414.959 666.934 414.947C667.361 414.707 667.868 414.517 668.454 414.376C669.046 414.229 669.646 414.156 670.256 414.156C671.457 414.156 672.321 414.42 672.849 414.947C673.382 415.469 673.648 416.359 673.648 417.619V424H672.506ZM680.565 415.378C679.634 415.378 678.919 415.7 678.421 416.345C677.929 416.983 677.683 417.924 677.683 419.166C677.683 421.709 678.641 422.98 680.557 422.98C681.031 422.98 681.447 422.884 681.805 422.69C682.168 422.491 682.452 422.216 682.657 421.864C682.868 421.507 683.023 421.105 683.123 420.66C683.229 420.215 683.281 419.72 683.281 419.175C683.281 418.437 683.193 417.792 683.018 417.241C682.848 416.69 682.555 416.242 682.139 415.896C681.723 415.551 681.198 415.378 680.565 415.378ZM680.715 414.156C681.57 414.156 682.309 414.373 682.93 414.807C683.551 415.24 684.017 415.829 684.327 416.573C684.638 417.317 684.793 418.17 684.793 419.131C684.793 420.127 684.638 421.003 684.327 421.759C684.022 422.515 683.557 423.112 682.93 423.552C682.309 423.985 681.564 424.202 680.697 424.202C680.059 424.202 679.476 424.064 678.948 423.789C678.421 423.514 677.981 423.139 677.63 422.664L677.48 424H676.224V410.614L677.691 410.526V413.717C677.691 414.502 677.68 415.176 677.656 415.738C677.996 415.252 678.436 414.868 678.975 414.587C679.52 414.3 680.1 414.156 680.715 414.156ZM688.599 414.358V424H687.122V414.358H688.599ZM688.599 410.852V412.592H687.122V410.852H688.599ZM692.439 419.201C692.439 420.344 692.691 421.261 693.195 421.952C693.705 422.638 694.446 422.98 695.419 422.98C696.38 422.98 697.104 422.638 697.59 421.952C698.082 421.267 698.328 420.344 698.328 419.184C698.328 418.006 698.085 417.08 697.599 416.406C697.118 415.727 696.383 415.387 695.393 415.387C694.432 415.387 693.699 415.732 693.195 416.424C692.691 417.115 692.439 418.041 692.439 419.201ZM699.849 419.175C699.849 420.669 699.45 421.882 698.653 422.813C697.856 423.739 696.755 424.202 695.349 424.202C693.995 424.202 692.917 423.733 692.114 422.796C691.317 421.858 690.919 420.654 690.919 419.184C690.919 417.684 691.32 416.471 692.123 415.545C692.926 414.619 694.027 414.156 695.428 414.156C696.805 414.156 697.886 414.622 698.671 415.554C699.456 416.479 699.849 417.687 699.849 419.175Z" fill="#468BF2"/>
<path d="M977.469 62H975.939V50.3457H971.94V49.001H981.468V50.3457H977.469V62ZM987.972 54.1426C987.544 53.627 986.955 53.3691 986.205 53.3691C985.455 53.3691 984.843 53.6357 984.368 54.1689C983.894 54.6963 983.615 55.4199 983.533 56.3398H988.622C988.622 55.3848 988.405 54.6523 987.972 54.1426ZM986.495 62.2021C985.095 62.2021 983.99 61.7568 983.182 60.8662C982.379 59.9756 981.978 58.7568 981.978 57.21C981.978 55.7158 982.367 54.5059 983.146 53.5801C983.926 52.6484 984.951 52.1738 986.223 52.1562C987.418 52.1562 988.364 52.5664 989.062 53.3867C989.765 54.2012 990.116 55.291 990.116 56.6562C990.116 56.7266 990.113 56.8555 990.107 57.043C990.107 57.2305 990.107 57.3652 990.107 57.4473H983.489C983.507 58.543 983.788 59.3984 984.333 60.0137C984.884 60.623 985.622 60.9277 986.548 60.9277C987.567 60.9277 988.59 60.6582 989.615 60.1191L989.844 61.3057C988.865 61.9033 987.749 62.2021 986.495 62.2021ZM996.479 52.2705C996.743 52.2705 996.983 52.2881 997.2 52.3232L997.147 53.6768C996.878 53.6299 996.644 53.6064 996.444 53.6064C995.624 53.6064 994.956 53.8936 994.44 54.4678C993.931 55.0361 993.676 55.7422 993.676 56.5859V62H992.208C992.202 56.082 992.199 52.8682 992.199 52.3584H993.421L993.562 54.0898C993.896 53.5449 994.32 53.1055 994.836 52.7715C995.352 52.4375 995.899 52.2705 996.479 52.2705ZM1003.04 52.2705C1003.3 52.2705 1003.54 52.2881 1003.76 52.3232L1003.7 53.6768C1003.43 53.6299 1003.2 53.6064 1003 53.6064C1002.18 53.6064 1001.51 53.8936 1001 54.4678C1000.49 55.0361 1000.23 55.7422 1000.23 56.5859V62H998.765C998.759 56.082 998.756 52.8682 998.756 52.3584H999.978L1000.12 54.0898C1000.45 53.5449 1000.88 53.1055 1001.39 52.7715C1001.91 52.4375 1002.46 52.2705 1003.04 52.2705ZM1007.88 61.0156C1008.58 61.0156 1009.19 60.8252 1009.72 60.4443C1010.25 60.0576 1010.59 59.5391 1010.74 58.8887V57.2627C1010.71 57.2627 1010.54 57.2773 1010.21 57.3066C1009.89 57.3359 1009.67 57.3535 1009.58 57.3594C1008.3 57.4707 1007.42 57.6787 1006.91 57.9834C1006.41 58.2881 1006.17 58.7773 1006.17 59.4512C1006.17 59.9668 1006.32 60.3564 1006.62 60.6201C1006.93 60.8838 1007.35 61.0156 1007.88 61.0156ZM1011.07 62C1010.98 61.625 1010.9 61.2207 1010.81 60.7871C1010.28 61.3203 1009.78 61.6895 1009.31 61.8945C1008.84 62.0996 1008.29 62.2021 1007.66 62.2021C1006.76 62.2021 1006.03 61.9678 1005.48 61.499C1004.93 61.0244 1004.66 60.3447 1004.66 59.46C1004.66 58.4756 1005.03 57.7461 1005.78 57.2715C1006.53 56.7969 1007.61 56.501 1009.01 56.3838C1009.21 56.3662 1009.5 56.3428 1009.88 56.3135C1010.28 56.2783 1010.57 56.252 1010.76 56.2344V55.3818C1010.76 54.7021 1010.6 54.1982 1010.29 53.8701C1009.97 53.542 1009.47 53.3779 1008.79 53.3779C1007.84 53.3779 1006.89 53.6123 1005.92 54.0811C1005.89 54.0107 1005.81 53.8086 1005.69 53.4746C1005.57 53.1348 1005.5 52.959 1005.5 52.9473C1005.92 52.707 1006.43 52.5166 1007.02 52.376C1007.61 52.2295 1008.21 52.1562 1008.82 52.1562C1010.02 52.1562 1010.88 52.4199 1011.41 52.9473C1011.95 53.4688 1012.21 54.3594 1012.21 55.6191V62H1011.07ZM1018.41 49.5547C1017.8 49.5547 1017.38 49.7305 1017.15 50.082C1016.93 50.4336 1016.82 51.043 1016.82 51.9102V52.3584H1019.14V53.4482H1016.82V62H1015.35V53.4482H1013.79L1013.91 52.4814L1015.35 52.3584V51.9277C1015.36 50.6855 1015.59 49.7861 1016.04 49.2295C1016.5 48.667 1017.24 48.3857 1018.25 48.3857C1018.64 48.3857 1019.12 48.4297 1019.69 48.5176L1019.59 49.6689C1019.07 49.5928 1018.68 49.5547 1018.41 49.5547ZM1021.62 57.2012C1021.62 58.3438 1021.87 59.2607 1022.37 59.9521C1022.88 60.6377 1023.62 60.9805 1024.6 60.9805C1025.56 60.9805 1026.28 60.6377 1026.77 59.9521C1027.26 59.2666 1027.5 58.3438 1027.5 57.1836C1027.5 56.0059 1027.26 55.0801 1026.78 54.4062C1026.29 53.7266 1025.56 53.3867 1024.57 53.3867C1023.61 53.3867 1022.88 53.7324 1022.37 54.4238C1021.87 55.1152 1021.62 56.041 1021.62 57.2012ZM1029.03 57.1748C1029.03 58.6689 1028.63 59.8818 1027.83 60.8135C1027.03 61.7393 1025.93 62.2021 1024.53 62.2021C1023.17 62.2021 1022.09 61.7334 1021.29 60.7959C1020.49 59.8584 1020.1 58.6543 1020.1 57.1836C1020.1 55.6836 1020.5 54.4707 1021.3 53.5449C1022.1 52.6191 1023.2 52.1562 1024.6 52.1562C1025.98 52.1562 1027.06 52.6221 1027.85 53.5537C1028.63 54.4795 1029.03 55.6865 1029.03 57.1748ZM1035.43 52.2705C1035.7 52.2705 1035.94 52.2881 1036.15 52.3232L1036.1 53.6768C1035.83 53.6299 1035.6 53.6064 1035.4 53.6064C1034.58 53.6064 1033.91 53.8936 1033.39 54.4678C1032.88 55.0361 1032.63 55.7422 1032.63 56.5859V62H1031.16C1031.16 56.082 1031.15 52.8682 1031.15 52.3584H1032.37L1032.51 54.0898C1032.85 53.5449 1033.27 53.1055 1033.79 52.7715C1034.3 52.4375 1034.85 52.2705 1035.43 52.2705ZM1049.91 62V56.9814C1049.91 56.5127 1049.9 56.1201 1049.87 55.8037C1049.86 55.4873 1049.81 55.165 1049.73 54.8369C1049.66 54.5088 1049.56 54.251 1049.42 54.0635C1049.3 53.8701 1049.11 53.7148 1048.88 53.5977C1048.65 53.4746 1048.36 53.4131 1048.04 53.4131C1047.39 53.4131 1046.84 53.5859 1046.38 53.9316C1045.93 54.2773 1045.61 54.7637 1045.42 55.3906C1045.36 55.8125 1045.34 56.2637 1045.34 56.7441V62H1043.87V56.8232C1043.87 56.3896 1043.86 56.0146 1043.83 55.6982C1043.8 55.376 1043.74 55.0654 1043.66 54.7666C1043.58 54.4619 1043.47 54.2158 1043.33 54.0283C1043.19 53.8408 1043.01 53.6914 1042.78 53.5801C1042.55 53.4688 1042.28 53.4131 1041.96 53.4131C1041.26 53.4131 1040.67 53.5918 1040.19 53.9492C1039.71 54.3066 1039.39 54.7812 1039.23 55.373C1039.18 55.8242 1039.15 56.3135 1039.15 56.8408V62H1037.68C1037.67 55.9707 1037.67 52.7568 1037.67 52.3584H1038.9L1039.08 53.7383C1039.37 53.293 1039.79 52.918 1040.33 52.6133C1040.87 52.3086 1041.48 52.1562 1042.17 52.1562C1042.52 52.1562 1042.85 52.1943 1043.15 52.2705C1043.45 52.3408 1043.71 52.4316 1043.91 52.543C1044.11 52.6543 1044.29 52.7891 1044.45 52.9473C1044.61 53.0996 1044.73 53.252 1044.82 53.4043C1044.91 53.5508 1044.98 53.7061 1045.04 53.8701C1045.74 52.7275 1046.82 52.1562 1048.26 52.1562C1049.34 52.1562 1050.12 52.4639 1050.62 53.0791C1051.12 53.6885 1051.38 54.5938 1051.38 55.7949V62H1049.91Z" fill="#623CE4"/>
<path d="M986.278 100H984.723V86.8516H988.959C989.604 86.8516 990.187 86.9189 990.708 87.0537C991.229 87.1885 991.692 87.3936 992.097 87.6689C992.501 87.9443 992.814 88.3135 993.037 88.7764C993.26 89.2393 993.371 89.7783 993.371 90.3936C993.371 90.9033 993.324 91.3604 993.23 91.7646C993.137 92.1631 992.976 92.5381 992.747 92.8896C992.519 93.2412 992.22 93.5342 991.851 93.7686C991.481 93.9971 991.007 94.1787 990.427 94.3135C989.853 94.4424 989.185 94.5068 988.423 94.5068C987.819 94.5068 987.104 94.4688 986.278 94.3926V100ZM988.572 93.1621C989.146 93.1621 989.639 93.1064 990.049 92.9951C990.459 92.8838 990.772 92.7461 990.989 92.582C991.212 92.418 991.385 92.2041 991.508 91.9404C991.637 91.6768 991.716 91.4365 991.745 91.2197C991.774 90.9971 991.789 90.7305 991.789 90.4199C991.789 89.6758 991.537 89.1279 991.033 88.7764C990.535 88.4248 989.855 88.249 988.994 88.249H986.278V93.1445C987.409 93.1562 988.174 93.1621 988.572 93.1621ZM997.607 99.0156C998.305 99.0156 998.917 98.8252 999.444 98.4443C999.978 98.0576 1000.32 97.5391 1000.47 96.8887V95.2627C1000.44 95.2627 1000.26 95.2773 999.937 95.3066C999.614 95.3359 999.403 95.3535 999.304 95.3594C998.032 95.4707 997.145 95.6787 996.641 95.9834C996.143 96.2881 995.894 96.7773 995.894 97.4512C995.894 97.9668 996.046 98.3564 996.351 98.6201C996.655 98.8838 997.074 99.0156 997.607 99.0156ZM1000.8 100C1000.71 99.625 1000.62 99.2207 1000.54 98.7871C1000.01 99.3203 999.509 99.6895 999.04 99.8945C998.571 100.1 998.021 100.202 997.388 100.202C996.485 100.202 995.759 99.9678 995.208 99.499C994.663 99.0244 994.391 98.3447 994.391 97.46C994.391 96.4756 994.763 95.7461 995.507 95.2715C996.257 94.7969 997.335 94.501 998.741 94.3838C998.935 94.3662 999.225 94.3428 999.611 94.3135C1000 94.2783 1000.3 94.252 1000.49 94.2344V93.3818C1000.49 92.7021 1000.33 92.1982 1000.02 91.8701C999.699 91.542 999.201 91.3779 998.521 91.3779C997.572 91.3779 996.614 91.6123 995.647 92.0811C995.618 92.0107 995.542 91.8086 995.419 91.4746C995.296 91.1348 995.231 90.959 995.226 90.9473C995.653 90.707 996.16 90.5166 996.746 90.376C997.338 90.2295 997.938 90.1562 998.548 90.1562C999.749 90.1562 1000.61 90.4199 1001.14 90.9473C1001.67 91.4688 1001.94 92.3594 1001.94 93.6191V100H1000.8ZM1008.55 100.202C1007.13 100.202 1006.02 99.7422 1005.22 98.8223C1004.42 97.9023 1004.02 96.6982 1004.02 95.21C1004.03 93.71 1004.44 92.4941 1005.25 91.5625C1006.06 90.625 1007.17 90.1562 1008.58 90.1562C1009.08 90.1562 1009.56 90.2178 1010.03 90.3408C1010.5 90.4639 1010.86 90.625 1011.13 90.8242L1010.73 91.9668C1010.04 91.5977 1009.32 91.4131 1008.56 91.4131C1007.63 91.4131 1006.89 91.7529 1006.34 92.4326C1005.8 93.1123 1005.54 94.041 1005.54 95.2188C1005.54 96.3672 1005.8 97.2783 1006.33 97.9521C1006.87 98.6201 1007.62 98.9541 1008.57 98.9541C1009.32 98.9541 1010.1 98.749 1010.89 98.3389L1011.07 99.5078C1010.43 99.9707 1009.59 100.202 1008.55 100.202ZM1013 100V86.6143L1014.46 86.5264V93.5312V94.7617C1014.49 94.7266 1014.54 94.668 1014.61 94.5859C1014.68 94.5039 1014.74 94.4424 1014.78 94.4014C1015.29 93.8447 1016.61 92.4971 1018.74 90.3584H1020.6L1016.59 94.4189L1020.88 100H1019.05L1015.53 95.2539L1014.46 96.1768V100H1013ZM1027.52 92.1426C1027.09 91.627 1026.5 91.3691 1025.75 91.3691C1025 91.3691 1024.39 91.6357 1023.91 92.1689C1023.44 92.6963 1023.16 93.4199 1023.08 94.3398H1028.17C1028.17 93.3848 1027.95 92.6523 1027.52 92.1426ZM1026.04 100.202C1024.64 100.202 1023.54 99.7568 1022.73 98.8662C1021.92 97.9756 1021.52 96.7568 1021.52 95.21C1021.52 93.7158 1021.91 92.5059 1022.69 91.5801C1023.47 90.6484 1024.5 90.1738 1025.77 90.1562C1026.96 90.1562 1027.91 90.5664 1028.61 91.3867C1029.31 92.2012 1029.66 93.291 1029.66 94.6562C1029.66 94.7266 1029.66 94.8555 1029.65 95.043C1029.65 95.2305 1029.65 95.3652 1029.65 95.4473H1023.03C1023.05 96.543 1023.33 97.3984 1023.88 98.0137C1024.43 98.623 1025.17 98.9277 1026.09 98.9277C1027.11 98.9277 1028.13 98.6582 1029.16 98.1191L1029.39 99.3057C1028.41 99.9033 1027.29 100.202 1026.04 100.202ZM1036.02 90.2705C1036.29 90.2705 1036.53 90.2881 1036.75 90.3232L1036.69 91.6768C1036.42 91.6299 1036.19 91.6064 1035.99 91.6064C1035.17 91.6064 1034.5 91.8936 1033.99 92.4678C1033.48 93.0361 1033.22 93.7422 1033.22 94.5859V100H1031.75C1031.75 94.082 1031.74 90.8682 1031.74 90.3584H1032.97L1033.11 92.0898C1033.44 91.5449 1033.87 91.1055 1034.38 90.7715C1034.9 90.4375 1035.44 90.2705 1036.02 90.2705Z" fill="#00ACFF"/>
<rect x="774" y="70" width="277" height="116" stroke="#623CE4" stroke-width="2"/>
<rect x="792" y="112" width="67" height="28" fill="#00BC7F"/>
<rect x="792" y="143" width="67" height="13" fill="#CA2171"/>
<rect x="879" y="112" width="67" height="28" fill="#00BC7F"/>
<rect x="879" y="143" width="67" height="13" fill="#CA2171"/>
<rect x="966" y="112" width="67" height="28" fill="#00BC7F"/>
<rect x="966" y="143" width="67" height="13" fill="#CA2171"/>
<line x1="848" y1="126.5" x2="976" y2="126.5" stroke="#00BC7F" stroke-width="5"/>
<path d="M853.5 145.5V191L641 243.5" stroke="#CA2171" stroke-width="3" stroke-linecap="round" stroke-linejoin="round"/>
<path d="M62 294V280.5H148" stroke="#468BF2" stroke-width="3"/>
<rect x="795" y="115" width="13" height="22" fill="#78ECC6"/>
<path d="M148 297.5V126H800.5" stroke="#468BF2" stroke-width="3" stroke-linecap="round" stroke-linejoin="round"/>
<rect x="969" y="115" width="13" height="22" fill="#78ECC6"/>
<rect x="811" y="115" width="13" height="22" fill="#78ECC6"/>
<path d="M550.5 561.5V554H582.5V561.5" stroke="#468BF2" stroke-width="3" stroke-linecap="round" stroke-linejoin="round"/>
<path d="M582.5 554L973.5 132.5" stroke="#468BF2" stroke-width="3" stroke-linecap="round" stroke-linejoin="round"/>
<rect x="985" y="115" width="13" height="22" fill="#78ECC6"/>
<line x1="576.5" y1="244.5" x2="594.5" y2="244.5" stroke="#E65300" stroke-width="3" stroke-linecap="round"/>
<rect x="1001" y="115" width="13" height="22" fill="#78ECC6"/>
<rect x="1017" y="115" width="13" height="22" fill="#78ECC6"/>
<rect x="882" y="115" width="13" height="22" fill="#78ECC6"/>
<rect x="898" y="115" width="13" height="22" fill="#78ECC6"/>
<rect x="914" y="115" width="13" height="22" fill="#78ECC6"/>
<rect x="930" y="115" width="13" height="22" fill="#78ECC6"/>
<line x1="848" y1="149.5" x2="976" y2="149.5" stroke="#CA2171" stroke-width="3"/>
</svg>
